SplineFontDB: 3.2
FontName: LiberationSans-Italic
FullName: Liberation Sans Italic
FamilyName: Liberation Sans
Weight: Book
Copyright: Digitized data copyright (c) 2010 Google Corporation.\nCopyright (c) 2012 Red Hat, Inc.
Version: 2.1.5
ItalicAngle: -12
UnderlinePosition: -142
UnderlineWidth: 150
Ascent: 1638
Descent: 410
InvalidEm: 0
LayerCount: 2
Layer: 0 1 "Back" 1
Layer: 1 1 "Fore" 0
XUID: [1021 445 290132255 11463017]
FSType: 0
OS2Version: 3
OS2_WeightWidthSlopeOnly: 0
OS2_UseTypoMetrics: 0
CreationTime: 1277743413
ModificationTime: 1632992274
PfmFamily: 17
TTFWeight: 400
TTFWidth: 5
LineGap: 67
VLineGap: 0
Panose: 2 11 6 4 2 2 2 9 2 4
OS2TypoAscent: 1491
OS2TypoAOffset: 0
OS2TypoDescent: -425
OS2TypoDOffset: 0
OS2TypoLinegap: 307
OS2WinAscent: 1854
OS2WinAOffset: 0
OS2WinDescent: 434
OS2WinDOffset: 0
HheadAscent: 1854
HheadAOffset: 0
HheadDescent: -434
HheadDOffset: 0
OS2SubXSize: 1434
OS2SubYSize: 1331
OS2SubXOff: 30
OS2SubYOff: 283
OS2SupXSize: 1434
OS2SupYSize: 1331
OS2SupXOff: 90
OS2SupYOff: 977
OS2StrikeYSize: 102
OS2StrikeYPos: 530
OS2FamilyClass: 2053
OS2Vendor: '1ASC'
OS2CodePages: 600001bf.dff70000
OS2UnicodeRanges: e0000aff.500078ff.00000021.00000000
Lookup: 1 0 0 "'locl' Localized Forms lookup 5" { "'locl' Localized Forms lookup 5-1"  } ['locl' ('cyrl' <'SRB ' > 'cyrl' <'MKD ' > ) ]
Lookup: 4 1 0 "'dlig' Discretionary Ligatures in Hebrew lookup 0" { "'dlig' Discretionary Ligatures in Hebrew lookup 0 subtable"  } ['dlig' ('hebr' <'dflt' > ) ]
Lookup: 4 1 0 "'ccmp' Glyph Composition/Decomposition in Hebrew lookup 1" { "'ccmp' Glyph Composition/Decomposition in Hebrew lookup 1 subtable"  } ['ccmp' ('hebr' <'dflt' > ) ]
Lookup: 6 1 0 "'ccmp' Glyph Composition/Decomposition in Hebrew lookup 2" { "'ccmp' Glyph Composition/Decomposition in Hebrew lookup 2 subtable"  } ['ccmp' ('hebr' <'dflt' > ) ]

StartChar: exclam
Encoding: 33 33 4
Width: 569
GlyphClass: 2
Flags: W
LayerCount: 2
Fore
SplineSet
329 397 m 1,0,-1
 181 397 l 1,1,-1
 353 1409 l 1,2,-1
 549 1409 l 1,3,-1
 329 397 l 1,0,-1
77 0 m 1,4,-1
 117 201 l 1,5,-1
 311 201 l 1,6,-1
 271 0 l 1,7,-1
 77 0 l 1,4,-1
EndSplineSet
Validated: 1
EndChar

StartChar: quotedbl
Encoding: 34 34 5
Width: 727
GlyphClass: 2
Flags: W
LayerCount: 2
Fore
SplineSet
697 966 m 1,0,-1
 555 966 l 1,1,-1
 619 1409 l 1,2,-1
 803 1409 l 1,3,-1
 697 966 l 1,0,-1
328 966 m 1,4,-1
 187 966 l 1,5,-1
 250 1409 l 1,6,-1
 434 1409 l 1,7,-1
 328 966 l 1,4,-1
EndSplineSet
Validated: 1
EndChar

StartChar: numbersign
Encoding: 35 35 6
Width: 1139
GlyphClass: 2
Flags: W
LayerCount: 2
Fore
SplineSet
926 885 m 1,0,-1
 848 516 l 1,1,-1
 1108 516 l 1,2,-1
 1108 408 l 1,3,-1
 825 408 l 1,4,-1
 737 0 l 1,5,-1
 627 0 l 1,6,-1
 713 408 l 1,7,-1
 350 408 l 1,8,-1
 266 0 l 1,9,-1
 156 0 l 1,10,-1
 240 408 l 1,11,-1
 39 408 l 1,12,-1
 39 516 l 1,13,-1
 264 516 l 1,14,-1
 342 885 l 1,15,-1
 90 885 l 1,16,-1
 90 993 l 1,17,-1
 364 993 l 1,18,-1
 453 1401 l 1,19,-1
 563 1401 l 1,20,-1
 475 993 l 1,21,-1
 838 993 l 1,22,-1
 926 1401 l 1,23,-1
 1036 1401 l 1,24,-1
 948 993 l 1,25,-1
 1159 993 l 1,26,-1
 1159 885 l 1,27,-1
 926 885 l 1,0,-1
455 885 m 1,28,-1
 375 516 l 1,29,-1
 737 516 l 1,30,-1
 815 885 l 1,31,-1
 455 885 l 1,28,-1
EndSplineSet
Validated: 1
EndChar

StartChar: dollar
Encoding: 36 36 7
Width: 1139
GlyphClass: 2
Flags: W
LayerCount: 2
Fore
SplineSet
1072 425 m 0,0,1
 1072 240 1072 240 934.5 134.5 c 128,-1,2
 797 29 797 29 540 21 c 1,3,-1
 509 -140 l 1,4,-1
 395 -140 l 1,5,-1
 427 23 l 1,6,7
 226 37 226 37 120.5 127 c 128,-1,8
 15 217 15 217 -12 376 c 1,9,-1
 151 413 l 1,10,11
 176 298 176 298 248.5 239 c 128,-1,12
 321 180 321 180 455 170 c 1,13,-1
 551 663 l 1,14,15
 402 704 402 704 329.5 749.5 c 128,-1,16
 257 795 257 795 219 859.5 c 128,-1,17
 181 924 181 924 181 1018 c 0,18,19
 181 1130 181 1130 246 1212.5 c 128,-1,20
 311 1295 311 1295 427.5 1339.5 c 128,-1,21
 544 1384 544 1384 691 1385 c 1,22,-1
 716 1516 l 1,23,-1
 830 1516 l 1,24,-1
 803 1379 l 1,25,26
 959 1360 959 1360 1051.5 1285 c 128,-1,27
 1144 1210 1144 1210 1170 1087 c 1,28,-1
 1014 1042 l 1,29,30
 969 1209 969 1209 776 1236 c 1,31,-1
 690 795 l 1,32,33
 886 742 886 742 979 650 c 128,-1,34
 1072 558 1072 558 1072 425 c 0,0,1
887 413 m 0,35,36
 887 491 887 491 836.5 541.5 c 128,-1,37
 786 592 786 592 659 632 c 1,38,-1
 569 169 l 1,39,40
 887 186 887 186 887 413 c 0,35,36
363 1018 m 0,41,42
 363 951 363 951 408 908 c 128,-1,43
 453 865 453 865 582 825 c 1,44,-1
 663 1240 l 1,45,46
 518 1235 518 1235 440.5 1178 c 128,-1,47
 363 1121 363 1121 363 1018 c 0,41,42
EndSplineSet
Validated: 1
EndChar

StartChar: percent
Encoding: 37 37 8
Width: 1821
GlyphClass: 2
Flags: W
LayerCount: 2
Fore
SplineSet
425 0 m 1,0,-1
 260 0 l 1,1,-1
 1446 1409 l 1,2,-1
 1613 1409 l 1,3,-1
 425 0 l 1,0,-1
545 1421 m 0,4,5
 670 1421 670 1421 737 1342 c 128,-1,6
 804 1263 804 1263 804 1113 c 0,7,8
 804 1007 804 1007 777 891.5 c 128,-1,9
 750 776 750 776 695 692.5 c 128,-1,10
 640 609 640 609 567.5 566.5 c 128,-1,11
 495 524 495 524 406 524 c 0,12,13
 282 524 282 524 214 606.5 c 128,-1,14
 146 689 146 689 146 841 c 0,15,16
 146 988 146 988 192.5 1130.5 c 128,-1,17
 239 1273 239 1273 327 1347 c 128,-1,18
 415 1421 415 1421 545 1421 c 0,4,5
544 1313 m 0,19,20
 477 1313 477 1313 434 1282 c 128,-1,21
 391 1251 391 1251 359 1184.5 c 128,-1,22
 327 1118 327 1118 305.5 1011 c 128,-1,23
 284 904 284 904 284 827 c 0,24,25
 284 637 284 637 410 637 c 0,26,27
 495 637 495 637 550 704 c 128,-1,28
 605 771 605 771 635 903 c 128,-1,29
 665 1035 665 1035 665 1131 c 0,30,31
 665 1313 665 1313 544 1313 c 0,19,20
1474 885 m 0,32,33
 1599 885 1599 885 1666 806 c 128,-1,34
 1733 727 1733 727 1733 577 c 0,35,36
 1733 471 1733 471 1706 355.5 c 128,-1,37
 1679 240 1679 240 1624 156.5 c 128,-1,38
 1569 73 1569 73 1496.5 30.5 c 128,-1,39
 1424 -12 1424 -12 1335 -12 c 0,40,41
 1211 -12 1211 -12 1143 70.5 c 128,-1,42
 1075 153 1075 153 1075 305 c 0,43,44
 1075 452 1075 452 1121.5 594.5 c 128,-1,45
 1168 737 1168 737 1256 811 c 128,-1,46
 1344 885 1344 885 1474 885 c 0,32,33
1473 777 m 0,47,48
 1406 777 1406 777 1363 746 c 128,-1,49
 1320 715 1320 715 1288 648.5 c 128,-1,50
 1256 582 1256 582 1234.5 475 c 128,-1,51
 1213 368 1213 368 1213 291 c 0,52,53
 1213 101 1213 101 1339 101 c 0,54,55
 1424 101 1424 101 1479 168 c 128,-1,56
 1534 235 1534 235 1564 367 c 128,-1,57
 1594 499 1594 499 1594 595 c 0,58,59
 1594 777 1594 777 1473 777 c 0,47,48
EndSplineSet
Validated: 1
EndChar

StartChar: ampersand
Encoding: 38 38 9
Width: 1366
GlyphClass: 2
Flags: W
LayerCount: 2
Fore
SplineSet
1248 684 m 1,0,1
 1109 369 1109 369 957 208 c 1,2,3
 997 170 997 170 1047.5 149.5 c 128,-1,4
 1098 129 1098 129 1144 129 c 0,5,6
 1204 129 1204 129 1256 145 c 1,7,-1
 1243 10 l 1,8,9
 1183 -12 1183 -12 1118 -12 c 0,10,11
 969 -12 969 -12 847 110 c 1,12,13
 669 -20 669 -20 440 -20 c 0,14,15
 251 -20 251 -20 142 80.5 c 128,-1,16
 33 181 33 181 33 351 c 0,17,18
 33 508 33 508 126 610.5 c 128,-1,19
 219 713 219 713 462 806 c 1,20,21
 434 925 434 925 434 1036 c 0,22,23
 434 1209 434 1209 542.5 1313 c 128,-1,24
 651 1417 651 1417 833 1417 c 0,25,26
 971 1417 971 1417 1057.5 1345 c 128,-1,27
 1144 1273 1144 1273 1144 1155 c 0,28,29
 1144 1039 1144 1039 1062.5 953 c 128,-1,30
 981 867 981 867 771 784 c 2,31,-1
 646 734 l 1,32,33
 722 510 722 510 864 315 c 1,34,35
 924 383 924 383 981 477 c 128,-1,36
 1038 571 1038 571 1116 739 c 1,37,-1
 1248 684 l 1,0,1
452 111 m 0,38,39
 615 111 615 111 753 212 c 1,40,41
 680 302 680 302 613 424.5 c 128,-1,42
 546 547 546 547 502 675 c 1,43,44
 334 609 334 609 268.5 536.5 c 128,-1,45
 203 464 203 464 203 354 c 0,46,47
 203 243 203 243 271.5 177 c 128,-1,48
 340 111 340 111 452 111 c 0,38,39
592 1041 m 0,49,50
 592 963 592 963 611 863 c 1,51,52
 690 892 690 892 759 918 c 128,-1,53
 828 944 828 944 879.5 976 c 128,-1,54
 931 1008 931 1008 960.5 1049 c 128,-1,55
 990 1090 990 1090 990 1148 c 0,56,57
 990 1213 990 1213 944.5 1254.5 c 128,-1,58
 899 1296 899 1296 826 1296 c 0,59,60
 714 1296 714 1296 653 1228.5 c 128,-1,61
 592 1161 592 1161 592 1041 c 0,49,50
EndSplineSet
Validated: 1
EndChar

StartChar: quotesingle
Encoding: 39 39 10
Width: 391
GlyphClass: 2
Flags: W
LayerCount: 2
Fore
SplineSet
343 966 m 1,0,-1
 202 966 l 1,1,-1
 265 1409 l 1,2,-1
 449 1409 l 1,3,-1
 343 966 l 1,0,-1
EndSplineSet
Validated: 1
EndChar

StartChar: parenleft
Encoding: 40 40 11
Width: 682
GlyphClass: 2
Flags: W
LayerCount: 2
Fore
SplineSet
855 1484 m 1,0,1
 277 975 277 975 277 262 c 0,2,3
 277 -127 277 -127 484 -424 c 1,4,-1
 310 -424 l 1,5,6
 96 -128 96 -128 96 278 c 0,7,8
 96 650 96 650 246 957 c 128,-1,9
 396 1264 396 1264 681 1484 c 1,10,-1
 855 1484 l 1,0,1
EndSplineSet
Validated: 1
EndChar

StartChar: parenright
Encoding: 41 41 12
Width: 682
GlyphClass: 2
Flags: W
LayerCount: 2
Fore
SplineSet
-199 -424 m 1,0,1
 379 85 379 85 379 798 c 0,2,3
 379 1187 379 1187 172 1484 c 1,4,-1
 346 1484 l 1,5,6
 560 1188 560 1188 560 782 c 0,7,8
 560 410 560 410 410 103 c 128,-1,9
 260 -204 260 -204 -25 -424 c 1,10,-1
 -199 -424 l 1,0,1
EndSplineSet
Validated: 1
EndChar

StartChar: asterisk
Encoding: 42 42 13
Width: 797
GlyphClass: 2
Flags: W
LayerCount: 2
Fore
SplineSet
543 1114 m 1,0,-1
 807 1217 l 1,1,-1
 852 1085 l 1,2,-1
 570 1012 l 1,3,-1
 755 762 l 1,4,-1
 636 690 l 1,5,-1
 486 948 l 1,6,-1
 330 692 l 1,7,-1
 211 764 l 1,8,-1
 400 1012 l 1,9,-1
 120 1085 l 1,10,-1
 165 1219 l 1,11,-1
 432 1112 l 1,12,-1
 420 1409 l 1,13,-1
 556 1409 l 1,14,-1
 543 1114 l 1,0,-1
EndSplineSet
Validated: 1
EndChar

StartChar: plus
Encoding: 43 43 14
Width: 1196
GlyphClass: 2
Flags: W
LayerCount: 2
Fore
SplineSet
701 608 m 1,0,-1
 701 180 l 1,1,-1
 554 180 l 1,2,-1
 554 608 l 1,3,-1
 130 608 l 1,4,-1
 130 754 l 1,5,-1
 554 754 l 1,6,-1
 554 1182 l 1,7,-1
 701 1182 l 1,8,-1
 701 754 l 1,9,-1
 1125 754 l 1,10,-1
 1125 608 l 1,11,-1
 701 608 l 1,0,-1
EndSplineSet
Validated: 1
EndChar

StartChar: comma
Encoding: 44 44 15
Width: 569
GlyphClass: 2
Flags: W
LayerCount: 2
Fore
SplineSet
160 -262 m 1,0,-1
 37 -262 l 1,1,2
 157 -125 157 -125 182 0 c 1,3,-1
 94 0 l 1,4,-1
 136 219 l 1,5,-1
 331 219 l 1,6,-1
 299 51 l 2,7,8
 281 -44 281 -44 248 -119 c 128,-1,9
 215 -194 215 -194 160 -262 c 1,0,-1
EndSplineSet
Validated: 1
EndChar

StartChar: hyphen
Encoding: 45 45 16
Width: 682
GlyphClass: 2
Flags: W
LayerCount: 2
Fore
SplineSet
105 464 m 1,0,-1
 136 624 l 1,1,-1
 636 624 l 1,2,-1
 605 464 l 1,3,-1
 105 464 l 1,0,-1
EndSplineSet
Validated: 1
EndChar

StartChar: period
Encoding: 46 46 17
Width: 569
GlyphClass: 2
Flags: W
LayerCount: 2
Fore
SplineSet
80 0 m 1,0,-1
 123 219 l 1,1,-1
 318 219 l 1,2,-1
 275 0 l 1,3,-1
 80 0 l 1,0,-1
EndSplineSet
Validated: 1
EndChar

StartChar: slash
Encoding: 47 47 18
Width: 569
GlyphClass: 2
Flags: W
LayerCount: 2
Fore
SplineSet
-116 -20 m 1,0,-1
 587 1484 l 1,1,-1
 745 1484 l 1,2,-1
 45 -20 l 1,3,-1
 -116 -20 l 1,0,-1
EndSplineSet
Validated: 1
EndChar

StartChar: zero
Encoding: 48 48 19
Width: 1139
GlyphClass: 2
Flags: W
LayerCount: 2
Fore
SplineSet
732 1430 m 0,0,1
 915 1430 915 1430 1018.5 1307 c 128,-1,2
 1122 1184 1122 1184 1122 964 c 0,3,4
 1122 708 1122 708 1044 468.5 c 128,-1,5
 966 229 966 229 823 104.5 c 128,-1,6
 680 -20 680 -20 476 -20 c 0,7,8
 295 -20 295 -20 192 109 c 128,-1,9
 89 238 89 238 89 465 c 0,10,11
 89 645 89 645 133.5 831 c 128,-1,12
 178 1017 178 1017 257.5 1153 c 128,-1,13
 337 1289 337 1289 454.5 1359.5 c 128,-1,14
 572 1430 572 1430 732 1430 c 0,0,1
491 127 m 0,15,16
 642 127 642 127 737.5 233 c 128,-1,17
 833 339 833 339 890 562.5 c 128,-1,18
 947 786 947 786 947 973 c 0,19,20
 947 1128 947 1128 887.5 1206 c 128,-1,21
 828 1284 828 1284 720 1284 c 0,22,23
 569 1284 569 1284 473.5 1178 c 128,-1,24
 378 1072 378 1072 321 848.5 c 128,-1,25
 264 625 264 625 264 438 c 0,26,27
 264 283 264 283 323.5 205 c 128,-1,28
 383 127 383 127 491 127 c 0,15,16
EndSplineSet
Validated: 1
Substitution2: "'subs' Subscript lookup 7 subtable" zero.subs
EndChar

StartChar: one
Encoding: 49 49 20
Width: 1139
GlyphClass: 2
Flags: W
LayerCount: 2
Fore
SplineSet
53 0 m 1,0,-1
 83 153 l 1,1,-1
 442 153 l 1,2,-1
 650 1223 l 1,3,-1
 289 1000 l 1,4,-1
 324 1180 l 1,5,-1
 701 1409 l 1,6,-1
 867 1409 l 1,7,-1
 623 153 l 1,8,-1
 966 153 l 1,9,-1
 936 0 l 1,10,-1
 53 0 l 1,0,-1
EndSplineSet
Validated: 1
Substitution2: "'subs' Subscript lookup 7 subtable" one.subs
EndChar

StartChar: two
Encoding: 50 50 21
Width: 1139
GlyphClass: 2
Flags: W
LayerCount: 2
Fore
SplineSet
-12 0 m 1,0,-1
 12 127 l 1,1,2
 67 220 67 220 135 293 c 128,-1,3
 203 366 203 366 277 425.5 c 128,-1,4
 351 485 351 485 427.5 534 c 128,-1,5
 504 583 504 583 575.5 628.5 c 128,-1,6
 647 674 647 674 709.5 719 c 128,-1,7
 772 764 772 764 819 815 c 128,-1,8
 866 866 866 866 893 926.5 c 128,-1,9
 920 987 920 987 920 1063 c 0,10,11
 920 1161 920 1161 857.5 1221.5 c 128,-1,12
 795 1282 795 1282 689 1282 c 0,13,14
 580 1282 580 1282 499 1222.5 c 128,-1,15
 418 1163 418 1163 381 1044 c 1,16,-1
 211 1081 l 1,17,18
 265 1251 265 1251 389 1340.5 c 128,-1,19
 513 1430 513 1430 700 1430 c 0,20,21
 882 1430 882 1430 995.5 1332 c 128,-1,22
 1109 1234 1109 1234 1109 1078 c 0,23,24
 1109 972 1109 972 1058 875 c 128,-1,25
 1007 778 1007 778 904.5 689 c 128,-1,26
 802 600 802 600 596 470 c 0,27,28
 449 377 449 377 358.5 301 c 128,-1,29
 268 225 268 225 222 153 c 1,30,-1
 949 153 l 1,31,-1
 920 0 l 1,32,-1
 -12 0 l 1,0,-1
EndSplineSet
Validated: 1
Substitution2: "'subs' Subscript lookup 7 subtable" two.subs
EndChar

StartChar: three
Encoding: 51 51 22
Width: 1139
GlyphClass: 2
Flags: W
LayerCount: 2
Fore
SplineSet
566 795 m 2,0,1
 749 795 749 795 839.5 868 c 128,-1,2
 930 941 930 941 930 1081 c 0,3,4
 930 1174 930 1174 869.5 1228 c 128,-1,5
 809 1282 809 1282 708 1282 c 0,6,7
 589 1282 589 1282 503.5 1221 c 128,-1,8
 418 1160 418 1160 384 1049 c 1,9,-1
 206 1063 l 1,10,11
 264 1249 264 1249 397.5 1339.5 c 128,-1,12
 531 1430 531 1430 718 1430 c 256,13,14
 905 1430 905 1430 1013 1338 c 128,-1,15
 1121 1246 1121 1246 1121 1086 c 0,16,17
 1121 933 1121 933 1024.5 836.5 c 128,-1,18
 928 740 928 740 753 717 c 1,19,-1
 752 713 l 1,20,21
 883 687 883 687 956 608.5 c 128,-1,22
 1029 530 1029 530 1029 407 c 0,23,24
 1029 282 1029 282 968.5 184.5 c 128,-1,25
 908 87 908 87 793.5 33.5 c 128,-1,26
 679 -20 679 -20 526 -20 c 0,27,28
 398 -20 398 -20 300 24 c 128,-1,29
 202 68 202 68 137.5 148.5 c 128,-1,30
 73 229 73 229 48 338 c 1,31,-1
 212 386 l 1,32,33
 242 270 242 270 330 199.5 c 128,-1,34
 418 129 418 129 541 129 c 0,35,36
 682 129 682 129 761.5 203.5 c 128,-1,37
 841 278 841 278 841 404 c 0,38,39
 841 516 841 516 766 577.5 c 128,-1,40
 691 639 691 639 562 639 c 2,41,-1
 438 639 l 1,42,-1
 468 795 l 1,43,-1
 566 795 l 2,0,1
EndSplineSet
Validated: 1
Substitution2: "'subs' Subscript lookup 7 subtable" three.subs
EndChar

StartChar: four
Encoding: 52 52 23
Width: 1139
GlyphClass: 2
Flags: W
LayerCount: 2
Fore
SplineSet
846 319 m 1,0,-1
 784 0 l 1,1,-1
 604 0 l 1,2,-1
 666 319 l 1,3,-1
 13 319 l 1,4,-1
 40 459 l 1,5,-1
 859 1409 l 1,6,-1
 1058 1409 l 1,7,-1
 874 461 l 1,8,-1
 1062 461 l 1,9,-1
 1034 319 l 1,10,-1
 846 319 l 1,0,-1
826 1157 m 1,11,-1
 227 461 l 1,12,-1
 694 461 l 1,13,-1
 826 1157 l 1,11,-1
EndSplineSet
Validated: 1
Substitution2: "'subs' Subscript lookup 7 subtable" four.subs
Substitution2: "'sups' Superscript lookup 6 subtable" four.sups
EndChar

StartChar: five
Encoding: 53 53 24
Width: 1139
GlyphClass: 2
Flags: W
LayerCount: 2
Fore
SplineSet
343 1409 m 1,0,-1
 1144 1409 l 1,1,-1
 1115 1256 l 1,2,-1
 478 1256 l 1,3,-1
 364 809 l 1,4,5
 414 851 414 851 486 875 c 128,-1,6
 558 899 558 899 641 899 c 0,7,8
 825 899 825 899 938 792.5 c 128,-1,9
 1051 686 1051 686 1051 506 c 0,10,11
 1051 260 1051 260 907 120 c 128,-1,12
 763 -20 763 -20 505 -20 c 0,13,14
 134 -20 134 -20 46 309 c 1,15,-1
 209 352 l 1,16,17
 240 238 240 238 319 182.5 c 128,-1,18
 398 127 398 127 515 127 c 0,19,20
 681 127 681 127 771 220.5 c 128,-1,21
 861 314 861 314 861 486 c 0,22,23
 861 608 861 608 792 680 c 128,-1,24
 723 752 723 752 607 752 c 0,25,26
 444 752 444 752 325 651 c 1,27,-1
 149 651 l 1,28,-1
 343 1409 l 1,0,-1
EndSplineSet
Validated: 1
Substitution2: "'subs' Subscript lookup 7 subtable" five.subs
Substitution2: "'sups' Superscript lookup 6 subtable" five.sups
EndChar

StartChar: six
Encoding: 54 54 25
Width: 1139
GlyphClass: 2
Flags: W
LayerCount: 2
Fore
SplineSet
534 -20 m 0,0,1
 341 -20 341 -20 228 114 c 128,-1,2
 115 248 115 248 115 464 c 0,3,4
 115 705 115 705 198.5 940.5 c 128,-1,5
 282 1176 282 1176 427 1303 c 128,-1,6
 572 1430 572 1430 761 1430 c 0,7,8
 911 1430 911 1430 1007.5 1358.5 c 128,-1,9
 1104 1287 1104 1287 1139 1151 c 1,10,-1
 973 1115 l 1,11,12
 948 1196 948 1196 891 1240 c 128,-1,13
 834 1284 834 1284 753 1284 c 0,14,15
 589 1284 589 1284 474 1138 c 128,-1,16
 359 992 359 992 307 726 c 1,17,18
 367 816 367 816 458.5 863.5 c 128,-1,19
 550 911 550 911 663 911 c 0,20,21
 835 911 835 911 941 806 c 128,-1,22
 1047 701 1047 701 1047 533 c 0,23,24
 1047 381 1047 381 980.5 252.5 c 128,-1,25
 914 124 914 124 796.5 52 c 128,-1,26
 679 -20 679 -20 534 -20 c 0,0,1
288 421 m 0,27,28
 288 290 288 290 356 207.5 c 128,-1,29
 424 125 424 125 538 125 c 0,30,31
 677 125 677 125 769 237.5 c 128,-1,32
 861 350 861 350 861 522 c 0,33,34
 861 637 861 637 801.5 704.5 c 128,-1,35
 742 772 742 772 630 772 c 0,36,37
 537 772 537 772 458.5 729.5 c 128,-1,38
 380 687 380 687 334 609 c 128,-1,39
 288 531 288 531 288 421 c 0,27,28
EndSplineSet
Validated: 1
Substitution2: "'subs' Subscript lookup 7 subtable" six.subs
Substitution2: "'sups' Superscript lookup 6 subtable" six.sups
EndChar

StartChar: seven
Encoding: 55 55 26
Width: 1139
GlyphClass: 2
Flags: W
LayerCount: 2
Fore
SplineSet
435 0 m 1,0,-1
 247 0 l 1,1,2
 288 204 288 204 371.5 388 c 128,-1,3
 455 572 455 572 579.5 753 c 128,-1,4
 704 934 704 934 986 1256 c 1,5,-1
 212 1256 l 1,6,-1
 241 1409 l 1,7,-1
 1202 1409 l 1,8,-1
 1174 1263 l 1,9,10
 951 1001 951 1001 866 891 c 128,-1,11
 781 781 781 781 713 677 c 128,-1,12
 645 573 645 573 592 466.5 c 128,-1,13
 539 360 539 360 499.5 244 c 128,-1,14
 460 128 460 128 435 0 c 1,0,-1
EndSplineSet
Validated: 1
Substitution2: "'subs' Subscript lookup 7 subtable" seven.subs
Substitution2: "'sups' Superscript lookup 6 subtable" seven.sups
EndChar

StartChar: eight
Encoding: 56 56 27
Width: 1139
GlyphClass: 2
Flags: W
LayerCount: 2
Fore
SplineSet
704 1429 m 0,0,1
 895 1429 895 1429 1011 1337.5 c 128,-1,2
 1127 1246 1127 1246 1127 1091 c 0,3,4
 1127 951 1127 951 1040.5 853 c 128,-1,5
 954 755 954 755 807 733 c 1,6,-1
 806 729 l 1,7,8
 916 696 916 696 974.5 619 c 128,-1,9
 1033 542 1033 542 1033 432 c 0,10,11
 1033 224 1033 224 891 102 c 128,-1,12
 749 -20 749 -20 500 -20 c 0,13,14
 287 -20 287 -20 170.5 81 c 128,-1,15
 54 182 54 182 54 360 c 0,16,17
 54 510 54 510 145 613.5 c 128,-1,18
 236 717 236 717 411 756 c 1,19,-1
 411 760 l 1,20,21
 320 798 320 798 270 873.5 c 128,-1,22
 220 949 220 949 220 1052 c 0,23,24
 220 1229 220 1229 350 1329 c 128,-1,25
 480 1429 480 1429 704 1429 c 0,0,1
658 811 m 0,26,27
 792 811 792 811 866.5 882.5 c 128,-1,28
 941 954 941 954 941 1087 c 0,29,30
 941 1185 941 1185 875.5 1239.5 c 128,-1,31
 810 1294 810 1294 683 1294 c 0,32,33
 550 1294 550 1294 475 1227 c 128,-1,34
 400 1160 400 1160 400 1033 c 0,35,36
 400 930 400 930 468.5 870.5 c 128,-1,37
 537 811 537 811 658 811 c 0,26,27
566 672 m 0,38,39
 410 672 410 672 324.5 589 c 128,-1,40
 239 506 239 506 239 356 c 0,41,42
 239 244 239 244 313 180.5 c 128,-1,43
 387 117 387 117 519 117 c 0,44,45
 667 117 667 117 758.5 203 c 128,-1,46
 850 289 850 289 850 436 c 0,47,48
 850 547 850 547 773.5 609.5 c 128,-1,49
 697 672 697 672 566 672 c 0,38,39
EndSplineSet
Validated: 1
Substitution2: "'subs' Subscript lookup 7 subtable" eight.subs
Substitution2: "'sups' Superscript lookup 6 subtable" eight.sups
EndChar

StartChar: nine
Encoding: 57 57 28
Width: 1139
GlyphClass: 2
Flags: W
LayerCount: 2
Fore
SplineSet
898 684 m 1,0,1
 764 481 764 481 559 481 c 0,2,3
 441 481 441 481 351 532.5 c 128,-1,4
 261 584 261 584 212 676 c 128,-1,5
 163 768 163 768 163 881 c 0,6,7
 163 1033 163 1033 229 1159.5 c 128,-1,8
 295 1286 295 1286 414.5 1358 c 128,-1,9
 534 1430 534 1430 682 1430 c 0,10,11
 878 1430 878 1430 987.5 1303 c 128,-1,12
 1097 1176 1097 1176 1097 957 c 0,13,14
 1097 802 1097 802 1059.5 633.5 c 128,-1,15
 1022 465 1022 465 959 340 c 128,-1,16
 896 215 896 215 816 134.5 c 128,-1,17
 736 54 736 54 643 17 c 128,-1,18
 550 -20 550 -20 453 -20 c 0,19,20
 145 -20 145 -20 70 257 c 1,21,-1
 228 302 l 1,22,23
 252 217 252 217 311 171 c 128,-1,24
 370 125 370 125 461 125 c 0,25,26
 619 125 619 125 730.5 269.5 c 128,-1,27
 842 414 842 414 898 684 c 1,0,1
925 1017 m 0,28,29
 925 1138 925 1138 856 1211 c 128,-1,30
 787 1284 787 1284 678 1284 c 0,31,32
 530 1284 530 1284 438 1176 c 128,-1,33
 346 1068 346 1068 346 879 c 0,34,35
 346 757 346 757 409 690 c 128,-1,36
 472 623 472 623 580 623 c 0,37,38
 674 623 674 623 756.5 674 c 128,-1,39
 839 725 839 725 882 810 c 128,-1,40
 925 895 925 895 925 1017 c 0,28,29
EndSplineSet
Validated: 1
Substitution2: "'subs' Subscript lookup 7 subtable" nine.subs
Substitution2: "'sups' Superscript lookup 6 subtable" nine.sups
EndChar

StartChar: colon
Encoding: 58 58 29
Width: 569
GlyphClass: 2
Flags: W
LayerCount: 2
Fore
SplineSet
251 875 m 1,0,-1
 292 1082 l 1,1,-1
 487 1082 l 1,2,-1
 446 875 l 1,3,-1
 251 875 l 1,0,-1
81 0 m 1,4,-1
 122 207 l 1,5,-1
 317 207 l 1,6,-1
 276 0 l 1,7,-1
 81 0 l 1,4,-1
EndSplineSet
Validated: 1
EndChar

StartChar: semicolon
Encoding: 59 59 30
Width: 569
GlyphClass: 2
Flags: W
LayerCount: 2
Fore
SplineSet
161 -262 m 1,0,-1
 38 -262 l 1,1,2
 158 -125 158 -125 183 0 c 1,3,-1
 95 0 l 1,4,-1
 135 207 l 1,5,-1
 330 207 l 1,6,-1
 300 51 l 2,7,8
 282 -44 282 -44 249 -119 c 128,-1,9
 216 -194 216 -194 161 -262 c 1,0,-1
265 875 m 1,10,-1
 305 1082 l 1,11,-1
 500 1082 l 1,12,-1
 460 875 l 1,13,-1
 265 875 l 1,10,-1
EndSplineSet
Validated: 1
EndChar

StartChar: less
Encoding: 60 60 31
Width: 1196
GlyphClass: 2
Flags: W
LayerCount: 2
Fore
SplineSet
131 571 m 1,0,-1
 131 776 l 1,1,-1
 1126 1194 l 1,2,-1
 1126 1040 l 1,3,-1
 268 674 l 1,4,-1
 1126 307 l 1,5,-1
 1126 154 l 1,6,-1
 131 571 l 1,0,-1
EndSplineSet
Validated: 1
EndChar

StartChar: equal
Encoding: 61 61 32
Width: 1196
GlyphClass: 2
Flags: W
LayerCount: 2
Fore
SplineSet
130 856 m 1,0,-1
 130 1004 l 1,1,-1
 1125 1004 l 1,2,-1
 1125 856 l 1,3,-1
 130 856 l 1,0,-1
130 344 m 1,4,-1
 130 492 l 1,5,-1
 1125 492 l 1,6,-1
 1125 344 l 1,7,-1
 130 344 l 1,4,-1
EndSplineSet
Validated: 1
EndChar

StartChar: greater
Encoding: 62 62 33
Width: 1196
GlyphClass: 2
Flags: W
LayerCount: 2
Fore
SplineSet
131 154 m 1,0,-1
 131 307 l 1,1,-1
 989 674 l 1,2,-1
 131 1040 l 1,3,-1
 131 1194 l 1,4,-1
 1126 776 l 1,5,-1
 1126 571 l 1,6,-1
 131 154 l 1,0,-1
EndSplineSet
Validated: 1
EndChar

StartChar: question
Encoding: 63 63 34
Width: 1139
GlyphClass: 2
Flags: W
LayerCount: 2
Fore
SplineSet
701 1430 m 0,0,1
 898 1430 898 1430 1015.5 1330 c 128,-1,2
 1133 1230 1133 1230 1133 1073 c 0,3,4
 1133 976 1133 976 1102.5 907.5 c 128,-1,5
 1072 839 1072 839 1023.5 788.5 c 128,-1,6
 975 738 975 738 914.5 701 c 128,-1,7
 854 664 854 664 794 629 c 0,8,9
 667 557 667 557 618 501 c 128,-1,10
 569 445 569 445 555 377 c 1,11,-1
 380 377 l 1,12,13
 393 457 393 457 428 516.5 c 128,-1,14
 463 576 463 576 515.5 623 c 128,-1,15
 568 670 568 670 702 746 c 0,16,17
 808 806 808 806 854 847.5 c 128,-1,18
 900 889 900 889 923 939 c 128,-1,19
 946 989 946 989 946 1052 c 0,20,21
 946 1150 946 1150 873 1210 c 128,-1,22
 800 1270 800 1270 684 1270 c 0,23,24
 544 1270 544 1270 453 1200 c 128,-1,25
 362 1130 362 1130 324 1008 c 1,26,-1
 159 1048 l 1,27,28
 222 1243 222 1243 358.5 1336.5 c 128,-1,29
 495 1430 495 1430 701 1430 c 0,0,1
299 0 m 1,30,-1
 338 201 l 1,31,-1
 533 201 l 1,32,-1
 494 0 l 1,33,-1
 299 0 l 1,30,-1
EndSplineSet
Validated: 1
EndChar

StartChar: at
Encoding: 64 64 35
Width: 2079
GlyphClass: 2
Flags: W
LayerCount: 2
Fore
SplineSet
1935 755 m 0,0,1
 1935 569 1935 569 1877.5 418.5 c 128,-1,2
 1820 268 1820 268 1717.5 186 c 128,-1,3
 1615 104 1615 104 1488 104 c 0,4,5
 1387 104 1387 104 1334 149.5 c 128,-1,6
 1281 195 1281 195 1281 280 c 1,7,-1
 1284 350 l 1,8,-1
 1278 350 l 1,9,10
 1212 227 1212 227 1114.5 165.5 c 128,-1,11
 1017 104 1017 104 904 104 c 0,12,13
 747 104 747 104 660.5 206 c 128,-1,14
 574 308 574 308 574 489 c 0,15,16
 574 653 574 653 638.5 794 c 128,-1,17
 703 935 703 935 819 1018 c 128,-1,18
 935 1101 935 1101 1076 1101 c 0,19,20
 1295 1101 1295 1101 1377 919 c 1,21,-1
 1383 919 l 1,22,-1
 1422 1079 l 1,23,-1
 1578 1079 l 1,24,-1
 1462 573 l 2,25,26
 1425 409 1425 409 1425 320 c 0,27,28
 1425 226 1425 226 1506 226 c 0,29,30
 1586 226 1586 226 1653.5 295 c 128,-1,31
 1721 364 1721 364 1760 485 c 128,-1,32
 1799 606 1799 606 1799 753 c 0,33,34
 1799 932 1799 932 1722 1070.5 c 128,-1,35
 1645 1209 1645 1209 1500 1283.5 c 128,-1,36
 1355 1358 1355 1358 1161 1358 c 0,37,38
 919 1358 919 1358 733 1251 c 128,-1,39
 547 1144 547 1144 441 942.5 c 128,-1,40
 335 741 335 741 335 491 c 0,41,42
 335 298 335 298 413.5 150.5 c 128,-1,43
 492 3 492 3 640.5 -76 c 128,-1,44
 789 -155 789 -155 987 -155 c 0,45,46
 1300 -155 1300 -155 1590 7 c 1,47,-1
 1645 -105 l 1,48,49
 1500 -192 1500 -192 1330.5 -237.5 c 128,-1,50
 1161 -283 1161 -283 987 -283 c 0,51,52
 747 -283 747 -283 567.5 -188 c 128,-1,53
 388 -93 388 -93 291 84 c 128,-1,54
 194 261 194 261 194 491 c 0,55,56
 194 771 194 771 318.5 1000 c 128,-1,57
 443 1229 443 1229 664 1356.5 c 128,-1,58
 885 1484 885 1484 1159 1484 c 0,59,60
 1400 1484 1400 1484 1575 1393.5 c 128,-1,61
 1750 1303 1750 1303 1842.5 1138 c 128,-1,62
 1935 973 1935 973 1935 755 c 0,0,1
1329 747 m 0,63,64
 1329 849 1329 849 1263 911.5 c 128,-1,65
 1197 974 1197 974 1087 974 c 0,66,67
 986 974 986 974 907.5 910.5 c 128,-1,68
 829 847 829 847 784 733 c 128,-1,69
 739 619 739 619 739 491 c 0,70,71
 739 371 739 371 786.5 303 c 128,-1,72
 834 235 834 235 933 235 c 0,73,74
 1013 235 1013 235 1086 279 c 128,-1,75
 1159 323 1159 323 1214 400.5 c 128,-1,76
 1269 478 1269 478 1299 576.5 c 128,-1,77
 1329 675 1329 675 1329 747 c 0,63,64
EndSplineSet
Validated: 1
EndChar

StartChar: A
Encoding: 65 65 36
Width: 1366
GlyphClass: 2
Flags: W
AnchorPoint: "Anchor21" 1200 0 basechar 0
AnchorPoint: "Anchor20" 580 0 basechar 0
AnchorPoint: "Anchor18" 1366 1840 basechar 0
AnchorPoint: "Anchor19" 0 1840 basechar 0
AnchorPoint: "Anchor16" 1336 1540 basechar 0
AnchorPoint: "Anchor17" 1336 -380 basechar 0
AnchorPoint: "Anchor15" 940 1300 basechar 0
AnchorPoint: "Anchor14" 860 1420 basechar 0
AnchorPoint: "Anchor10" 780 1540 basechar 0
AnchorPoint: "Anchor11" 1100 1540 basechar 0
AnchorPoint: "Anchor12" 580 -130 basechar 0
LayerCount: 2
Fore
SplineSet
1061 0 m 1,0,-1
 986 412 l 1,1,-1
 347 412 l 1,2,-1
 107 0 l 1,3,-1
 -101 0 l 1,4,-1
 747 1409 l 1,5,-1
 964 1409 l 1,6,-1
 1256 0 l 1,7,-1
 1061 0 l 1,0,-1
830 1265 m 1,8,9
 817 1239 817 1239 793 1196 c 128,-1,10
 769 1153 769 1153 431 561 c 1,11,-1
 958 561 l 1,12,-1
 856 1114 l 1,13,-1
 830 1265 l 1,8,9
EndSplineSet
Validated: 1
EndChar

StartChar: B
Encoding: 66 66 37
Width: 1366
GlyphClass: 2
Flags: W
AnchorPoint: "Anchor21" 760 0 basechar 0
AnchorPoint: "Anchor18" 1366 1840 basechar 0
AnchorPoint: "Anchor19" 0 1840 basechar 0
AnchorPoint: "Anchor16" 1366 1540 basechar 0
AnchorPoint: "Anchor17" 1366 -380 basechar 0
AnchorPoint: "Anchor15" 1080 1300 basechar 0
AnchorPoint: "Anchor14" 1166 1150 basechar 0
AnchorPoint: "Anchor10" 740 1540 basechar 0
AnchorPoint: "Anchor11" 1100 1540 basechar 0
AnchorPoint: "Anchor12" 540 -130 basechar 0
LayerCount: 2
Fore
SplineSet
336 1409 m 1,0,-1
 846 1409 l 2,1,2
 1055 1409 1055 1409 1175.5 1322.5 c 128,-1,3
 1296 1236 1296 1236 1296 1087 c 0,4,5
 1296 802 1296 802 957 743 c 1,6,7
 1095 720 1095 720 1171 638.5 c 128,-1,8
 1247 557 1247 557 1247 439 c 0,9,10
 1247 226 1247 226 1091 113 c 128,-1,11
 935 0 935 0 658 0 c 2,12,-1
 63 0 l 1,13,-1
 336 1409 l 1,0,-1
411 810 m 1,14,-1
 742 810 l 2,15,16
 1097 810 1097 810 1097 1068 c 0,17,18
 1097 1256 1097 1256 829 1256 c 2,19,-1
 498 1256 l 1,20,-1
 411 810 l 1,14,-1
283 153 m 1,21,-1
 651 153 l 2,22,23
 861 153 861 153 958.5 226.5 c 128,-1,24
 1056 300 1056 300 1056 442 c 0,25,26
 1056 549 1056 549 976.5 605 c 128,-1,27
 897 661 897 661 748 661 c 2,28,-1
 382 661 l 1,29,-1
 283 153 l 1,21,-1
EndSplineSet
Validated: 1
EndChar

StartChar: C
Encoding: 67 67 38
Width: 1479
GlyphClass: 2
Flags: W
AnchorPoint: "Anchor21" 890 0 basechar 0
AnchorPoint: "Anchor20" 700 0 basechar 0
AnchorPoint: "Anchor18" 1366 1840 basechar 0
AnchorPoint: "Anchor19" 0 1840 basechar 0
AnchorPoint: "Anchor16" 1479 1540 basechar 0
AnchorPoint: "Anchor17" 1479 -380 basechar 0
AnchorPoint: "Anchor15" 1300 1300 basechar 0
AnchorPoint: "Anchor14" 1324 1200 basechar 0
AnchorPoint: "Anchor10" 880 1540 basechar 0
AnchorPoint: "Anchor11" 1380 1540 basechar 0
AnchorPoint: "Anchor12" 680 -130 basechar 0
LayerCount: 2
Fore
SplineSet
1358 337 m 1,0,1
 1232 149 1232 149 1072 64.5 c 128,-1,2
 912 -20 912 -20 700 -20 c 0,3,4
 519 -20 519 -20 385.5 52.5 c 128,-1,5
 252 125 252 125 182.5 259 c 128,-1,6
 113 393 113 393 113 569 c 0,7,8
 113 815 113 815 218 1014 c 128,-1,9
 323 1213 323 1213 509.5 1321.5 c 128,-1,10
 696 1430 696 1430 926 1430 c 0,11,12
 1143 1430 1143 1430 1292.5 1339.5 c 128,-1,13
 1442 1249 1442 1249 1490 1085 c 1,14,-1
 1310 1030 l 1,15,16
 1274 1142 1274 1142 1170.5 1208 c 128,-1,17
 1067 1274 1067 1274 916 1274 c 0,18,19
 732 1274 732 1274 592 1185.5 c 128,-1,20
 452 1097 452 1097 377 936.5 c 128,-1,21
 302 776 302 776 302 566 c 0,22,23
 302 366 302 366 411 250.5 c 128,-1,24
 520 135 520 135 713 135 c 0,25,26
 861 135 861 135 989 208.5 c 128,-1,27
 1117 282 1117 282 1215 426 c 1,28,-1
 1358 337 l 1,0,1
EndSplineSet
Validated: 1
EndChar

StartChar: D
Encoding: 68 68 39
Width: 1479
GlyphClass: 2
Flags: W
AnchorPoint: "Anchor21" 670 0 basechar 0
AnchorPoint: "Anchor18" 1366 1840 basechar 0
AnchorPoint: "Anchor19" 0 1840 basechar 0
AnchorPoint: "Anchor16" 1479 1540 basechar 0
AnchorPoint: "Anchor17" 1479 -380 basechar 0
AnchorPoint: "Anchor15" 1068 1300 basechar 0
AnchorPoint: "Anchor14" 1261 1150 basechar 0
AnchorPoint: "Anchor10" 740 1540 basechar 0
AnchorPoint: "Anchor11" 1100 1540 basechar 0
AnchorPoint: "Anchor12" 540 -130 basechar 0
LayerCount: 2
Fore
SplineSet
744 1409 m 2,0,1
 1056 1409 1056 1409 1234.5 1244.5 c 128,-1,2
 1413 1080 1413 1080 1413 791 c 0,3,4
 1413 555 1413 555 1310 378 c 128,-1,5
 1207 201 1207 201 1013.5 100.5 c 128,-1,6
 820 0 820 0 575 0 c 2,7,-1
 63 0 l 1,8,-1
 336 1409 l 1,9,-1
 744 1409 l 2,0,1
283 153 m 1,10,-1
 567 153 l 2,11,12
 762 153 762 153 911 230.5 c 128,-1,13
 1060 308 1060 308 1139.5 453.5 c 128,-1,14
 1219 599 1219 599 1219 793 c 0,15,16
 1219 1012 1219 1012 1093 1134 c 128,-1,17
 967 1256 967 1256 740 1256 c 2,18,-1
 498 1256 l 1,19,-1
 283 153 l 1,10,-1
EndSplineSet
Validated: 1
EndChar

StartChar: E
Encoding: 69 69 40
Width: 1366
GlyphClass: 2
Flags: W
AnchorPoint: "Anchor21" 1120 0 basechar 0
AnchorPoint: "Anchor20" 600 0 basechar 0
AnchorPoint: "Anchor18" 1366 1840 basechar 0
AnchorPoint: "Anchor19" 0 1840 basechar 0
AnchorPoint: "Anchor16" 1366 1540 basechar 0
AnchorPoint: "Anchor17" 1366 -380 basechar 0
AnchorPoint: "Anchor15" 1300 1300 basechar 0
AnchorPoint: "Anchor14" 1215 1420 basechar 0
AnchorPoint: "Anchor10" 800 1540 basechar 0
AnchorPoint: "Anchor11" 1300 1540 basechar 0
AnchorPoint: "Anchor12" 640 -130 basechar 0
LayerCount: 2
Fore
SplineSet
63 0 m 1,0,-1
 336 1409 l 1,1,-1
 1385 1409 l 1,2,-1
 1355 1253 l 1,3,-1
 497 1253 l 1,4,-1
 409 801 l 1,5,-1
 1207 801 l 1,6,-1
 1177 647 l 1,7,-1
 379 647 l 1,8,-1
 284 156 l 1,9,-1
 1183 156 l 1,10,-1
 1153 0 l 1,11,-1
 63 0 l 1,0,-1
EndSplineSet
Validated: 1
EndChar

StartChar: F
Encoding: 70 70 41
Width: 1251
GlyphClass: 2
Flags: W
AnchorPoint: "Anchor21" 190 0 basechar 0
AnchorPoint: "Anchor18" 1366 1840 basechar 0
AnchorPoint: "Anchor19" 0 1840 basechar 0
AnchorPoint: "Anchor16" 1251 1540 basechar 0
AnchorPoint: "Anchor17" 1251 -380 basechar 0
AnchorPoint: "Anchor15" 1300 1300 basechar 0
AnchorPoint: "Anchor14" 1215 1420 basechar 0
AnchorPoint: "Anchor10" 780 1540 basechar 0
AnchorPoint: "Anchor11" 1100 1540 basechar 0
AnchorPoint: "Anchor12" 580 -130 basechar 0
LayerCount: 2
Fore
SplineSet
497 1253 m 1,0,-1
 395 729 l 1,1,-1
 1191 729 l 1,2,-1
 1160 571 l 1,3,-1
 364 571 l 1,4,-1
 254 0 l 1,5,-1
 63 0 l 1,6,-1
 336 1409 l 1,7,-1
 1347 1409 l 1,8,-1
 1317 1253 l 1,9,-1
 497 1253 l 1,0,-1
EndSplineSet
Validated: 1
EndChar

StartChar: G
Encoding: 71 71 42
Width: 1593
GlyphClass: 2
Flags: W
AnchorPoint: "Anchor21" 960 0 basechar 0
AnchorPoint: "Anchor20" 720 0 basechar 0
AnchorPoint: "Anchor18" 1366 1840 basechar 0
AnchorPoint: "Anchor19" 0 1840 basechar 0
AnchorPoint: "Anchor16" 1593 1540 basechar 0
AnchorPoint: "Anchor17" 1593 -380 basechar 0
AnchorPoint: "Anchor15" 1300 1300 basechar 0
AnchorPoint: "Anchor14" 1371 1200 basechar 0
AnchorPoint: "Anchor10" 900 1540 basechar 0
AnchorPoint: "Anchor11" 1380 1540 basechar 0
AnchorPoint: "Anchor12" 700 -130 basechar 0
LayerCount: 2
Fore
SplineSet
742 -20 m 0,0,1
 437 -20 437 -20 269 136 c 128,-1,2
 101 292 101 292 101 573 c 0,3,4
 101 822 101 822 206 1018.5 c 128,-1,5
 311 1215 311 1215 503.5 1322.5 c 128,-1,6
 696 1430 696 1430 944 1430 c 0,7,8
 1166 1430 1166 1430 1308 1346 c 128,-1,9
 1450 1262 1450 1262 1505 1098 c 1,10,-1
 1312 1044 l 1,11,12
 1275 1159 1275 1159 1178 1216.5 c 128,-1,13
 1081 1274 1081 1274 932 1274 c 0,14,15
 740 1274 740 1274 595.5 1188 c 128,-1,16
 451 1102 451 1102 374 943.5 c 128,-1,17
 297 785 297 785 297 577 c 0,18,19
 297 366 297 366 415 250.5 c 128,-1,20
 533 135 533 135 748 135 c 0,21,22
 886 135 886 135 1012 174.5 c 128,-1,23
 1138 214 1138 214 1231 291 c 1,24,-1
 1282 545 l 1,25,-1
 861 545 l 1,26,-1
 893 705 l 1,27,-1
 1490 705 l 1,28,-1
 1390 210 l 1,29,30
 1250 90 1250 90 1091.5 35 c 128,-1,31
 933 -20 933 -20 742 -20 c 0,0,1
EndSplineSet
Validated: 1
EndChar

StartChar: H
Encoding: 72 72 43
Width: 1479
GlyphClass: 2
Flags: W
AnchorPoint: "Anchor21" 1150 0 basechar 0
AnchorPoint: "Anchor18" 1366 1840 basechar 0
AnchorPoint: "Anchor19" 0 1840 basechar 0
AnchorPoint: "Anchor16" 1479 1540 basechar 0
AnchorPoint: "Anchor17" 1479 -380 basechar 0
AnchorPoint: "Anchor15" 1400 1300 basechar 0
AnchorPoint: "Anchor14" 1300 1420 basechar 0
AnchorPoint: "Anchor10" 830 1540 basechar 0
AnchorPoint: "Anchor11" 1400 1540 basechar 0
AnchorPoint: "Anchor12" 630 -130 basechar 0
LayerCount: 2
Fore
SplineSet
1021 0 m 1,0,-1
 1148 653 l 1,1,-1
 381 653 l 1,2,-1
 254 0 l 1,3,-1
 63 0 l 1,4,-1
 337 1409 l 1,5,-1
 528 1409 l 1,6,-1
 412 813 l 1,7,-1
 1179 813 l 1,8,-1
 1295 1409 l 1,9,-1
 1481 1409 l 1,10,-1
 1207 0 l 1,11,-1
 1021 0 l 1,0,-1
EndSplineSet
Validated: 1
EndChar

StartChar: I
Encoding: 73 73 44
Width: 569
GlyphClass: 2
Flags: W
AnchorPoint: "Anchor21" 200 0 basechar 0
AnchorPoint: "Anchor20" 140 0 basechar 0
AnchorPoint: "Anchor18" 1366 1840 basechar 0
AnchorPoint: "Anchor19" 0 1840 basechar 0
AnchorPoint: "Anchor16" 569 1540 basechar 0
AnchorPoint: "Anchor17" 569 -380 basechar 0
AnchorPoint: "Anchor15" 480 1300 basechar 0
AnchorPoint: "Anchor14" 380 1420 basechar 0
AnchorPoint: "Anchor10" 400 1540 basechar 0
AnchorPoint: "Anchor11" 500 1540 basechar 0
AnchorPoint: "Anchor12" 180 -130 basechar 0
LayerCount: 2
Fore
SplineSet
81 0 m 1,0,-1
 355 1409 l 1,1,-1
 546 1409 l 1,2,-1
 272 0 l 1,3,-1
 81 0 l 1,0,-1
EndSplineSet
Validated: 1
EndChar

StartChar: J
Encoding: 74 74 45
Width: 1024
GlyphClass: 2
Flags: W
AnchorPoint: "Anchor21" 460 0 basechar 0
AnchorPoint: "Anchor18" 1366 1840 basechar 0
AnchorPoint: "Anchor19" 0 1840 basechar 0
AnchorPoint: "Anchor16" 1024 1540 basechar 0
AnchorPoint: "Anchor17" 1024 -380 basechar 0
AnchorPoint: "Anchor15" 980 1300 basechar 0
AnchorPoint: "Anchor14" 860 1420 basechar 0
AnchorPoint: "Anchor10" 760 1540 basechar 0
AnchorPoint: "Anchor11" 980 1540 basechar 0
AnchorPoint: "Anchor12" 360 -130 basechar 0
LayerCount: 2
Fore
SplineSet
381 -20 m 0,0,1
 222 -20 222 -20 121.5 73 c 128,-1,2
 21 166 21 166 -5 343 c 1,3,-1
 163 376 l 1,4,5
 186 259 186 259 242 197 c 128,-1,6
 298 135 298 135 398 135 c 0,7,8
 503 135 503 135 568 207.5 c 128,-1,9
 633 280 633 280 663 440 c 2,10,-1
 820 1253 l 1,11,-1
 529 1253 l 1,12,-1
 559 1409 l 1,13,-1
 1040 1409 l 1,14,-1
 847 423 l 2,15,16
 804 199 804 199 690 89.5 c 128,-1,17
 576 -20 576 -20 381 -20 c 0,0,1
EndSplineSet
Validated: 1
EndChar

StartChar: K
Encoding: 75 75 46
Width: 1366
GlyphClass: 2
Flags: W
AnchorPoint: "Anchor21" 1130 0 basechar 0
AnchorPoint: "Anchor20" 560 0 basechar 0
AnchorPoint: "Anchor18" 1366 1840 basechar 0
AnchorPoint: "Anchor19" 0 1840 basechar 0
AnchorPoint: "Anchor16" 1366 1540 basechar 0
AnchorPoint: "Anchor17" 1366 -380 basechar 0
AnchorPoint: "Anchor15" 1267 1300 basechar 0
AnchorPoint: "Anchor14" 1179 1420 basechar 0
AnchorPoint: "Anchor10" 780 1540 basechar 0
AnchorPoint: "Anchor11" 1100 1540 basechar 0
AnchorPoint: "Anchor12" 580 -130 basechar 0
LayerCount: 2
Fore
SplineSet
1022 0 m 1,0,-1
 550 674 l 1,1,-1
 360 545 l 1,2,-1
 254 0 l 1,3,-1
 63 0 l 1,4,-1
 336 1409 l 1,5,-1
 527 1409 l 1,6,-1
 391 718 l 1,7,-1
 531 847 l 1,8,-1
 1196 1409 l 1,9,-1
 1441 1409 l 1,10,-1
 691 779 l 1,11,-1
 1248 0 l 1,12,-1
 1022 0 l 1,0,-1
EndSplineSet
Validated: 1
EndChar

StartChar: L
Encoding: 76 76 47
Width: 1139
GlyphClass: 2
Flags: W
AnchorPoint: "Anchor21" 940 0 basechar 0
AnchorPoint: "Anchor20" 500 0 basechar 0
AnchorPoint: "Anchor18" 1366 1840 basechar 0
AnchorPoint: "Anchor19" 0 1840 basechar 0
AnchorPoint: "Anchor16" 1139 1540 basechar 0
AnchorPoint: "Anchor17" 1139 -380 basechar 0
AnchorPoint: "Anchor15" 480 1300 basechar 0
AnchorPoint: "Anchor14" 360 1420 basechar 0
AnchorPoint: "Anchor10" 680 1540 basechar 0
AnchorPoint: "Anchor11" 1000 1540 basechar 0
AnchorPoint: "Anchor12" 480 -130 basechar 0
LayerCount: 2
Fore
SplineSet
63 0 m 1,0,-1
 336 1409 l 1,1,-1
 527 1409 l 1,2,-1
 284 156 l 1,3,-1
 996 156 l 1,4,-1
 966 0 l 1,5,-1
 63 0 l 1,0,-1
EndSplineSet
Validated: 1
EndChar

StartChar: M
Encoding: 77 77 48
Width: 1706
GlyphClass: 2
Flags: W
AnchorPoint: "Anchor21" 1380 0 basechar 0
AnchorPoint: "Anchor18" 1366 1840 basechar 0
AnchorPoint: "Anchor19" 0 1840 basechar 0
AnchorPoint: "Anchor16" 1706 1540 basechar 0
AnchorPoint: "Anchor17" 1706 -380 basechar 0
AnchorPoint: "Anchor15" 1652 1300 basechar 0
AnchorPoint: "Anchor14" 1540 1420 basechar 0
AnchorPoint: "Anchor10" 960 1540 basechar 0
AnchorPoint: "Anchor11" 1640 1540 basechar 0
AnchorPoint: "Anchor12" 760 -130 basechar 0
LayerCount: 2
Fore
SplineSet
1261 0 m 1,0,-1
 1441 928 l 2,1,2
 1477 1113 1477 1113 1506 1228 c 1,3,4
 1415 1039 1415 1039 1361 948 c 1,5,-1
 813 0 l 1,6,-1
 689 0 l 1,7,-1
 504 948 l 2,8,9
 498 977 498 977 463 1228 c 1,10,11
 454 1168 454 1168 433 1040.5 c 128,-1,12
 412 913 412 913 233 0 c 1,13,-1
 63 0 l 1,14,-1
 336 1409 l 1,15,-1
 572 1409 l 1,16,-1
 761 432 l 2,17,18
 769 393 769 393 793 227 c 1,19,-1
 897 440 l 1,20,-1
 1450 1409 l 1,21,-1
 1706 1409 l 1,22,-1
 1433 0 l 1,23,-1
 1261 0 l 1,0,-1
EndSplineSet
Validated: 1
EndChar

StartChar: N
Encoding: 78 78 49
Width: 1479
GlyphClass: 2
Flags: W
AnchorPoint: "Anchor21" 1120 0 basechar 0
AnchorPoint: "Anchor20" 640 0 basechar 0
AnchorPoint: "Anchor18" 1366 1840 basechar 0
AnchorPoint: "Anchor19" 0 1840 basechar 0
AnchorPoint: "Anchor16" 1479 1540 basechar 0
AnchorPoint: "Anchor17" 1479 -380 basechar 0
AnchorPoint: "Anchor15" 1410 1300 basechar 0
AnchorPoint: "Anchor14" 1300 1420 basechar 0
AnchorPoint: "Anchor10" 830 1540 basechar 0
AnchorPoint: "Anchor11" 1400 1540 basechar 0
AnchorPoint: "Anchor12" 630 -130 basechar 0
LayerCount: 2
Fore
SplineSet
987 0 m 1,0,-1
 456 1210 l 1,1,2
 434 1039 434 1039 414 943 c 1,3,-1
 233 0 l 1,4,-1
 63 0 l 1,5,-1
 336 1409 l 1,6,-1
 548 1409 l 1,7,-1
 1082 194 l 1,8,9
 1108 383 1108 383 1127 478 c 2,10,-1
 1308 1409 l 1,11,-1
 1480 1409 l 1,12,-1
 1207 0 l 1,13,-1
 987 0 l 1,0,-1
EndSplineSet
Validated: 1
EndChar

StartChar: O
Encoding: 79 79 50
Width: 1593
GlyphClass: 2
Flags: W
AnchorPoint: "Anchor21" 920 0 basechar 0
AnchorPoint: "Anchor20" 710 0 basechar 0
AnchorPoint: "Anchor18" 1366 1840 basechar 0
AnchorPoint: "Anchor19" 0 1840 basechar 0
AnchorPoint: "Anchor16" 1593 1540 basechar 0
AnchorPoint: "Anchor17" 1593 -380 basechar 0
AnchorPoint: "Anchor15" 1300 1300 basechar 0
AnchorPoint: "Anchor14" 1400 1150 basechar 0
AnchorPoint: "Anchor10" 900 1540 basechar 0
AnchorPoint: "Anchor11" 1380 1540 basechar 0
AnchorPoint: "Anchor12" 700 -130 basechar 0
LayerCount: 2
Fore
SplineSet
938 1430 m 0,0,1
 1215 1430 1215 1430 1375.5 1273 c 128,-1,2
 1536 1116 1536 1116 1536 851 c 1,3,4
 1531 583 1531 583 1424 387.5 c 128,-1,5
 1317 192 1317 192 1131 86 c 128,-1,6
 945 -20 945 -20 709 -20 c 0,7,8
 425 -20 425 -20 268 137.5 c 128,-1,9
 111 295 111 295 111 573 c 0,10,11
 111 812 111 812 216.5 1012.5 c 128,-1,12
 322 1213 322 1213 511 1321.5 c 128,-1,13
 700 1430 700 1430 938 1430 c 0,0,1
929 1276 m 0,14,15
 729 1276 729 1276 589.5 1187 c 128,-1,16
 450 1098 450 1098 376 921 c 128,-1,17
 302 744 302 744 302 563 c 0,18,19
 302 354 302 354 408.5 244.5 c 128,-1,20
 515 135 515 135 718 135 c 0,21,22
 915 135 915 135 1053.5 221.5 c 128,-1,23
 1192 308 1192 308 1268.5 481 c 128,-1,24
 1345 654 1345 654 1345 847 c 0,25,26
 1345 1054 1345 1054 1236.5 1165 c 128,-1,27
 1128 1276 1128 1276 929 1276 c 0,14,15
EndSplineSet
Validated: 1
EndChar

StartChar: P
Encoding: 80 80 51
Width: 1366
GlyphClass: 2
Flags: W
AnchorPoint: "Anchor21" 180 0 basechar 0
AnchorPoint: "Anchor18" 1366 1840 basechar 0
AnchorPoint: "Anchor19" 0 1840 basechar 0
AnchorPoint: "Anchor16" 1366 1540 basechar 0
AnchorPoint: "Anchor17" 1366 -380 basechar 0
AnchorPoint: "Anchor15" 1180 1300 basechar 0
AnchorPoint: "Anchor14" 1218 1150 basechar 0
AnchorPoint: "Anchor10" 720 1540 basechar 0
AnchorPoint: "Anchor11" 1280 1540 basechar 0
AnchorPoint: "Anchor12" 520 -130 basechar 0
LayerCount: 2
Fore
SplineSet
852 1409 m 2,0,1
 1083 1409 1083 1409 1218 1305 c 128,-1,2
 1353 1201 1353 1201 1353 1020 c 0,3,4
 1353 800 1353 800 1200.5 674.5 c 128,-1,5
 1048 549 1048 549 784 549 c 2,6,-1
 360 549 l 1,7,-1
 254 0 l 1,8,-1
 63 0 l 1,9,-1
 336 1409 l 1,10,-1
 852 1409 l 2,0,1
390 700 m 1,11,-1
 777 700 l 2,12,13
 1159 700 1159 700 1159 1011 c 0,14,15
 1159 1130 1159 1130 1080 1193 c 128,-1,16
 1001 1256 1001 1256 847 1256 c 2,17,-1
 498 1256 l 1,18,-1
 390 700 l 1,11,-1
EndSplineSet
Validated: 1
EndChar

StartChar: Q
Encoding: 81 81 52
Width: 1593
GlyphClass: 2
Flags: W
AnchorPoint: "Anchor21" 640 0 basechar 0
AnchorPoint: "Anchor18" 1366 1840 basechar 0
AnchorPoint: "Anchor19" 0 1840 basechar 0
AnchorPoint: "Anchor16" 1593 1540 basechar 0
AnchorPoint: "Anchor17" 1593 -380 basechar 0
AnchorPoint: "Anchor15" 1300 1300 basechar 0
AnchorPoint: "Anchor14" 1400 1150 basechar 0
AnchorPoint: "Anchor10" 900 1540 basechar 0
AnchorPoint: "Anchor11" 1440 1540 basechar 0
AnchorPoint: "Anchor12" 500 -130 basechar 0
LayerCount: 2
Fore
SplineSet
928 1430 m 0,0,1
 1205 1430 1205 1430 1365.5 1273 c 128,-1,2
 1526 1116 1526 1116 1526 851 c 1,3,4
 1521 607 1521 607 1432 423 c 128,-1,5
 1343 239 1343 239 1185.5 127 c 128,-1,6
 1028 15 1028 15 822 -12 c 1,7,8
 839 -133 839 -133 889 -188.5 c 128,-1,9
 939 -244 939 -244 1038 -244 c 0,10,11
 1096 -244 1096 -244 1161 -231 c 1,12,-1
 1143 -365 l 1,13,14
 1067 -387 1067 -387 974 -387 c 0,15,16
 823 -387 823 -387 742 -301 c 128,-1,17
 661 -215 661 -215 638 -17 c 1,18,19
 385 0 385 0 243 155 c 128,-1,20
 101 310 101 310 101 573 c 0,21,22
 101 812 101 812 206.5 1012.5 c 128,-1,23
 312 1213 312 1213 501 1321.5 c 128,-1,24
 690 1430 690 1430 928 1430 c 0,0,1
919 1276 m 0,25,26
 719 1276 719 1276 579.5 1187 c 128,-1,27
 440 1098 440 1098 366 921 c 128,-1,28
 292 744 292 744 292 563 c 0,29,30
 292 354 292 354 398.5 244.5 c 128,-1,31
 505 135 505 135 708 135 c 0,32,33
 905 135 905 135 1043.5 221.5 c 128,-1,34
 1182 308 1182 308 1258.5 481 c 128,-1,35
 1335 654 1335 654 1335 847 c 0,36,37
 1335 1054 1335 1054 1226.5 1165 c 128,-1,38
 1118 1276 1118 1276 919 1276 c 0,25,26
EndSplineSet
Validated: 1
EndChar

StartChar: R
Encoding: 82 82 53
Width: 1479
GlyphClass: 2
Flags: W
AnchorPoint: "Anchor21" 1180 0 basechar 0
AnchorPoint: "Anchor20" 590 0 basechar 0
AnchorPoint: "Anchor18" 1366 1840 basechar 0
AnchorPoint: "Anchor19" 0 1840 basechar 0
AnchorPoint: "Anchor16" 1479 1540 basechar 0
AnchorPoint: "Anchor17" 1479 -380 basechar 0
AnchorPoint: "Anchor15" 1260 1300 basechar 0
AnchorPoint: "Anchor14" 1293 1150 basechar 0
AnchorPoint: "Anchor10" 780 1540 basechar 0
AnchorPoint: "Anchor11" 1100 1540 basechar 0
AnchorPoint: "Anchor12" 580 -130 basechar 0
LayerCount: 2
Fore
SplineSet
1051 0 m 1,0,-1
 808 585 l 1,1,-1
 367 585 l 1,2,-1
 254 0 l 1,3,-1
 63 0 l 1,4,-1
 336 1409 l 1,5,-1
 948 1409 l 2,6,7
 1162 1409 1162 1409 1289 1307 c 128,-1,8
 1416 1205 1416 1205 1416 1039 c 0,9,10
 1416 851 1416 851 1308 741 c 128,-1,11
 1200 631 1200 631 989 602 c 1,12,-1
 1257 0 l 1,13,-1
 1051 0 l 1,0,-1
857 736 m 2,14,15
 1038 736 1038 736 1130 811.5 c 128,-1,16
 1222 887 1222 887 1222 1024 c 0,17,18
 1222 1136 1222 1136 1147.5 1196 c 128,-1,19
 1073 1256 1073 1256 925 1256 c 2,20,-1
 498 1256 l 1,21,-1
 397 736 l 1,22,-1
 857 736 l 2,14,15
EndSplineSet
Validated: 1
EndChar

StartChar: S
Encoding: 83 83 54
Width: 1366
GlyphClass: 2
Flags: W
AnchorPoint: "Anchor21" 800 0 basechar 0
AnchorPoint: "Anchor20" 600 0 basechar 0
AnchorPoint: "Anchor18" 1366 1840 basechar 0
AnchorPoint: "Anchor19" 0 1840 basechar 0
AnchorPoint: "Anchor16" 1366 1540 basechar 0
AnchorPoint: "Anchor17" 1366 -380 basechar 0
AnchorPoint: "Anchor15" 1200 1300 basechar 0
AnchorPoint: "Anchor14" 1160 1250 basechar 0
AnchorPoint: "Anchor10" 800 1540 basechar 0
AnchorPoint: "Anchor11" 1240 1540 basechar 0
AnchorPoint: "Anchor12" 600 -130 basechar 0
LayerCount: 2
Fore
SplineSet
616 -20 m 0,0,1
 367 -20 367 -20 229.5 68.5 c 128,-1,2
 92 157 92 157 58 338 c 1,3,-1
 235 375 l 1,4,5
 262 246 262 246 355 188 c 128,-1,6
 448 130 448 130 630 130 c 0,7,8
 849 130 849 130 950 195.5 c 128,-1,9
 1051 261 1051 261 1051 396 c 0,10,11
 1051 463 1051 463 1022 503.5 c 128,-1,12
 993 544 993 544 923 576.5 c 128,-1,13
 853 609 853 609 682 657 c 0,14,15
 511 704 511 704 426.5 753.5 c 128,-1,16
 342 803 342 803 298.5 873 c 128,-1,17
 255 943 255 943 255 1041 c 0,18,19
 255 1223 255 1223 408.5 1326.5 c 128,-1,20
 562 1430 562 1430 824 1430 c 0,21,22
 1044 1430 1044 1430 1177 1354 c 128,-1,23
 1310 1278 1310 1278 1344 1132 c 1,24,-1
 1171 1081 l 1,25,26
 1138 1186 1138 1186 1052.5 1236 c 128,-1,27
 967 1286 967 1286 823 1286 c 0,28,29
 447 1286 447 1286 447 1050 c 0,30,31
 447 990 447 990 472.5 952 c 128,-1,32
 498 914 498 914 556.5 885.5 c 128,-1,33
 615 857 615 857 789 810 c 1,34,35
 984 756 984 756 1069.5 706 c 128,-1,36
 1155 656 1155 656 1200.5 584.5 c 128,-1,37
 1246 513 1246 513 1246 408 c 0,38,39
 1246 202 1246 202 1091 91 c 128,-1,40
 936 -20 936 -20 616 -20 c 0,0,1
EndSplineSet
Validated: 1
EndChar

StartChar: T
Encoding: 84 84 55
Width: 1251
GlyphClass: 2
Flags: W
AnchorPoint: "Anchor21" 550 0 basechar 0
AnchorPoint: "Anchor20" 500 0 basechar 0
AnchorPoint: "Anchor18" 1366 1840 basechar 0
AnchorPoint: "Anchor19" 0 1840 basechar 0
AnchorPoint: "Anchor16" 1251 1540 basechar 0
AnchorPoint: "Anchor17" 1251 -380 basechar 0
AnchorPoint: "Anchor15" 1300 1300 basechar 0
AnchorPoint: "Anchor14" 1215 1420 basechar 0
AnchorPoint: "Anchor10" 720 1540 basechar 0
AnchorPoint: "Anchor11" 1280 1540 basechar 0
AnchorPoint: "Anchor12" 520 -130 basechar 0
LayerCount: 2
Fore
SplineSet
858 1253 m 1,0,-1
 614 0 l 1,1,-1
 424 0 l 1,2,-1
 668 1253 l 1,3,-1
 184 1253 l 1,4,-1
 214 1409 l 1,5,-1
 1372 1409 l 1,6,-1
 1342 1253 l 1,7,-1
 858 1253 l 1,0,-1
EndSplineSet
Validated: 1
EndChar

StartChar: U
Encoding: 85 85 56
Width: 1479
GlyphClass: 2
Flags: W
AnchorPoint: "Anchor21" 830 0 basechar 0
AnchorPoint: "Anchor20" 630 0 basechar 0
AnchorPoint: "Anchor18" 1366 1840 basechar 0
AnchorPoint: "Anchor19" 0 1840 basechar 0
AnchorPoint: "Anchor16" 1479 1540 basechar 0
AnchorPoint: "Anchor17" 1479 -380 basechar 0
AnchorPoint: "Anchor15" 1460 1300 basechar 0
AnchorPoint: "Anchor14" 1350 1420 basechar 0
AnchorPoint: "Anchor10" 830 1540 basechar 0
AnchorPoint: "Anchor11" 1400 1540 basechar 0
AnchorPoint: "Anchor12" 630 -130 basechar 0
LayerCount: 2
Fore
SplineSet
654 -20 m 0,0,1
 421 -20 421 -20 287 100.5 c 128,-1,2
 153 221 153 221 153 431 c 0,3,4
 153 475 153 475 160.5 536.5 c 128,-1,5
 168 598 168 598 176 635 c 2,6,-1
 326 1409 l 1,7,-1
 517 1409 l 1,8,-1
 355 566 l 2,9,10
 338 479 338 479 338 423 c 0,11,12
 338 287 338 287 425.5 211 c 128,-1,13
 513 135 513 135 670 135 c 0,14,15
 1054 135 1054 135 1131 541 c 1,16,-1
 1299 1409 l 1,17,-1
 1489 1409 l 1,18,-1
 1319 530 l 1,19,20
 1265 257 1265 257 1097 118.5 c 128,-1,21
 929 -20 929 -20 654 -20 c 0,0,1
EndSplineSet
Validated: 1
EndChar

StartChar: V
Encoding: 86 86 57
Width: 1366
GlyphClass: 2
Flags: W
AnchorPoint: "Anchor21" 620 0 basechar 0
AnchorPoint: "Anchor18" 1366 1840 basechar 0
AnchorPoint: "Anchor19" 0 1840 basechar 0
AnchorPoint: "Anchor16" 1366 1540 basechar 0
AnchorPoint: "Anchor17" 1366 -380 basechar 0
AnchorPoint: "Anchor15" 1410 1300 basechar 0
AnchorPoint: "Anchor14" 1300 1420 basechar 0
AnchorPoint: "Anchor10" 780 1540 basechar 0
AnchorPoint: "Anchor11" 1100 1540 basechar 0
AnchorPoint: "Anchor12" 580 -130 basechar 0
LayerCount: 2
Fore
SplineSet
677 0 m 1,0,-1
 479 0 l 1,1,-1
 177 1409 l 1,2,-1
 371 1409 l 1,3,-1
 569 417 l 1,4,-1
 604 168 l 1,5,-1
 737 417 l 1,6,-1
 1317 1409 l 1,7,-1
 1525 1409 l 1,8,-1
 677 0 l 1,0,-1
EndSplineSet
Validated: 1
EndChar

StartChar: W
Encoding: 87 87 58
Width: 1933
GlyphClass: 2
Flags: W
AnchorPoint: "Anchor21" 1300 0 basechar 0
AnchorPoint: "Anchor18" 1366 1840 basechar 0
AnchorPoint: "Anchor19" 0 1840 basechar 0
AnchorPoint: "Anchor16" 1933 1540 basechar 0
AnchorPoint: "Anchor17" 1933 -380 basechar 0
AnchorPoint: "Anchor15" 1980 1300 basechar 0
AnchorPoint: "Anchor14" 1880 1420 basechar 0
AnchorPoint: "Anchor10" 1070 1540 basechar 0
AnchorPoint: "Anchor11" 2000 1540 basechar 0
AnchorPoint: "Anchor12" 870 -130 basechar 0
LayerCount: 2
Fore
SplineSet
1406 0 m 1,0,-1
 1183 0 l 1,1,-1
 1112 895 l 1,2,3
 1098 1170 1098 1170 1096 1219 c 1,4,5
 1020 1020 1020 1020 961 895 c 2,6,-1
 542 0 l 1,7,-1
 319 0 l 1,8,-1
 177 1409 l 1,9,-1
 374 1409 l 1,10,-1
 453 514 l 1,11,12
 465 359 465 359 469 168 c 1,13,14
 548 356 548 356 599.5 470 c 128,-1,15
 651 584 651 584 1043 1409 c 1,16,-1
 1226 1409 l 1,17,-1
 1301 532 l 2,18,19
 1315 378 1315 378 1318 168 c 1,20,-1
 1334 203 l 1,21,22
 1382 318 1382 318 1412 387 c 128,-1,23
 1442 456 1442 456 1893 1409 c 1,24,-1
 2094 1409 l 1,25,-1
 1406 0 l 1,0,-1
EndSplineSet
Validated: 1
EndChar

StartChar: X
Encoding: 88 88 59
Width: 1366
GlyphClass: 2
Flags: W
AnchorPoint: "Anchor21" 1130 0 basechar 0
AnchorPoint: "Anchor18" 1366 1840 basechar 0
AnchorPoint: "Anchor19" 0 1840 basechar 0
AnchorPoint: "Anchor16" 1366 1540 basechar 0
AnchorPoint: "Anchor17" 1366 -380 basechar 0
AnchorPoint: "Anchor15" 1290 1300 basechar 0
AnchorPoint: "Anchor14" 1200 1420 basechar 0
AnchorPoint: "Anchor10" 780 1540 basechar 0
AnchorPoint: "Anchor11" 1100 1540 basechar 0
AnchorPoint: "Anchor12" 580 -130 basechar 0
LayerCount: 2
Fore
SplineSet
999 0 m 1,0,-1
 696 606 l 1,1,-1
 172 0 l 1,2,-1
 -39 0 l 1,3,-1
 615 746 l 1,4,-1
 275 1409 l 1,5,-1
 474 1409 l 1,6,-1
 744 858 l 1,7,-1
 1219 1409 l 1,8,-1
 1430 1409 l 1,9,-1
 830 733 l 1,10,-1
 1198 0 l 1,11,-1
 999 0 l 1,0,-1
EndSplineSet
Validated: 1
EndChar

StartChar: Y
Encoding: 89 89 60
Width: 1366
GlyphClass: 2
Flags: W
AnchorPoint: "Anchor21" 600 0 basechar 0
AnchorPoint: "Anchor18" 1366 1840 basechar 0
AnchorPoint: "Anchor19" 0 1840 basechar 0
AnchorPoint: "Anchor16" 1366 1540 basechar 0
AnchorPoint: "Anchor17" 1366 -380 basechar 0
AnchorPoint: "Anchor15" 1340 1300 basechar 0
AnchorPoint: "Anchor14" 1251 1420 basechar 0
AnchorPoint: "Anchor10" 780 1540 basechar 0
AnchorPoint: "Anchor11" 1100 1540 basechar 0
AnchorPoint: "Anchor12" 580 -130 basechar 0
LayerCount: 2
Fore
SplineSet
672 0 m 1,0,-1
 482 0 l 1,1,-1
 597 584 l 1,2,-1
 213 1409 l 1,3,-1
 409 1409 l 1,4,-1
 715 735 l 1,5,-1
 1275 1409 l 1,6,-1
 1489 1409 l 1,7,-1
 785 584 l 1,8,-1
 672 0 l 1,0,-1
EndSplineSet
Validated: 1
EndChar

StartChar: Z
Encoding: 90 90 61
Width: 1251
GlyphClass: 2
Flags: W
AnchorPoint: "Anchor21" 1030 0 basechar 0
AnchorPoint: "Anchor18" 1366 1840 basechar 0
AnchorPoint: "Anchor19" 0 1840 basechar 0
AnchorPoint: "Anchor16" 1251 1540 basechar 0
AnchorPoint: "Anchor17" 1251 -380 basechar 0
AnchorPoint: "Anchor15" 1250 1300 basechar 0
AnchorPoint: "Anchor14" 1130 1420 basechar 0
AnchorPoint: "Anchor10" 900 1540 basechar 0
AnchorPoint: "Anchor11" 1440 1540 basechar 0
AnchorPoint: "Anchor12" 500 -130 basechar 0
LayerCount: 2
Fore
SplineSet
1082 0 m 1,0,-1
 -40 0 l 1,1,-1
 -13 143 l 1,2,-1
 1041 1253 l 1,3,-1
 276 1253 l 1,4,-1
 306 1409 l 1,5,-1
 1308 1409 l 1,6,-1
 1281 1270 l 1,7,-1
 227 156 l 1,8,-1
 1112 156 l 1,9,-1
 1082 0 l 1,0,-1
EndSplineSet
Validated: 1
EndChar

StartChar: bracketleft
Encoding: 91 91 62
Width: 569
GlyphClass: 2
Flags: W
LayerCount: 2
Fore
SplineSet
-39 -425 m 1,0,-1
 331 1484 l 1,1,-1
 738 1484 l 1,2,-1
 713 1355 l 1,3,-1
 480 1355 l 1,4,-1
 159 -296 l 1,5,-1
 392 -296 l 1,6,-1
 367 -425 l 1,7,-1
 -39 -425 l 1,0,-1
EndSplineSet
Validated: 1
EndChar

StartChar: backslash
Encoding: 92 92 63
Width: 569
GlyphClass: 2
Flags: W
LayerCount: 2
Fore
SplineSet
320 -20 m 1,0,-1
 146 1484 l 1,1,-1
 294 1484 l 1,2,-1
 472 -20 l 1,3,-1
 320 -20 l 1,0,-1
EndSplineSet
Validated: 1
EndChar

StartChar: bracketright
Encoding: 93 93 64
Width: 569
GlyphClass: 2
Flags: W
LayerCount: 2
Fore
SplineSet
-169 -425 m 1,0,-1
 -144 -296 l 1,1,-1
 88 -296 l 1,2,-1
 409 1355 l 1,3,-1
 176 1355 l 1,4,-1
 201 1484 l 1,5,-1
 608 1484 l 1,6,-1
 237 -425 l 1,7,-1
 -169 -425 l 1,0,-1
EndSplineSet
Validated: 1
EndChar

StartChar: asciicircum
Encoding: 94 94 65
Width: 961
GlyphClass: 2
Flags: W
LayerCount: 2
Fore
SplineSet
817 673 m 1,0,-1
 508 1306 l 1,1,-1
 202 673 l 1,2,-1
 40 673 l 1,3,-1
 408 1409 l 1,4,-1
 611 1409 l 1,5,-1
 981 673 l 1,6,-1
 817 673 l 1,0,-1
EndSplineSet
Validated: 1
EndChar

StartChar: underscore
Encoding: 95 95 66
Width: 1139
GlyphClass: 2
Flags: W
LayerCount: 2
Fore
SplineSet
-160 -250 m 1,0,-1
 -160 -174 l 1,1,-1
 1018 -174 l 1,2,-1
 1018 -250 l 1,3,-1
 -160 -250 l 1,0,-1
EndSplineSet
Validated: 1
EndChar

StartChar: grave
Encoding: 96 96 67
Width: 682
GlyphClass: 2
Flags: W
LayerCount: 2
Fore
SplineSet
412 1201 m 1,0,-1
 130 1479 l 1,1,-1
 135 1508 l 1,2,-1
 342 1508 l 1,3,-1
 503 1221 l 1,4,-1
 500 1201 l 1,5,-1
 412 1201 l 1,0,-1
EndSplineSet
Validated: 1
EndChar

StartChar: a
Encoding: 97 97 68
Width: 1139
GlyphClass: 2
Flags: W
AnchorPoint: "Anchor21" 940 0 basechar 0
AnchorPoint: "Anchor20" 380 0 basechar 0
AnchorPoint: "Anchor18" 1366 1840 basechar 0
AnchorPoint: "Anchor19" 0 1840 basechar 0
AnchorPoint: "Anchor16" 1139 1540 basechar 0
AnchorPoint: "Anchor17" 1139 -380 basechar 0
AnchorPoint: "Anchor15" 960 800 basechar 0
AnchorPoint: "Anchor14" 920 900 basechar 0
AnchorPoint: "Anchor10" 640 1200 basechar 0
AnchorPoint: "Anchor11" 1000 1200 basechar 0
AnchorPoint: "Anchor12" 440 -130 basechar 0
LayerCount: 2
Fore
SplineSet
927 -10 m 0,0,1
 834 -10 834 -10 791.5 28.5 c 128,-1,2
 749 67 749 67 749 143 c 1,3,-1
 754 207 l 1,4,-1
 748 207 l 1,5,6
 665 81 665 81 576 30.5 c 128,-1,7
 487 -20 487 -20 361 -20 c 0,8,9
 221 -20 221 -20 133.5 64 c 128,-1,10
 46 148 46 148 46 278 c 0,11,12
 46 463 46 463 178.5 558 c 128,-1,13
 311 653 311 653 601 657 c 2,14,-1
 833 660 l 1,15,16
 852 758 852 758 852 787 c 0,17,18
 852 878 852 878 799 921.5 c 128,-1,19
 746 965 746 965 652 965 c 0,20,21
 533 965 533 965 472 922.5 c 128,-1,22
 411 880 411 880 384 793 c 1,23,-1
 206 822 l 1,24,25
 251 969 251 969 362.5 1035.5 c 128,-1,26
 474 1102 474 1102 662 1102 c 0,27,28
 833 1102 833 1102 932.5 1022 c 128,-1,29
 1032 942 1032 942 1032 807 c 0,30,31
 1032 743 1032 743 1013 650 c 2,32,-1
 939 272 l 1,33,34
 928 224 928 224 928 184 c 0,35,36
 928 111 928 111 1009 111 c 0,37,38
 1036 111 1036 111 1069 118 c 1,39,-1
 1055 6 l 1,40,41
 989 -10 989 -10 927 -10 c 0,0,1
809 536 m 1,42,-1
 610 532 l 2,43,44
 491 529 491 529 423 510.5 c 128,-1,45
 355 492 355 492 317.5 463.5 c 128,-1,46
 280 435 280 435 258.5 391.5 c 128,-1,47
 237 348 237 348 237 286 c 0,48,49
 237 211 237 211 285.5 164 c 128,-1,50
 334 117 334 117 411 117 c 0,51,52
 508 117 508 117 586 158.5 c 128,-1,53
 664 200 664 200 715 267 c 128,-1,54
 766 334 766 334 782 411 c 2,55,-1
 809 536 l 1,42,-1
EndSplineSet
Validated: 1
EndChar

StartChar: b
Encoding: 98 98 69
Width: 1139
GlyphClass: 2
Flags: W
AnchorPoint: "Anchor21" 680 0 basechar 0
AnchorPoint: "Anchor18" 1366 1840 basechar 0
AnchorPoint: "Anchor19" 0 1840 basechar 0
AnchorPoint: "Anchor16" 1139 1540 basechar 0
AnchorPoint: "Anchor17" 1139 -380 basechar 0
AnchorPoint: "Anchor15" 1026 800 basechar 0
AnchorPoint: "Anchor14" 950 900 basechar 0
AnchorPoint: "Anchor10" 680 1540 basechar 0
AnchorPoint: "Anchor11" 1000 1540 basechar 0
AnchorPoint: "Anchor12" 480 -130 basechar 0
LayerCount: 2
Fore
SplineSet
744 1102 m 0,0,1
 901 1102 901 1102 988.5 1007.5 c 128,-1,2
 1076 913 1076 913 1076 748 c 0,3,4
 1076 545 1076 545 1014.5 354.5 c 128,-1,5
 953 164 953 164 841.5 72 c 128,-1,6
 730 -20 730 -20 557 -20 c 0,7,8
 434 -20 434 -20 357 32 c 128,-1,9
 280 84 280 84 248 178 c 1,10,-1
 245 178 l 1,11,12
 238 141 238 141 221 72 c 128,-1,13
 204 3 204 3 202 0 c 1,14,-1
 29 0 l 1,15,16
 34 15 34 15 48.5 82 c 128,-1,17
 63 149 63 149 78 223 c 2,18,-1
 323 1484 l 1,19,-1
 503 1484 l 1,20,-1
 420 1061 l 1,21,22
 412 1015 412 1015 386 921 c 1,23,-1
 390 921 l 1,24,25
 463 1016 463 1016 544 1059 c 128,-1,26
 625 1102 625 1102 744 1102 c 0,0,1
692 963 m 0,27,28
 593 963 593 963 522.5 922.5 c 128,-1,29
 452 882 452 882 403 800.5 c 128,-1,30
 354 719 354 719 326 596.5 c 128,-1,31
 298 474 298 474 298 377 c 0,32,33
 298 252 298 252 361.5 182.5 c 128,-1,34
 425 113 425 113 538 113 c 0,35,36
 662 113 662 113 734 188.5 c 128,-1,37
 806 264 806 264 847 428.5 c 128,-1,38
 888 593 888 593 888 716 c 256,39,40
 888 839 888 839 841 901 c 128,-1,41
 794 963 794 963 692 963 c 0,27,28
EndSplineSet
Validated: 1
EndChar

StartChar: c
Encoding: 99 99 70
Width: 1024
GlyphClass: 2
Flags: W
AnchorPoint: "Anchor21" 580 0 basechar 0
AnchorPoint: "Anchor20" 460 0 basechar 0
AnchorPoint: "Anchor18" 1366 1840 basechar 0
AnchorPoint: "Anchor19" 0 1840 basechar 0
AnchorPoint: "Anchor16" 1024 1540 basechar 0
AnchorPoint: "Anchor17" 1024 -380 basechar 0
AnchorPoint: "Anchor15" 960 800 basechar 0
AnchorPoint: "Anchor14" 860 915 basechar 0
AnchorPoint: "Anchor10" 640 1200 basechar 0
AnchorPoint: "Anchor11" 1000 1200 basechar 0
AnchorPoint: "Anchor12" 440 -130 basechar 0
LayerCount: 2
Fore
SplineSet
469 122 m 0,0,1
 674 122 674 122 758 352 c 1,2,-1
 914 303 l 1,3,4
 793 -20 793 -20 465 -20 c 0,5,6
 273 -20 273 -20 170 89 c 128,-1,7
 67 198 67 198 67 395 c 0,8,9
 67 595 67 595 139.5 767 c 128,-1,10
 212 939 212 939 331.5 1020.5 c 128,-1,11
 451 1102 451 1102 625 1102 c 0,12,13
 794 1102 794 1102 892.5 1017 c 128,-1,14
 991 932 991 932 1001 784 c 1,15,-1
 824 759 l 1,16,17
 818 856 818 856 764 908.5 c 128,-1,18
 710 961 710 961 619 961 c 0,19,20
 493 961 493 961 415 893.5 c 128,-1,21
 337 826 337 826 294 679 c 128,-1,22
 251 532 251 532 251 389 c 0,23,24
 251 122 251 122 469 122 c 0,0,1
EndSplineSet
Validated: 1
EndChar

StartChar: d
Encoding: 100 100 71
Width: 1139
GlyphClass: 2
Flags: W
AnchorPoint: "Anchor21" 850 0 basechar 0
AnchorPoint: "Anchor18" 1366 1840 basechar 0
AnchorPoint: "Anchor19" 0 1840 basechar 0
AnchorPoint: "Anchor16" 1139 1540 basechar 0
AnchorPoint: "Anchor17" 1139 -380 basechar 0
AnchorPoint: "Anchor15" 1100 1400 basechar 0
AnchorPoint: "Anchor14" 1030 1500 basechar 0
AnchorPoint: "Anchor10" 640 1200 basechar 0
AnchorPoint: "Anchor11" 1000 1200 basechar 0
AnchorPoint: "Anchor12" 440 -130 basechar 0
LayerCount: 2
Fore
SplineSet
401 -21 m 0,0,1
 244 -21 244 -21 156.5 73.5 c 128,-1,2
 69 168 69 168 69 333 c 0,3,4
 69 536 69 536 130.5 726.5 c 128,-1,5
 192 917 192 917 303.5 1009 c 128,-1,6
 415 1101 415 1101 588 1101 c 0,7,8
 711 1101 711 1101 788.5 1049 c 128,-1,9
 866 997 866 997 898 903 c 1,10,-1
 903 903 l 1,11,-1
 931 1065 l 1,12,-1
 1013 1484 l 1,13,-1
 1193 1484 l 1,14,-1
 948 223 l 1,15,16
 919 82 919 82 910 0 c 1,17,-1
 738 0 l 1,18,19
 738 51 738 51 759 160 c 1,20,-1
 754 160 l 1,21,22
 681 65 681 65 600 22 c 128,-1,23
 519 -21 519 -21 401 -21 c 0,0,1
453 118 m 0,24,25
 552 118 552 118 622.5 158.5 c 128,-1,26
 693 199 693 199 742 280.5 c 128,-1,27
 791 362 791 362 819 484.5 c 128,-1,28
 847 607 847 607 847 704 c 0,29,30
 847 829 847 829 783.5 898.5 c 128,-1,31
 720 968 720 968 607 968 c 0,32,33
 485 968 485 968 414 895.5 c 128,-1,34
 343 823 343 823 300 658.5 c 128,-1,35
 257 494 257 494 257 365 c 0,36,37
 257 242 257 242 304 180 c 128,-1,38
 351 118 351 118 453 118 c 0,24,25
EndSplineSet
Validated: 1
EndChar

StartChar: e
Encoding: 101 101 72
Width: 1139
GlyphClass: 2
Flags: W
AnchorPoint: "Anchor21" 680 0 basechar 0
AnchorPoint: "Anchor20" 480 0 basechar 0
AnchorPoint: "Anchor18" 1366 1840 basechar 0
AnchorPoint: "Anchor19" 0 1840 basechar 0
AnchorPoint: "Anchor16" 1139 1540 basechar 0
AnchorPoint: "Anchor17" 1139 -380 basechar 0
AnchorPoint: "Anchor15" 1030 800 basechar 0
AnchorPoint: "Anchor14" 930 900 basechar 0
AnchorPoint: "Anchor10" 680 1540 basechar 0
AnchorPoint: "Anchor11" 1000 1540 basechar 0
AnchorPoint: "Anchor12" 480 -130 basechar 0
LayerCount: 2
Fore
SplineSet
256 503 m 1,0,1
 250 468 250 468 247 390 c 1,2,3
 247 257 247 257 313.5 186 c 128,-1,4
 380 115 380 115 514 115 c 0,5,6
 611 115 611 115 690 163 c 128,-1,7
 769 211 769 211 813 294 c 1,8,-1
 951 231 l 1,9,10
 878 100 878 100 765.5 40 c 128,-1,11
 653 -20 653 -20 493 -20 c 0,12,13
 292 -20 292 -20 180.5 91.5 c 128,-1,14
 69 203 69 203 69 405 c 0,15,16
 69 606 69 606 140 765.5 c 128,-1,17
 211 925 211 925 340 1013.5 c 128,-1,18
 469 1102 469 1102 630 1102 c 0,19,20
 835 1102 835 1102 949 999 c 128,-1,21
 1063 896 1063 896 1063 708 c 0,22,23
 1063 603 1063 603 1039 503 c 1,24,-1
 256 503 l 1,0,1
880 641 m 1,25,-1
 884 713 l 1,26,27
 884 837 884 837 819.5 903 c 128,-1,28
 755 969 755 969 634 969 c 0,29,30
 500 969 500 969 408.5 883.5 c 128,-1,31
 317 798 317 798 280 641 c 1,32,-1
 880 641 l 1,25,-1
EndSplineSet
Validated: 1
EndChar

StartChar: f
Encoding: 102 102 73
Width: 569
GlyphClass: 2
Flags: W
AnchorPoint: "Anchor21" 200 0 basechar 0
AnchorPoint: "Anchor18" 1366 1840 basechar 0
AnchorPoint: "Anchor19" 0 1840 basechar 0
AnchorPoint: "Anchor16" 569 1540 basechar 0
AnchorPoint: "Anchor17" 569 -380 basechar 0
AnchorPoint: "Anchor15" 650 1400 basechar 0
AnchorPoint: "Anchor14" 600 1500 basechar 0
AnchorPoint: "Anchor10" 400 1540 basechar 0
AnchorPoint: "Anchor11" 500 1540 basechar 0
AnchorPoint: "Anchor12" 180 -130 basechar 0
LayerCount: 2
Fore
SplineSet
434 951 m 1,0,-1
 249 0 l 1,1,-1
 69 0 l 1,2,-1
 254 951 l 1,3,-1
 102 951 l 1,4,-1
 128 1082 l 1,5,-1
 280 1082 l 1,6,-1
 303 1204 l 1,7,8
 326 1316 326 1316 363.5 1371.5 c 128,-1,9
 401 1427 401 1427 463 1455.5 c 128,-1,10
 525 1484 525 1484 622 1484 c 0,11,12
 696 1484 696 1484 746 1472 c 1,13,-1
 720 1335 l 1,14,-1
 675 1341 l 1,15,-1
 629 1343 l 1,16,17
 566 1343 566 1343 532.5 1310.5 c 128,-1,18
 499 1278 499 1278 479 1179 c 2,19,-1
 460 1082 l 1,20,-1
 671 1082 l 1,21,-1
 645 951 l 1,22,-1
 434 951 l 1,0,-1
EndSplineSet
Validated: 1
EndChar

StartChar: g
Encoding: 103 103 74
Width: 1139
GlyphClass: 2
Flags: W
AnchorPoint: "Anchor21" 600 -400 basechar 0
AnchorPoint: "Anchor20" 400 -420 basechar 0
AnchorPoint: "Anchor18" 1366 1840 basechar 0
AnchorPoint: "Anchor19" 0 1840 basechar 0
AnchorPoint: "Anchor16" 1139 1540 basechar 0
AnchorPoint: "Anchor17" 1139 -380 basechar 0
AnchorPoint: "Anchor15" 1030 1000 basechar 0
AnchorPoint: "Anchor14" 980 1100 basechar 0
AnchorPoint: "Anchor10" 600 1200 basechar 0
AnchorPoint: "Anchor11" 1080 1200 basechar 0
AnchorPoint: "Anchor12" 440 -540 basechar 0
LayerCount: 2
Fore
SplineSet
397 -425 m 0,0,1
 58 -425 58 -425 4 -173 c 1,2,-1
 167 -131 l 1,3,4
 202 -288 202 -288 401 -288 c 0,5,6
 543 -288 543 -288 621 -214.5 c 128,-1,7
 699 -141 699 -141 731 27 c 2,8,-1
 765 201 l 1,9,-1
 763 201 l 1,10,11
 701 112 701 112 653.5 73 c 128,-1,12
 606 34 606 34 546.5 13 c 128,-1,13
 487 -8 487 -8 410 -8 c 0,14,15
 257 -8 257 -8 163.5 92.5 c 128,-1,16
 70 193 70 193 70 359 c 0,17,18
 70 492 70 492 107.5 646 c 128,-1,19
 145 800 145 800 210 902 c 128,-1,20
 275 1004 275 1004 368 1052.5 c 128,-1,21
 461 1101 461 1101 588 1101 c 0,22,23
 709 1101 709 1101 792.5 1044 c 128,-1,24
 876 987 876 987 900 897 c 1,25,-1
 902 897 l 1,26,27
 909 934 909 934 927 1003.5 c 128,-1,28
 945 1073 945 1073 950 1082 c 1,29,-1
 1121 1082 l 1,30,-1
 1102 1000 l 1,31,-1
 1072 858 l 1,32,-1
 911 31 l 2,33,34
 863 -211 863 -211 739 -318 c 128,-1,35
 615 -425 615 -425 397 -425 c 0,0,1
259 373 m 0,36,37
 259 252 259 252 311.5 188.5 c 128,-1,38
 364 125 364 125 466 125 c 0,39,40
 574 125 574 125 662 203.5 c 128,-1,41
 750 282 750 282 798.5 419 c 128,-1,42
 847 556 847 556 847 704 c 0,43,44
 847 829 847 829 783 898.5 c 128,-1,45
 719 968 719 968 607 968 c 0,46,47
 517 968 517 968 457 931 c 128,-1,48
 397 894 397 894 356 815 c 128,-1,49
 315 736 315 736 287 604.5 c 128,-1,50
 259 473 259 473 259 373 c 0,36,37
EndSplineSet
Validated: 1
EndChar

StartChar: h
Encoding: 104 104 75
Width: 1139
GlyphClass: 2
Flags: W
AnchorPoint: "Anchor21" 850 0 basechar 0
AnchorPoint: "Anchor18" 1366 1840 basechar 0
AnchorPoint: "Anchor19" 0 1840 basechar 0
AnchorPoint: "Anchor16" 1139 1540 basechar 0
AnchorPoint: "Anchor17" 1139 -380 basechar 0
AnchorPoint: "Anchor15" 1000 800 basechar 0
AnchorPoint: "Anchor14" 950 900 basechar 0
AnchorPoint: "Anchor10" 640 1200 basechar 0
AnchorPoint: "Anchor11" 1000 1200 basechar 0
AnchorPoint: "Anchor12" 440 -130 basechar 0
LayerCount: 2
Fore
SplineSet
383 897 m 1,0,1
 466 1012 466 1012 549.5 1056.5 c 128,-1,2
 633 1101 633 1101 748 1101 c 0,3,4
 896 1101 896 1101 970.5 1028 c 128,-1,5
 1045 955 1045 955 1045 817 c 0,6,7
 1045 753 1045 753 1024 653 c 1,8,-1
 897 0 l 1,9,-1
 716 0 l 1,10,-1
 842 645 l 2,11,12
 860 733 860 733 860 795 c 0,13,14
 860 962 860 962 681 962 c 0,15,16
 555 962 555 962 459 866 c 128,-1,17
 363 770 363 770 331 606 c 2,18,-1
 213 0 l 1,19,-1
 34 0 l 1,20,-1
 322 1484 l 1,21,-1
 502 1484 l 1,22,-1
 427 1098 l 1,23,24
 409 998 409 998 380 897 c 1,25,-1
 383 897 l 1,0,1
EndSplineSet
Validated: 1
EndChar

StartChar: i
Encoding: 105 105 76
Width: 455
GlyphClass: 2
Flags: W
AnchorPoint: "Anchor21" 160 0 basechar 0
AnchorPoint: "Anchor20" 110 0 basechar 0
AnchorPoint: "Anchor18" 1366 1840 basechar 0
AnchorPoint: "Anchor19" 0 1840 basechar 0
AnchorPoint: "Anchor16" 455 1540 basechar 0
AnchorPoint: "Anchor17" 455 -380 basechar 0
AnchorPoint: "Anchor15" 500 1000 basechar 0
AnchorPoint: "Anchor14" 300 1100 basechar 0
AnchorPoint: "Anchor10" 330 1580 basechar 0
AnchorPoint: "Anchor11" 420 1540 basechar 0
AnchorPoint: "Anchor12" 130 -130 basechar 0
LayerCount: 2
Fore
SplineSet
287 1312 m 1,0,-1
 321 1484 l 1,1,-1
 501 1484 l 1,2,-1
 467 1312 l 1,3,-1
 287 1312 l 1,0,-1
33 0 m 1,4,-1
 243 1082 l 1,5,-1
 423 1082 l 1,6,-1
 212 0 l 1,7,-1
 33 0 l 1,4,-1
EndSplineSet
Validated: 1
EndChar

StartChar: j
Encoding: 106 106 77
Width: 455
GlyphClass: 2
Flags: W
AnchorPoint: "Anchor21" 50 -400 basechar 0
AnchorPoint: "Anchor18" 1366 1840 basechar 0
AnchorPoint: "Anchor19" 0 1840 basechar 0
AnchorPoint: "Anchor16" 455 1540 basechar 0
AnchorPoint: "Anchor17" 455 -380 basechar 0
AnchorPoint: "Anchor15" 500 1000 basechar 0
AnchorPoint: "Anchor14" 300 1100 basechar 0
AnchorPoint: "Anchor10" 330 1580 basechar 0
AnchorPoint: "Anchor11" 420 1540 basechar 0
AnchorPoint: "Anchor12" 40 -540 basechar 0
LayerCount: 2
Fore
SplineSet
289 1312 m 1,0,-1
 322 1484 l 1,1,-1
 502 1484 l 1,2,-1
 469 1312 l 1,3,-1
 289 1312 l 1,0,-1
-100 -425 m 0,4,5
 -156 -425 -156 -425 -229 -411 c 1,6,-1
 -206 -275 l 1,7,8
 -154 -283 -154 -283 -123 -283 c 0,9,10
 -64 -283 -64 -283 -34 -241 c 128,-1,11
 -4 -199 -4 -199 13 -107 c 2,12,-1
 244 1082 l 1,13,-1
 424 1082 l 1,14,-1
 187 -134 l 2,15,16
 156 -292 156 -292 86 -358.5 c 128,-1,17
 16 -425 16 -425 -100 -425 c 0,4,5
EndSplineSet
Validated: 1
EndChar

StartChar: k
Encoding: 107 107 78
Width: 1024
GlyphClass: 2
Flags: W
AnchorPoint: "Anchor21" 830 0 basechar 0
AnchorPoint: "Anchor20" 400 0 basechar 0
AnchorPoint: "Anchor18" 1366 1840 basechar 0
AnchorPoint: "Anchor19" 0 1840 basechar 0
AnchorPoint: "Anchor16" 1024 1540 basechar 0
AnchorPoint: "Anchor17" 1024 -380 basechar 0
AnchorPoint: "Anchor15" 960 1000 basechar 0
AnchorPoint: "Anchor14" 860 1100 basechar 0
AnchorPoint: "Anchor10" 640 1200 basechar 0
AnchorPoint: "Anchor11" 1000 1200 basechar 0
AnchorPoint: "Anchor12" 440 -130 basechar 0
LayerCount: 2
Fore
SplineSet
721 0 m 1,0,-1
 453 502 l 1,1,-1
 285 378 l 1,2,-1
 213 0 l 1,3,-1
 34 0 l 1,4,-1
 322 1484 l 1,5,-1
 502 1484 l 1,6,-1
 323 567 l 1,7,-1
 527 757 l 1,8,-1
 888 1082 l 1,9,-1
 1110 1082 l 1,10,-1
 580 617 l 1,11,-1
 916 0 l 1,12,-1
 721 0 l 1,0,-1
EndSplineSet
Validated: 1
EndChar

StartChar: l
Encoding: 108 108 79
Width: 455
GlyphClass: 2
Flags: W
AnchorPoint: "Anchor21" 160 0 basechar 0
AnchorPoint: "Anchor20" 110 0 basechar 0
AnchorPoint: "Anchor18" 1366 1840 basechar 0
AnchorPoint: "Anchor19" 0 1840 basechar 0
AnchorPoint: "Anchor16" 455 1540 basechar 0
AnchorPoint: "Anchor17" 455 -380 basechar 0
AnchorPoint: "Anchor15" 410 1400 basechar 0
AnchorPoint: "Anchor14" 340 1500 basechar 0
AnchorPoint: "Anchor10" 340 1580 basechar 0
AnchorPoint: "Anchor11" 420 1540 basechar 0
AnchorPoint: "Anchor12" 140 -130 basechar 0
LayerCount: 2
Fore
SplineSet
33 0 m 1,0,-1
 321 1484 l 1,1,-1
 501 1484 l 1,2,-1
 212 0 l 1,3,-1
 33 0 l 1,0,-1
EndSplineSet
Validated: 1
EndChar

StartChar: m
Encoding: 109 109 80
Width: 1706
GlyphClass: 2
Flags: W
AnchorPoint: "Anchor21" 1410 0 basechar 0
AnchorPoint: "Anchor18" 1366 1840 basechar 0
AnchorPoint: "Anchor19" 0 1840 basechar 0
AnchorPoint: "Anchor16" 1706 1540 basechar 0
AnchorPoint: "Anchor17" 1706 -380 basechar 0
AnchorPoint: "Anchor15" 1600 800 basechar 0
AnchorPoint: "Anchor14" 1480 900 basechar 0
AnchorPoint: "Anchor10" 960 1540 basechar 0
AnchorPoint: "Anchor11" 1640 1540 basechar 0
AnchorPoint: "Anchor12" 760 -130 basechar 0
LayerCount: 2
Fore
SplineSet
660 0 m 1,0,-1
 784 634 l 2,1,2
 809 759 809 759 809 808 c 0,3,4
 809 883 809 883 771 922.5 c 128,-1,5
 733 962 733 962 647 962 c 0,6,7
 531 962 531 962 444.5 863 c 128,-1,8
 358 764 358 764 331 604 c 1,9,-1
 213 0 l 1,10,-1
 34 0 l 1,11,-1
 200 851 l 1,12,13
 220 946 220 946 239 1082 c 1,14,-1
 409 1082 l 1,15,16
 409 1071 409 1071 398.5 1004.5 c 128,-1,17
 388 938 388 938 381 897 c 1,18,-1
 384 897 l 1,19,20
 457 1011 457 1011 530.5 1056 c 128,-1,21
 604 1101 604 1101 706 1101 c 0,22,23
 827 1101 827 1101 898 1041.5 c 128,-1,24
 969 982 969 982 983 869 c 1,25,26
 1066 999 1066 999 1146.5 1050 c 128,-1,27
 1227 1101 1227 1101 1331 1101 c 0,28,29
 1466 1101 1466 1101 1538.5 1028 c 128,-1,30
 1611 955 1611 955 1611 817 c 0,31,32
 1611 753 1611 753 1590 653 c 1,33,-1
 1463 0 l 1,34,-1
 1285 0 l 1,35,-1
 1409 634 l 2,36,37
 1434 759 1434 759 1434 808 c 0,38,39
 1434 883 1434 883 1396 922.5 c 128,-1,40
 1358 962 1358 962 1272 962 c 0,41,42
 1156 962 1156 962 1070 864.5 c 128,-1,43
 984 767 984 767 956 607 c 1,44,-1
 838 0 l 1,45,-1
 660 0 l 1,0,-1
EndSplineSet
Validated: 1
EndChar

StartChar: n
Encoding: 110 110 81
Width: 1139
GlyphClass: 2
Flags: W
AnchorPoint: "Anchor21" 840 0 basechar 0
AnchorPoint: "Anchor20" 440 0 basechar 0
AnchorPoint: "Anchor18" 1366 1840 basechar 0
AnchorPoint: "Anchor19" 0 1840 basechar 0
AnchorPoint: "Anchor16" 1139 1540 basechar 0
AnchorPoint: "Anchor17" 1139 -380 basechar 0
AnchorPoint: "Anchor15" 1020 800 basechar 0
AnchorPoint: "Anchor14" 920 900 basechar 0
AnchorPoint: "Anchor10" 680 1540 basechar 0
AnchorPoint: "Anchor11" 1000 1540 basechar 0
AnchorPoint: "Anchor12" 480 -130 basechar 0
LayerCount: 2
Fore
SplineSet
717 0 m 1,0,-1
 843 645 l 2,1,2
 861 733 861 733 861 795 c 0,3,4
 861 962 861 962 682 962 c 0,5,6
 556 962 556 962 460 866 c 128,-1,7
 364 770 364 770 332 606 c 2,8,-1
 214 0 l 1,9,-1
 34 0 l 1,10,-1
 200 851 l 1,11,12
 220 946 220 946 239 1082 c 1,13,-1
 409 1082 l 1,14,15
 409 1071 409 1071 398.5 1004.5 c 128,-1,16
 388 938 388 938 381 897 c 1,17,-1
 384 897 l 1,18,19
 467 1012 467 1012 550.5 1056.5 c 128,-1,20
 634 1101 634 1101 749 1101 c 0,21,22
 897 1101 897 1101 971.5 1028 c 128,-1,23
 1046 955 1046 955 1046 817 c 0,24,25
 1046 753 1046 753 1025 653 c 1,26,-1
 898 0 l 1,27,-1
 717 0 l 1,0,-1
EndSplineSet
Validated: 1
EndChar

StartChar: o
Encoding: 111 111 82
Width: 1139
GlyphClass: 2
Flags: W
AnchorPoint: "Anchor21" 680 0 basechar 0
AnchorPoint: "Anchor20" 470 0 basechar 0
AnchorPoint: "Anchor18" 1366 1840 basechar 0
AnchorPoint: "Anchor19" 0 1840 basechar 0
AnchorPoint: "Anchor16" 1139 1540 basechar 0
AnchorPoint: "Anchor17" 1139 -380 basechar 0
AnchorPoint: "Anchor15" 1010 800 basechar 0
AnchorPoint: "Anchor14" 950 900 basechar 0
AnchorPoint: "Anchor10" 660 1200 basechar 0
AnchorPoint: "Anchor11" 1000 1200 basechar 0
AnchorPoint: "Anchor12" 460 -130 basechar 0
LayerCount: 2
Fore
SplineSet
1074 683 m 0,0,1
 1074 553 1074 553 1034 412.5 c 128,-1,2
 994 272 994 272 919.5 174.5 c 128,-1,3
 845 77 845 77 737 28.5 c 128,-1,4
 629 -20 629 -20 491 -20 c 0,5,6
 295 -20 295 -20 181 98 c 128,-1,7
 67 216 67 216 67 419 c 1,8,9
 71 623 71 623 141 781 c 128,-1,10
 211 939 211 939 335 1020 c 128,-1,11
 459 1101 459 1101 642 1101 c 0,12,13
 852 1101 852 1101 963 991.5 c 128,-1,14
 1074 882 1074 882 1074 683 c 0,0,1
888 683 m 1,15,16
 888 969 888 969 640 969 c 0,17,18
 505 969 505 969 423.5 899.5 c 128,-1,19
 342 830 342 830 297 689 c 128,-1,20
 252 548 252 548 252 416 c 0,21,22
 252 268 252 268 316 190.5 c 128,-1,23
 380 113 380 113 502 113 c 0,24,25
 605 113 605 113 667.5 147.5 c 128,-1,26
 730 182 730 182 777 255.5 c 128,-1,27
 824 329 824 329 853.5 443 c 128,-1,28
 883 557 883 557 888 683 c 1,15,16
EndSplineSet
Validated: 1
EndChar

StartChar: p
Encoding: 112 112 83
Width: 1139
GlyphClass: 2
Flags: W
AnchorPoint: "Anchor21" 100 -400 basechar 0
AnchorPoint: "Anchor18" 1366 1840 basechar 0
AnchorPoint: "Anchor19" 0 1840 basechar 0
AnchorPoint: "Anchor16" 1139 1540 basechar 0
AnchorPoint: "Anchor17" 1139 -380 basechar 0
AnchorPoint: "Anchor15" 1010 800 basechar 0
AnchorPoint: "Anchor14" 950 900 basechar 0
AnchorPoint: "Anchor10" 700 1200 basechar 0
AnchorPoint: "Anchor11" 1000 1200 basechar 0
AnchorPoint: "Anchor12" 500 -540 basechar 0
LayerCount: 2
Fore
SplineSet
554 -20 m 0,0,1
 431 -20 431 -20 353.5 32 c 128,-1,2
 276 84 276 84 244 178 c 1,3,-1
 239 178 l 1,4,5
 239 167 239 167 230.5 113 c 128,-1,6
 222 59 222 59 128 -425 c 1,7,-1
 -51 -425 l 1,8,-1
 198 861 l 1,9,10
 221 972 221 972 233 1082 c 1,11,-1
 400 1082 l 1,12,13
 400 1055 400 1055 393.5 999.5 c 128,-1,14
 387 944 387 944 383 921 c 1,15,-1
 387 921 l 1,16,17
 460 1016 460 1016 541 1059 c 128,-1,18
 622 1102 622 1102 741 1102 c 0,19,20
 898 1102 898 1102 985.5 1007.5 c 128,-1,21
 1073 913 1073 913 1073 748 c 0,22,23
 1073 545 1073 545 1011.5 354.5 c 128,-1,24
 950 164 950 164 838.5 72 c 128,-1,25
 727 -20 727 -20 554 -20 c 0,0,1
689 963 m 0,26,27
 590 963 590 963 519.5 922.5 c 128,-1,28
 449 882 449 882 400 800.5 c 128,-1,29
 351 719 351 719 323 596.5 c 128,-1,30
 295 474 295 474 295 377 c 0,31,32
 295 252 295 252 358.5 182.5 c 128,-1,33
 422 113 422 113 535 113 c 0,34,35
 659 113 659 113 731 188.5 c 128,-1,36
 803 264 803 264 844 428.5 c 128,-1,37
 885 593 885 593 885 716 c 256,38,39
 885 839 885 839 838 901 c 128,-1,40
 791 963 791 963 689 963 c 0,26,27
EndSplineSet
Validated: 1
EndChar

StartChar: q
Encoding: 113 113 84
Width: 1139
GlyphClass: 2
Flags: W
AnchorPoint: "Anchor21" 790 -400 basechar 0
AnchorPoint: "Anchor18" 1366 1840 basechar 0
AnchorPoint: "Anchor19" 0 1840 basechar 0
AnchorPoint: "Anchor16" 1139 1540 basechar 0
AnchorPoint: "Anchor17" 1139 -380 basechar 0
AnchorPoint: "Anchor15" 1010 1000 basechar 0
AnchorPoint: "Anchor14" 990 1100 basechar 0
AnchorPoint: "Anchor10" 600 1200 basechar 0
AnchorPoint: "Anchor11" 1080 1200 basechar 0
AnchorPoint: "Anchor12" 400 -540 basechar 0
LayerCount: 2
Fore
SplineSet
401 -21 m 0,0,1
 244 -21 244 -21 156.5 73.5 c 128,-1,2
 69 168 69 168 69 333 c 0,3,4
 69 536 69 536 130.5 726.5 c 128,-1,5
 192 917 192 917 303.5 1009 c 128,-1,6
 415 1101 415 1101 588 1101 c 0,7,8
 711 1101 711 1101 788.5 1049 c 128,-1,9
 866 997 866 997 898 903 c 1,10,-1
 903 903 l 1,11,12
 914 957 914 957 930 1021 c 128,-1,13
 946 1085 946 1085 952 1096 c 1,14,-1
 1125 1096 l 1,15,16
 1102 1018 1102 1018 1060 801 c 2,17,-1
 822 -425 l 1,18,-1
 642 -425 l 1,19,-1
 727 14 l 1,20,-1
 759 160 l 1,21,-1
 755 160 l 1,22,23
 682 65 682 65 601 22 c 128,-1,24
 520 -21 520 -21 401 -21 c 0,0,1
453 118 m 0,25,26
 552 118 552 118 622.5 158.5 c 128,-1,27
 693 199 693 199 742 280.5 c 128,-1,28
 791 362 791 362 819 484.5 c 128,-1,29
 847 607 847 607 847 704 c 0,30,31
 847 829 847 829 783.5 898.5 c 128,-1,32
 720 968 720 968 607 968 c 0,33,34
 485 968 485 968 414 895.5 c 128,-1,35
 343 823 343 823 300 658.5 c 128,-1,36
 257 494 257 494 257 365 c 0,37,38
 257 242 257 242 304 180 c 128,-1,39
 351 118 351 118 453 118 c 0,25,26
EndSplineSet
Validated: 1
EndChar

StartChar: r
Encoding: 114 114 85
Width: 682
GlyphClass: 2
Flags: W
AnchorPoint: "Anchor21" 160 0 basechar 0
AnchorPoint: "Anchor20" 110 0 basechar 0
AnchorPoint: "Anchor18" 1366 1840 basechar 0
AnchorPoint: "Anchor19" 0 1840 basechar 0
AnchorPoint: "Anchor16" 682 1540 basechar 0
AnchorPoint: "Anchor17" 682 -380 basechar 0
AnchorPoint: "Anchor15" 680 1000 basechar 0
AnchorPoint: "Anchor14" 640 1100 basechar 0
AnchorPoint: "Anchor10" 340 1580 basechar 0
AnchorPoint: "Anchor11" 420 1540 basechar 0
AnchorPoint: "Anchor12" 140 -130 basechar 0
LayerCount: 2
Fore
SplineSet
718 938 m 1,0,1
 674 951 674 951 628 951 c 0,2,3
 523 951 523 951 438.5 841 c 128,-1,4
 354 731 354 731 324 564 c 1,5,-1
 214 0 l 1,6,-1
 34 0 l 1,7,-1
 196 830 l 1,8,-1
 221 968 l 1,9,-1
 239 1082 l 1,10,-1
 409 1082 l 1,11,-1
 374 861 l 1,12,-1
 378 861 l 1,13,14
 444 994 444 994 508 1048 c 128,-1,15
 572 1102 572 1102 656 1102 c 0,16,17
 702 1102 702 1102 751 1088 c 1,18,-1
 718 938 l 1,0,1
EndSplineSet
Validated: 1
EndChar

StartChar: s
Encoding: 115 115 86
Width: 1024
GlyphClass: 2
Flags: W
AnchorPoint: "Anchor21" 550 0 basechar 0
AnchorPoint: "Anchor20" 390 0 basechar 0
AnchorPoint: "Anchor18" 1366 1840 basechar 0
AnchorPoint: "Anchor19" 0 1840 basechar 0
AnchorPoint: "Anchor16" 1024 1540 basechar 0
AnchorPoint: "Anchor17" 1024 -380 basechar 0
AnchorPoint: "Anchor15" 920 800 basechar 0
AnchorPoint: "Anchor14" 861 950 basechar 0
AnchorPoint: "Anchor10" 600 1200 basechar 0
AnchorPoint: "Anchor11" 940 1200 basechar 0
AnchorPoint: "Anchor12" 400 -130 basechar 0
LayerCount: 2
Fore
SplineSet
907 317 m 0,0,1
 907 155 907 155 783 67.5 c 128,-1,2
 659 -20 659 -20 425 -20 c 0,3,4
 251 -20 251 -20 148.5 38.5 c 128,-1,5
 46 97 46 97 5 223 c 1,6,-1
 152 279 l 1,7,8
 185 191 185 191 254.5 151 c 128,-1,9
 324 111 324 111 441 111 c 0,10,11
 584 111 584 111 658 159.5 c 128,-1,12
 732 208 732 208 732 301 c 0,13,14
 732 363 732 363 681 404.5 c 128,-1,15
 630 446 630 446 465 497 c 1,16,17
 337 539 337 539 273 579 c 128,-1,18
 209 619 209 619 175 672.5 c 128,-1,19
 141 726 141 726 141 797 c 0,20,21
 141 942 141 942 257 1020.5 c 128,-1,22
 373 1099 373 1099 584 1099 c 0,23,24
 938 1099 938 1099 982 844 c 1,25,-1
 819 819 l 1,26,27
 797 898 797 898 736 933 c 128,-1,28
 675 968 675 968 572 968 c 0,29,30
 448 968 448 968 381.5 928.5 c 128,-1,31
 315 889 315 889 315 817 c 0,32,33
 315 775 315 775 336 746 c 128,-1,34
 357 717 357 717 396.5 694.5 c 128,-1,35
 436 672 436 672 579 627 c 0,36,37
 706 587 706 587 770.5 546 c 128,-1,38
 835 505 835 505 871 449 c 128,-1,39
 907 393 907 393 907 317 c 0,0,1
EndSplineSet
Validated: 1
EndChar

StartChar: t
Encoding: 116 116 87
Width: 569
GlyphClass: 2
Flags: W
AnchorPoint: "Anchor21" 380 0 basechar 0
AnchorPoint: "Anchor20" 260 0 basechar 0
AnchorPoint: "Anchor18" 1366 1840 basechar 0
AnchorPoint: "Anchor19" 0 1840 basechar 0
AnchorPoint: "Anchor16" 569 1540 basechar 0
AnchorPoint: "Anchor17" 569 -380 basechar 0
AnchorPoint: "Anchor15" 450 1280 basechar 0
AnchorPoint: "Anchor14" 501 1100 basechar 0
AnchorPoint: "Anchor10" 360 1480 basechar 0
AnchorPoint: "Anchor11" 560 1480 basechar 0
AnchorPoint: "Anchor12" 280 -130 basechar 0
LayerCount: 2
Fore
SplineSet
275 -20 m 0,0,1
 190 -20 190 -20 141.5 31 c 128,-1,2
 93 82 93 82 93 166 c 0,3,4
 93 221 93 221 108 296 c 2,5,-1
 234 951 l 1,6,-1
 109 951 l 1,7,-1
 135 1082 l 1,8,-1
 262 1082 l 1,9,-1
 367 1324 l 1,10,-1
 487 1324 l 1,11,-1
 440 1082 l 1,12,-1
 640 1082 l 1,13,-1
 614 951 l 1,14,-1
 414 951 l 1,15,-1
 289 306 l 2,16,17
 277 246 277 246 277 211 c 0,18,19
 277 123 277 123 367 123 c 0,20,21
 409 123 409 123 467 137 c 1,22,-1
 448 4 l 1,23,24
 349 -20 349 -20 275 -20 c 0,0,1
EndSplineSet
Validated: 1
EndChar

StartChar: u
Encoding: 117 117 88
Width: 1139
GlyphClass: 2
Flags: W
AnchorPoint: "Anchor21" 850 0 basechar 0
AnchorPoint: "Anchor20" 400 0 basechar 0
AnchorPoint: "Anchor18" 1366 1840 basechar 0
AnchorPoint: "Anchor19" 0 1840 basechar 0
AnchorPoint: "Anchor16" 1139 1540 basechar 0
AnchorPoint: "Anchor17" 1139 -380 basechar 0
AnchorPoint: "Anchor15" 1010 1000 basechar 0
AnchorPoint: "Anchor14" 980 1100 basechar 0
AnchorPoint: "Anchor10" 640 1200 basechar 0
AnchorPoint: "Anchor11" 1000 1200 basechar 0
AnchorPoint: "Anchor12" 440 -130 basechar 0
LayerCount: 2
Fore
SplineSet
415 1082 m 1,0,-1
 289 437 l 2,1,2
 271 349 271 349 271 287 c 0,3,4
 271 120 271 120 450 120 c 0,5,6
 576 120 576 120 672 216 c 128,-1,7
 768 312 768 312 800 476 c 2,8,-1
 918 1082 l 1,9,-1
 1098 1082 l 1,10,-1
 932 231 l 1,11,12
 912 136 912 136 893 0 c 1,13,-1
 723 0 l 1,14,15
 723 11 723 11 733.5 77.5 c 128,-1,16
 744 144 744 144 751 185 c 1,17,-1
 748 185 l 1,18,19
 665 70 665 70 581.5 25.5 c 128,-1,20
 498 -19 498 -19 383 -19 c 0,21,22
 235 -19 235 -19 160.5 54 c 128,-1,23
 86 127 86 127 86 265 c 0,24,25
 86 329 86 329 107 429 c 1,26,-1
 234 1082 l 1,27,-1
 415 1082 l 1,0,-1
EndSplineSet
Validated: 1
EndChar

StartChar: v
Encoding: 118 118 89
Width: 1024
GlyphClass: 2
Flags: W
AnchorPoint: "Anchor21" 440 0 basechar 0
AnchorPoint: "Anchor18" 1366 1840 basechar 0
AnchorPoint: "Anchor19" 0 1840 basechar 0
AnchorPoint: "Anchor16" 1024 1540 basechar 0
AnchorPoint: "Anchor17" 1024 -380 basechar 0
AnchorPoint: "Anchor15" 1010 1000 basechar 0
AnchorPoint: "Anchor14" 950 1100 basechar 0
AnchorPoint: "Anchor10" 600 1200 basechar 0
AnchorPoint: "Anchor11" 940 1200 basechar 0
AnchorPoint: "Anchor12" 400 -130 basechar 0
LayerCount: 2
Fore
SplineSet
507 0 m 1,0,-1
 294 0 l 1,1,-1
 112 1082 l 1,2,-1
 299 1082 l 1,3,-1
 400 378 l 2,4,5
 409 310 409 310 419 194 c 1,6,-1
 423 141 l 1,7,-1
 449 194 l 2,8,9
 494 288 494 288 542 376 c 2,10,-1
 926 1082 l 1,11,-1
 1122 1082 l 1,12,-1
 507 0 l 1,0,-1
EndSplineSet
Validated: 1
EndChar

StartChar: w
Encoding: 119 119 90
Width: 1479
GlyphClass: 2
Flags: W
AnchorPoint: "Anchor21" 1000 0 basechar 0
AnchorPoint: "Anchor18" 1366 1840 basechar 0
AnchorPoint: "Anchor19" 0 1840 basechar 0
AnchorPoint: "Anchor16" 1479 1540 basechar 0
AnchorPoint: "Anchor17" 1479 -380 basechar 0
AnchorPoint: "Anchor15" 1460 1000 basechar 0
AnchorPoint: "Anchor14" 1420 1100 basechar 0
AnchorPoint: "Anchor10" 800 1540 basechar 0
AnchorPoint: "Anchor11" 1300 1540 basechar 0
AnchorPoint: "Anchor12" 640 -130 basechar 0
LayerCount: 2
Fore
SplineSet
1068 0 m 1,0,-1
 859 0 l 1,1,-1
 822 698 l 1,2,-1
 816 934 l 1,3,4
 786 859 786 859 762 802.5 c 128,-1,5
 738 746 738 746 402 0 c 1,6,-1
 194 0 l 1,7,-1
 102 1082 l 1,8,-1
 280 1082 l 1,9,-1
 320 347 l 1,10,-1
 327 149 l 1,11,-1
 408 339 l 1,12,-1
 749 1082 l 1,13,-1
 942 1082 l 1,14,-1
 986 339 l 2,15,16
 992 231 992 231 992 149 c 1,17,18
 1025 228 1025 228 1413 1082 c 1,19,-1
 1589 1082 l 1,20,-1
 1068 0 l 1,0,-1
EndSplineSet
Validated: 1
EndChar

StartChar: x
Encoding: 120 120 91
Width: 1024
GlyphClass: 2
Flags: W
AnchorPoint: "Anchor21" 820 0 basechar 0
AnchorPoint: "Anchor18" 1366 1840 basechar 0
AnchorPoint: "Anchor19" 0 1840 basechar 0
AnchorPoint: "Anchor16" 1024 1540 basechar 0
AnchorPoint: "Anchor17" 1024 -380 basechar 0
AnchorPoint: "Anchor15" 960 1000 basechar 0
AnchorPoint: "Anchor14" 880 1100 basechar 0
AnchorPoint: "Anchor10" 600 1200 basechar 0
AnchorPoint: "Anchor11" 940 1200 basechar 0
AnchorPoint: "Anchor12" 400 -130 basechar 0
LayerCount: 2
Fore
SplineSet
706 0 m 1,0,-1
 497 444 l 1,1,-1
 117 0 l 1,2,-1
 -82 0 l 1,3,-1
 410 556 l 1,4,-1
 146 1082 l 1,5,-1
 335 1082 l 1,6,-1
 528 661 l 1,7,-1
 878 1082 l 1,8,-1
 1084 1082 l 1,9,-1
 615 558 l 1,10,-1
 896 0 l 1,11,-1
 706 0 l 1,0,-1
EndSplineSet
Validated: 1
EndChar

StartChar: y
Encoding: 121 121 92
Width: 1024
GlyphClass: 2
Flags: W
AnchorPoint: "Anchor21" 140 -400 basechar 0
AnchorPoint: "Anchor18" 1366 1840 basechar 0
AnchorPoint: "Anchor19" 0 1840 basechar 0
AnchorPoint: "Anchor16" 1024 1540 basechar 0
AnchorPoint: "Anchor17" 1024 -380 basechar 0
AnchorPoint: "Anchor15" 1010 1000 basechar 0
AnchorPoint: "Anchor14" 960 1100 basechar 0
AnchorPoint: "Anchor10" 600 1200 basechar 0
AnchorPoint: "Anchor11" 1080 1200 basechar 0
AnchorPoint: "Anchor12" 360 -540 basechar 0
LayerCount: 2
Fore
SplineSet
16 -425 m 0,0,1
 -56 -425 -56 -425 -116 -411 c 1,2,-1
 -85 -277 l 1,3,4
 -40 -285 -40 -285 -8 -285 c 0,5,6
 87 -285 87 -285 159.5 -221 c 128,-1,7
 232 -157 232 -157 302 -35 c 2,8,-1
 329 12 l 1,9,-1
 112 1082 l 1,10,-1
 295 1082 l 1,11,-1
 407 484 l 2,12,13
 422 404 422 404 435 313.5 c 128,-1,14
 448 223 448 223 449 196 c 1,15,16
 459 218 459 218 475 250 c 128,-1,17
 491 282 491 282 928 1082 c 1,18,-1
 1127 1082 l 1,19,-1
 501 0 l 2,20,21
 390 -193 390 -193 322.5 -270.5 c 128,-1,22
 255 -348 255 -348 181.5 -386.5 c 128,-1,23
 108 -425 108 -425 16 -425 c 0,0,1
EndSplineSet
Validated: 1
EndChar

StartChar: z
Encoding: 122 122 93
Width: 1024
GlyphClass: 2
Flags: W
AnchorPoint: "Anchor21" 740 0 basechar 0
AnchorPoint: "Anchor18" 1366 1840 basechar 0
AnchorPoint: "Anchor19" 0 1840 basechar 0
AnchorPoint: "Anchor16" 1024 1540 basechar 0
AnchorPoint: "Anchor17" 1024 -380 basechar 0
AnchorPoint: "Anchor15" 920 1000 basechar 0
AnchorPoint: "Anchor14" 880 1100 basechar 0
AnchorPoint: "Anchor10" 600 1200 basechar 0
AnchorPoint: "Anchor11" 940 1200 basechar 0
AnchorPoint: "Anchor12" 400 -130 basechar 0
LayerCount: 2
Fore
SplineSet
-12 0 m 1,0,-1
 11 137 l 1,1,-1
 753 943 l 1,2,-1
 187 943 l 1,3,-1
 212 1082 l 1,4,-1
 996 1082 l 1,5,-1
 972 945 l 1,6,-1
 230 139 l 1,7,-1
 851 139 l 1,8,-1
 826 0 l 1,9,-1
 -12 0 l 1,0,-1
EndSplineSet
Validated: 1
EndChar

StartChar: braceleft
Encoding: 123 123 94
Width: 684
GlyphClass: 2
Flags: W
LayerCount: 2
Fore
SplineSet
366 -425 m 2,0,1
 255 -425 255 -425 189.5 -358.5 c 128,-1,2
 124 -292 124 -292 124 -175 c 0,3,4
 124 -113 124 -113 134 -58 c 2,5,-1
 190 229 l 2,6,7
 199 273 199 273 199 306 c 0,8,9
 199 389 199 389 152.5 425.5 c 128,-1,10
 106 462 106 462 21 466 c 1,11,-1
 46 593 l 1,12,13
 156 597 156 597 220 654.5 c 128,-1,14
 284 712 284 712 307 829 c 2,15,-1
 377 1191 l 2,16,17
 405 1334 405 1334 480.5 1409 c 128,-1,18
 556 1484 556 1484 698 1484 c 2,19,-1
 833 1484 l 1,20,-1
 808 1355 l 1,21,-1
 745 1355 l 2,22,23
 656 1355 656 1355 607.5 1308 c 128,-1,24
 559 1261 559 1261 535 1140 c 2,25,-1
 466 784 l 2,26,27
 447 689 447 689 381.5 621.5 c 128,-1,28
 316 554 316 554 223 532 c 1,29,-1
 223 530 l 1,30,31
 292 513 292 513 332.5 463 c 128,-1,32
 373 413 373 413 373 335 c 0,33,34
 373 308 373 308 367 276 c 2,35,-1
 306 -43 l 2,36,37
 301 -67 301 -67 297.5 -107.5 c 128,-1,38
 294 -148 294 -148 293 -165 c 1,39,-1
 293 -171 l 2,40,41
 293 -227 293 -227 327.5 -261.5 c 128,-1,42
 362 -296 362 -296 439 -296 c 2,43,-1
 487 -296 l 1,44,-1
 462 -425 l 1,45,-1
 366 -425 l 2,0,1
EndSplineSet
Validated: 1
EndChar

StartChar: bar
Encoding: 124 124 95
Width: 532
GlyphClass: 2
Flags: W
LayerCount: 2
Fore
SplineSet
213 -454 m 1,0,-1
 213 1484 l 1,1,-1
 379 1484 l 1,2,-1
 379 -454 l 1,3,-1
 213 -454 l 1,0,-1
EndSplineSet
Validated: 1
EndChar

StartChar: braceright
Encoding: 125 125 96
Width: 684
GlyphClass: 2
Flags: W
LayerCount: 2
Fore
SplineSet
308 1484 m 2,0,1
 419 1484 419 1484 484.5 1417.5 c 128,-1,2
 550 1351 550 1351 550 1234 c 0,3,4
 550 1172 550 1172 540 1117 c 2,5,-1
 484 830 l 2,6,7
 475 787 475 787 475 753 c 0,8,9
 475 670 475 670 521.5 633.5 c 128,-1,10
 568 597 568 597 653 593 c 1,11,-1
 628 466 l 1,12,13
 518 462 518 462 454 404.5 c 128,-1,14
 390 347 390 347 367 230 c 2,15,-1
 297 -132 l 2,16,17
 269 -275 269 -275 193.5 -350 c 128,-1,18
 118 -425 118 -425 -24 -425 c 2,19,-1
 -159 -425 l 1,20,-1
 -134 -296 l 1,21,-1
 -71 -296 l 2,22,23
 18 -296 18 -296 66.5 -249 c 128,-1,24
 115 -202 115 -202 139 -81 c 2,25,-1
 208 275 l 2,26,27
 227 370 227 370 292.5 437.5 c 128,-1,28
 358 505 358 505 451 527 c 1,29,-1
 451 529 l 1,30,31
 382 546 382 546 341.5 596 c 128,-1,32
 301 646 301 646 301 724 c 0,33,34
 301 752 301 752 307 783 c 2,35,-1
 368 1102 l 2,36,37
 373 1126 373 1126 376.5 1166.5 c 128,-1,38
 380 1207 380 1207 381 1224 c 1,39,-1
 381 1230 l 2,40,41
 381 1286 381 1286 346.5 1320.5 c 128,-1,42
 312 1355 312 1355 235 1355 c 2,43,-1
 187 1355 l 1,44,-1
 212 1484 l 1,45,-1
 308 1484 l 2,0,1
EndSplineSet
Validated: 1
EndChar

StartChar: asciitilde
Encoding: 126 126 97
Width: 1196
GlyphClass: 2
Flags: W
LayerCount: 2
Fore
SplineSet
874 553 m 0,0,1
 805 553 805 553 732.5 575 c 128,-1,2
 660 597 660 597 587 623 c 0,3,4
 458 668 458 668 370 668 c 0,5,6
 303 668 303 668 245 647.5 c 128,-1,7
 187 627 187 627 122 580 c 1,8,-1
 122 723 l 1,9,10
 233 807 233 807 385 807 c 0,11,12
 487 807 487 807 620 761 c 0,13,14
 767 710 767 710 810.5 700 c 128,-1,15
 854 690 854 690 890 690 c 0,16,17
 1020 690 1020 690 1134 782 c 1,18,-1
 1134 633 l 1,19,20
 1074 591 1074 591 1016.5 572 c 128,-1,21
 959 553 959 553 874 553 c 0,0,1
EndSplineSet
Validated: 1
EndChar

StartChar: dagger
Encoding: 8224 8224 130
Width: 1139
GlyphClass: 2
Flags: W
LayerCount: 2
Fore
SplineSet
732 1000 m 1,0,-1
 489 -138 l 1,1,-1
 374 -138 l 1,2,-1
 573 1000 l 1,3,-1
 216 973 l 1,4,-1
 248 1137 l 1,5,-1
 594 1108 l 1,6,-1
 639 1484 l 1,7,-1
 854 1484 l 1,8,-1
 753 1108 l 1,9,-1
 1112 1137 l 1,10,-1
 1080 973 l 1,11,-1
 732 1000 l 1,0,-1
EndSplineSet
Validated: 1
EndChar

StartChar: degree
Encoding: 176 176 131
Width: 819
GlyphClass: 2
Flags: W
LayerCount: 2
Fore
SplineSet
770 1145 m 256,0,1
 770 1026 770 1026 685.5 943 c 128,-1,2
 601 860 601 860 483 860 c 256,3,4
 365 860 365 860 280.5 944 c 128,-1,5
 196 1028 196 1028 196 1145 c 256,6,7
 196 1262 196 1262 279.5 1346 c 128,-1,8
 363 1430 363 1430 483 1430 c 256,9,10
 603 1430 603 1430 686.5 1347 c 128,-1,11
 770 1264 770 1264 770 1145 c 256,0,1
661 1145 m 0,12,13
 661 1221 661 1221 609.5 1273 c 128,-1,14
 558 1325 558 1325 483 1325 c 256,15,16
 408 1325 408 1325 356.5 1272 c 128,-1,17
 305 1219 305 1219 305 1145 c 256,18,19
 305 1071 305 1071 357.5 1018 c 128,-1,20
 410 965 410 965 483 965 c 0,21,22
 557 965 557 965 609 1017.5 c 128,-1,23
 661 1070 661 1070 661 1145 c 0,12,13
EndSplineSet
Validated: 1
EndChar

StartChar: cent
Encoding: 162 162 132
Width: 1139
GlyphClass: 2
Flags: W
HStem: 142 143<412.568 466 617 724.625> 1389 20G<707.327 836>
VStem: 158 184<360.212 839.985> 915 177<937.975 1046.56>
LayerCount: 2
Fore
SplineSet
466 142 m 5,0,1
 317 164 317 164 237.5 270.5 c 132,-1,2
 158 377 158 377 158 551 c 4,3,4
 158 687 158 687 196 823.5 c 132,-1,5
 234 960 234 960 299 1054 c 132,-1,6
 364 1148 364 1148 457 1199.5 c 132,-1,7
 550 1251 550 1251 682 1257 c 5,8,-1
 693 1311 l 5,9,-1
 711 1409 l 5,10,-1
 712 1409 l 5,11,-1
 835 1409 l 5,12,-1
 836 1409 l 5,13,-1
 818 1317 l 5,14,-1
 806 1251 l 5,15,16
 937 1232 937 1232 1010.5 1150 c 132,-1,17
 1084 1068 1084 1068 1092 940 c 5,18,-1
 915 915 l 5,19,20
 909 1012 909 1012 855 1064 c 4,21,22
 823 1095 823 1095 778 1108 c 5,23,-1
 617 283 l 5,24,25
 777 312 777 312 849 508 c 5,26,-1
 1005 459 l 5,27,28
 889 151 889 151 588 136 c 5,29,-1
 556 -31 l 5,30,-1
 432 -31 l 5,31,-1
 466 142 l 5,0,1
655 1113 m 5,32,33
 567 1102 567 1102 506 1050 c 4,34,35
 428 982 428 982 385 835 c 132,-1,36
 342 688 342 688 342 545 c 4,37,38
 342 322 342 322 494 285 c 5,39,-1
 655 1113 l 5,32,33
EndSplineSet
EndChar

StartChar: sterling
Encoding: 163 163 133
Width: 1139
GlyphClass: 2
Flags: W
LayerCount: 2
Fore
SplineSet
1075 310 m 1,0,1
 1038 158 1038 158 938 79 c 128,-1,2
 838 0 838 0 688 0 c 2,3,-1
 -12 0 l 1,4,-1
 17 154 l 1,5,6
 114 200 114 200 172.5 278.5 c 128,-1,7
 231 357 231 357 255 481 c 2,8,-1
 283 625 l 1,9,-1
 97 625 l 1,10,-1
 122 754 l 1,11,-1
 308 754 l 1,12,-1
 363 1034 l 2,13,14
 403 1239 403 1239 515.5 1334.5 c 128,-1,15
 628 1430 628 1430 816 1430 c 0,16,17
 964 1430 964 1430 1059.5 1367.5 c 128,-1,18
 1155 1305 1155 1305 1178 1200 c 1,19,-1
 1014 1150 l 1,20,21
 994 1214 994 1214 938 1248 c 128,-1,22
 882 1282 882 1282 809 1282 c 0,23,24
 695 1282 695 1282 631.5 1224.5 c 128,-1,25
 568 1167 568 1167 544 1042 c 2,26,-1
 488 754 l 1,27,-1
 896 754 l 1,28,-1
 871 625 l 1,29,-1
 463 625 l 1,30,-1
 436 478 l 2,31,32
 416 367 416 367 353.5 281 c 128,-1,33
 291 195 291 195 202 153 c 1,34,-1
 666 153 l 2,35,36
 769 153 769 153 833.5 195.5 c 128,-1,37
 898 238 898 238 924 334 c 1,38,-1
 1075 310 l 1,0,1
EndSplineSet
Validated: 1
EndChar

StartChar: section
Encoding: 167 167 134
Width: 1139
GlyphClass: 2
Flags: W
LayerCount: 2
Fore
SplineSet
1010 673 m 0,0,1
 1010 449 1010 449 736 388 c 1,2,3
 868 305 868 305 868 165 c 0,4,5
 868 3 868 3 744 -84.5 c 128,-1,6
 620 -172 620 -172 383 -172 c 0,7,8
 212 -172 212 -172 109 -113.5 c 128,-1,9
 6 -55 6 -55 -34 71 c 1,10,-1
 113 127 l 1,11,12
 146 39 146 39 215.5 -1 c 128,-1,13
 285 -41 285 -41 402 -41 c 0,14,15
 545 -41 545 -41 619 7.5 c 128,-1,16
 693 56 693 56 693 149 c 0,17,18
 693 212 693 212 640 255.5 c 128,-1,19
 587 299 587 299 427 348 c 0,20,21
 102 448 102 448 102 673 c 0,22,23
 102 783 102 783 172.5 855 c 128,-1,24
 243 927 243 927 378 957 c 1,25,26
 244 1042 244 1042 244 1182 c 0,27,28
 244 1327 244 1327 361 1405.5 c 128,-1,29
 478 1484 478 1484 695 1484 c 0,30,31
 1041 1484 1041 1484 1085 1229 c 1,32,-1
 922 1204 l 1,33,34
 881 1353 881 1353 688 1353 c 0,35,36
 418 1353 418 1353 418 1190 c 0,37,38
 418 1135 418 1135 471.5 1092 c 128,-1,39
 525 1049 525 1049 680 999 c 1,40,41
 862 942 862 942 936 862.5 c 128,-1,42
 1010 783 1010 783 1010 673 c 0,0,1
276 688 m 0,43,44
 276 619 276 619 337.5 566.5 c 128,-1,45
 399 514 399 514 550 468 c 1,46,47
 682 473 682 473 758.5 523.5 c 128,-1,48
 835 574 835 574 835 662 c 0,49,50
 835 713 835 713 806.5 750.5 c 128,-1,51
 778 788 778 788 724 817 c 128,-1,52
 670 846 670 846 533 886 c 1,53,54
 416 880 416 880 346 826 c 128,-1,55
 276 772 276 772 276 688 c 0,43,44
EndSplineSet
Validated: 1
EndChar

StartChar: bullet
Encoding: 8226 8226 135
Width: 717
GlyphClass: 2
Flags: W
LayerCount: 2
Fore
SplineSet
652 682 m 0,0,1
 652 565 652 565 568.5 483 c 128,-1,2
 485 401 485 401 371 401 c 0,3,4
 260 401 260 401 178.5 483 c 128,-1,5
 97 565 97 565 97 682 c 0,6,7
 97 797 97 797 178 876.5 c 128,-1,8
 259 956 259 956 371 956 c 0,9,10
 486 956 486 956 569 876.5 c 128,-1,11
 652 797 652 797 652 682 c 0,0,1
EndSplineSet
Validated: 1
EndChar

StartChar: paragraph
Encoding: 182 182 136
Width: 1100
GlyphClass: 2
Flags: W
LayerCount: 2
Fore
SplineSet
948 1307 m 1,0,-1
 948 -264 l 1,1,-1
 836 -264 l 1,2,-1
 836 1307 l 1,3,-1
 619 1307 l 1,4,-1
 619 -264 l 1,5,-1
 506 -264 l 1,6,-1
 506 694 l 1,7,8
 338 694 338 694 241 786.5 c 128,-1,9
 144 879 144 879 144 1049 c 0,10,11
 144 1218 144 1218 242.5 1313.5 c 128,-1,12
 341 1409 341 1409 514 1409 c 2,13,-1
 1077 1409 l 1,14,-1
 1077 1307 l 1,15,-1
 948 1307 l 1,0,-1
EndSplineSet
Validated: 1
EndChar

StartChar: germandbls
Encoding: 223 223 137
Width: 1251
GlyphClass: 2
Flags: W
AnchorPoint: "Anchor21" 830 0 basechar 0
AnchorPoint: "Anchor18" 1366 1840 basechar 0
AnchorPoint: "Anchor19" 0 1840 basechar 0
AnchorPoint: "Anchor16" 1251 1540 basechar 0
AnchorPoint: "Anchor17" 1251 -380 basechar 0
AnchorPoint: "Anchor10" 900 1540 basechar 0
AnchorPoint: "Anchor11" 1440 1540 basechar 0
AnchorPoint: "Anchor12" 500 -130 basechar 0
LayerCount: 2
Fore
SplineSet
34 0 m 1,0,-1
 234 1027 l 2,1,2
 281 1264 281 1264 411.5 1374 c 128,-1,3
 542 1484 542 1484 762 1484 c 0,4,5
 939 1484 939 1484 1045.5 1403 c 128,-1,6
 1152 1322 1152 1322 1152 1196 c 0,7,8
 1152 1045 1152 1045 997 940 c 0,9,10
 901 875 901 875 871.5 844 c 128,-1,11
 842 813 842 813 842 777 c 0,12,13
 842 737 842 737 873 694.5 c 128,-1,14
 904 652 904 652 983 579 c 0,15,16
 1123 448 1123 448 1123 308 c 0,17,18
 1123 149 1123 149 1015 60 c 128,-1,19
 907 -29 907 -29 714 -29 c 0,20,21
 628 -29 628 -29 546.5 -13 c 128,-1,22
 465 3 465 3 417 26 c 1,23,-1
 473 169 l 1,24,25
 589 115 589 115 719 115 c 0,26,27
 829 115 829 115 888 164.5 c 128,-1,28
 947 214 947 214 947 305 c 0,29,30
 947 361 947 361 915 412.5 c 128,-1,31
 883 464 883 464 809 529 c 0,32,33
 736 592 736 592 703 645.5 c 128,-1,34
 670 699 670 699 670 756 c 0,35,36
 670 832 670 832 708.5 889 c 128,-1,37
 747 946 747 946 823 991 c 0,38,39
 905 1039 905 1039 940 1083.5 c 128,-1,40
 975 1128 975 1128 975 1186 c 0,41,42
 975 1255 975 1255 915 1299 c 128,-1,43
 855 1343 855 1343 753 1343 c 0,44,45
 608 1343 608 1343 526 1263.5 c 128,-1,46
 444 1184 444 1184 412 1021 c 2,47,-1
 214 0 l 1,48,-1
 34 0 l 1,0,-1
EndSplineSet
Validated: 1
EndChar

StartChar: registered
Encoding: 174 174 138
Width: 1509
GlyphClass: 2
Flags: W
LayerCount: 2
Fore
SplineSet
1509 707 m 0,0,1
 1509 514 1509 514 1412.5 345.5 c 128,-1,2
 1316 177 1316 177 1147.5 80.5 c 128,-1,3
 979 -16 979 -16 786 -16 c 0,4,5
 589 -16 589 -16 419.5 84.5 c 128,-1,6
 250 185 250 185 156.5 351.5 c 128,-1,7
 63 518 63 518 63 707 c 0,8,9
 63 900 63 900 160 1068 c 128,-1,10
 257 1236 257 1236 425 1333 c 128,-1,11
 593 1430 593 1430 786 1430 c 0,12,13
 980 1430 980 1430 1148.5 1332.5 c 128,-1,14
 1317 1235 1317 1235 1413 1068 c 128,-1,15
 1509 901 1509 901 1509 707 c 0,0,1
1417 707 m 0,16,17
 1417 875 1417 875 1332.5 1020.5 c 128,-1,18
 1248 1166 1248 1166 1101.5 1250.5 c 128,-1,19
 955 1335 955 1335 786 1335 c 0,20,21
 618 1335 618 1335 472 1250.5 c 128,-1,22
 326 1166 326 1166 242 1020 c 128,-1,23
 158 874 158 874 158 707 c 0,24,25
 158 538 158 538 242.5 392 c 128,-1,26
 327 246 327 246 472 162 c 128,-1,27
 617 78 617 78 786 78 c 0,28,29
 956 78 956 78 1102.5 162.5 c 128,-1,30
 1249 247 1249 247 1333 392.5 c 128,-1,31
 1417 538 1417 538 1417 707 c 0,16,17
987 289 m 1,32,-1
 788 625 l 1,33,-1
 627 625 l 1,34,-1
 627 289 l 1,35,-1
 500 289 l 1,36,-1
 500 1120 l 1,37,-1
 807 1120 l 2,38,39
 949 1120 949 1120 1024.5 1057 c 128,-1,40
 1100 994 1100 994 1100 883 c 0,41,42
 1100 781 1100 781 1048 719.5 c 128,-1,43
 996 658 996 658 911 639 c 1,44,-1
 1132 289 l 1,45,-1
 987 289 l 1,32,-1
973 881 m 0,46,47
 973 950 973 950 925.5 986 c 128,-1,48
 878 1022 878 1022 797 1022 c 2,49,-1
 627 1022 l 1,50,-1
 627 721 l 1,51,-1
 809 721 l 2,52,53
 889 721 889 721 931 763.5 c 128,-1,54
 973 806 973 806 973 881 c 0,46,47
EndSplineSet
Validated: 1
EndChar

StartChar: copyright
Encoding: 169 169 139
Width: 1509
GlyphClass: 2
Flags: W
LayerCount: 2
Fore
SplineSet
1509 707 m 0,0,1
 1509 514 1509 514 1412.5 345.5 c 128,-1,2
 1316 177 1316 177 1147.5 80.5 c 128,-1,3
 979 -16 979 -16 786 -16 c 0,4,5
 589 -16 589 -16 419.5 84.5 c 128,-1,6
 250 185 250 185 156.5 351.5 c 128,-1,7
 63 518 63 518 63 707 c 0,8,9
 63 900 63 900 160 1068 c 128,-1,10
 257 1236 257 1236 425 1333 c 128,-1,11
 593 1430 593 1430 786 1430 c 0,12,13
 980 1430 980 1430 1148.5 1332.5 c 128,-1,14
 1317 1235 1317 1235 1413 1068 c 128,-1,15
 1509 901 1509 901 1509 707 c 0,0,1
1417 707 m 0,16,17
 1417 875 1417 875 1332.5 1020.5 c 128,-1,18
 1248 1166 1248 1166 1101.5 1250.5 c 128,-1,19
 955 1335 955 1335 786 1335 c 0,20,21
 618 1335 618 1335 472 1250.5 c 128,-1,22
 326 1166 326 1166 242 1020 c 128,-1,23
 158 874 158 874 158 707 c 0,24,25
 158 538 158 538 242.5 392 c 128,-1,26
 327 246 327 246 472 162 c 128,-1,27
 617 78 617 78 786 78 c 0,28,29
 956 78 956 78 1102.5 162.5 c 128,-1,30
 1249 247 1249 247 1333 392.5 c 128,-1,31
 1417 538 1417 538 1417 707 c 0,16,17
797 279 m 0,32,33
 609 279 609 279 505 392 c 128,-1,34
 401 505 401 505 401 709 c 0,35,36
 401 912 401 912 501 1022.5 c 128,-1,37
 601 1133 601 1133 790 1133 c 0,38,39
 1034 1133 1034 1133 1130 924 c 1,40,-1
 1016 891 l 1,41,42
 984 960 984 960 926 994 c 128,-1,43
 868 1028 868 1028 792 1028 c 0,44,45
 665 1028 665 1028 597.5 947.5 c 128,-1,46
 530 867 530 867 530 709 c 0,47,48
 530 554 530 554 601 468.5 c 128,-1,49
 672 383 672 383 797 383 c 0,50,51
 875 383 875 383 932.5 420.5 c 128,-1,52
 990 458 990 458 1030 539 c 1,53,-1
 1145 504 l 1,54,55
 1083 383 1083 383 998.5 331 c 128,-1,56
 914 279 914 279 797 279 c 0,32,33
EndSplineSet
Validated: 1
EndChar

StartChar: trademark
Encoding: 8482 8482 140
Width: 2048
GlyphClass: 2
Flags: W
LayerCount: 2
Fore
SplineSet
1691 634 m 1,0,-1
 1691 1253 l 1,1,-1
 1683 1231 l 1,2,-1
 1441 634 l 1,3,-1
 1333 634 l 1,4,-1
 1170 1047 l 1,5,-1
 1093 1253 l 1,6,-1
 1091 1217 l 1,7,-1
 1091 634 l 1,8,-1
 963 634 l 1,9,-1
 963 1409 l 1,10,-1
 1153 1409 l 1,11,-1
 1376 846 l 1,12,-1
 1391 804 l 1,13,-1
 1465 996 l 1,14,-1
 1633 1409 l 1,15,-1
 1817 1409 l 1,16,-1
 1817 634 l 1,17,-1
 1691 634 l 1,0,-1
577 1298 m 1,18,-1
 577 634 l 1,19,-1
 443 634 l 1,20,-1
 443 1298 l 1,21,-1
 188 1298 l 1,22,-1
 188 1409 l 1,23,-1
 838 1409 l 1,24,-1
 838 1298 l 1,25,-1
 577 1298 l 1,18,-1
EndSplineSet
Validated: 1
EndChar

StartChar: acute
Encoding: 180 180 141
Width: 682
GlyphClass: 2
Flags: W
LayerCount: 2
Fore
SplineSet
175 1201 m 1,0,-1
 178 1221 l 1,1,-1
 431 1508 l 1,2,-1
 648 1508 l 1,3,-1
 643 1479 l 1,4,-1
 269 1201 l 1,5,-1
 175 1201 l 1,0,-1
EndSplineSet
Validated: 1
EndChar

StartChar: dieresis
Encoding: 168 168 142
Width: 682
GlyphClass: 2
Flags: W
LayerCount: 2
Fore
SplineSet
521 1219 m 1,0,-1
 556 1403 l 1,1,-1
 729 1403 l 1,2,-1
 694 1219 l 1,3,-1
 521 1219 l 1,0,-1
137 1219 m 1,4,-1
 172 1403 l 1,5,-1
 347 1403 l 1,6,-1
 312 1219 l 1,7,-1
 137 1219 l 1,4,-1
EndSplineSet
Validated: 1
EndChar

StartChar: notequal
Encoding: 8800 8800 143
Width: 1124
GlyphClass: 2
Flags: W
LayerCount: 2
Fore
SplineSet
448 344 m 1,0,-1
 296 55 l 1,1,-1
 151 55 l 1,2,-1
 302 344 l 1,3,-1
 65 344 l 1,4,-1
 65 492 l 1,5,-1
 376 492 l 1,6,-1
 566 856 l 1,7,-1
 65 856 l 1,8,-1
 65 1004 l 1,9,-1
 638 1004 l 1,10,-1
 792 1296 l 1,11,-1
 935 1296 l 1,12,-1
 783 1004 l 1,13,-1
 1060 1004 l 1,14,-1
 1060 856 l 1,15,-1
 710 856 l 1,16,-1
 519 492 l 1,17,-1
 1060 492 l 1,18,-1
 1060 344 l 1,19,-1
 448 344 l 1,0,-1
EndSplineSet
Validated: 1
EndChar

StartChar: AE
Encoding: 198 198 144
Width: 2048
GlyphClass: 2
Flags: W
AnchorPoint: "Anchor21" 1780 0 basechar 0
AnchorPoint: "Anchor18" 1366 1840 basechar 0
AnchorPoint: "Anchor19" 0 1840 basechar 0
AnchorPoint: "Anchor16" 2048 1840 basechar 0
AnchorPoint: "Anchor17" 2048 -380 basechar 0
AnchorPoint: "Anchor10" 1400 1540 basechar 0
AnchorPoint: "Anchor11" 1980 1540 basechar 0
AnchorPoint: "Anchor12" 960 -130 basechar 0
LayerCount: 2
Fore
SplineSet
863 0 m 1,0,-1
 944 412 l 1,1,-1
 401 412 l 1,2,-1
 122 0 l 1,3,-1
 -81 0 l 1,4,-1
 878 1409 l 1,5,-1
 2067 1409 l 1,6,-1
 2037 1253 l 1,7,-1
 1298 1253 l 1,8,-1
 1210 801 l 1,9,-1
 1889 801 l 1,10,-1
 1859 647 l 1,11,-1
 1180 647 l 1,12,-1
 1085 156 l 1,13,-1
 1865 156 l 1,14,-1
 1834 0 l 1,15,-1
 863 0 l 1,0,-1
1109 1262 m 1,16,-1
 958 1262 l 1,17,-1
 822 1046 l 1,18,-1
 500 561 l 1,19,-1
 973 561 l 1,20,-1
 1109 1262 l 1,16,-1
EndSplineSet
Validated: 1
EndChar

StartChar: Oslash
Encoding: 216 216 145
Width: 1593
GlyphClass: 2
Flags: W
AnchorPoint: "Anchor21" 920 0 basechar 0
AnchorPoint: "Anchor18" 1366 1840 basechar 0
AnchorPoint: "Anchor19" 0 1840 basechar 0
AnchorPoint: "Anchor16" 1593 1540 basechar 0
AnchorPoint: "Anchor17" 1593 -380 basechar 0
AnchorPoint: "Anchor10" 900 1540 basechar 0
AnchorPoint: "Anchor11" 1380 1540 basechar 0
AnchorPoint: "Anchor12" 700 -130 basechar 0
LayerCount: 2
Fore
SplineSet
1423 1205 m 1,0,1
 1526 1060 1526 1060 1526 851 c 1,2,3
 1521 583 1521 583 1414 387.5 c 128,-1,4
 1307 192 1307 192 1121 86 c 128,-1,5
 935 -20 935 -20 699 -20 c 0,6,7
 447 -20 447 -20 294 104 c 1,8,-1
 133 -53 l 1,9,-1
 -56 -53 l 1,10,-1
 204 201 l 1,11,12
 101 350 101 350 101 573 c 0,13,14
 101 812 101 812 206.5 1012.5 c 128,-1,15
 312 1213 312 1213 501 1321.5 c 128,-1,16
 690 1430 690 1430 928 1430 c 0,17,18
 1176 1430 1176 1430 1332 1303 c 1,19,-1
 1499 1466 l 1,20,-1
 1691 1466 l 1,21,-1
 1423 1205 l 1,0,1
919 1276 m 0,22,23
 719 1276 719 1276 579.5 1187 c 128,-1,24
 440 1098 440 1098 366 921 c 128,-1,25
 292 744 292 744 292 563 c 0,26,27
 292 427 292 427 338 332 c 1,28,-1
 1208 1182 l 1,29,30
 1099 1276 1099 1276 919 1276 c 0,22,23
1335 847 m 0,31,32
 1335 980 1335 980 1289 1074 c 1,33,-1
 419 226 l 1,34,35
 524 135 524 135 708 135 c 0,36,37
 905 135 905 135 1043.5 221.5 c 128,-1,38
 1182 308 1182 308 1258.5 481 c 128,-1,39
 1335 654 1335 654 1335 847 c 0,31,32
EndSplineSet
Validated: 1
EndChar

StartChar: infinity
Encoding: 8734 8734 146
Width: 1460
GlyphClass: 2
Flags: W
LayerCount: 2
Fore
SplineSet
1391 590 m 0,0,1
 1391 424 1391 424 1303 313.5 c 128,-1,2
 1215 203 1215 203 1080 203 c 0,3,4
 877 203 877 203 745 485 c 1,5,6
 682 358 682 358 595 283.5 c 128,-1,7
 508 209 508 209 418 209 c 0,8,9
 279 209 279 209 192 314.5 c 128,-1,10
 105 420 105 420 105 596 c 0,11,12
 105 767 105 767 193.5 875 c 128,-1,13
 282 983 282 983 418 983 c 0,14,15
 619 983 619 983 747 700 c 1,16,17
 890 977 890 977 1082 977 c 0,18,19
 1222 977 1222 977 1306.5 870 c 128,-1,20
 1391 763 1391 763 1391 590 c 0,0,1
1058 846 m 0,21,22
 988 846 988 846 928.5 783 c 128,-1,23
 869 720 869 720 813 590 c 1,24,25
 864 462 864 462 923.5 398 c 128,-1,26
 983 334 983 334 1060 334 c 0,27,28
 1143 334 1143 334 1197.5 406.5 c 128,-1,29
 1252 479 1252 479 1252 592 c 0,30,31
 1252 699 1252 699 1197.5 772.5 c 128,-1,32
 1143 846 1143 846 1058 846 c 0,21,22
682 596 m 1,33,34
 631 724 631 724 571.5 788 c 128,-1,35
 512 852 512 852 434 852 c 0,36,37
 350 852 350 852 297.5 778.5 c 128,-1,38
 245 705 245 705 245 594 c 0,39,40
 245 482 245 482 297 411 c 128,-1,41
 349 340 349 340 436 340 c 0,42,43
 506 340 506 340 566 403 c 128,-1,44
 626 466 626 466 682 596 c 1,33,34
EndSplineSet
Validated: 1
EndChar

StartChar: plusminus
Encoding: 177 177 147
Width: 1124
GlyphClass: 2
Flags: W
LayerCount: 2
Fore
SplineSet
636 680 m 1,0,-1
 636 285 l 1,1,-1
 489 285 l 1,2,-1
 489 680 l 1,3,-1
 65 680 l 1,4,-1
 65 825 l 1,5,-1
 489 825 l 1,6,-1
 489 1219 l 1,7,-1
 636 1219 l 1,8,-1
 636 825 l 1,9,-1
 1060 825 l 1,10,-1
 1060 680 l 1,11,-1
 636 680 l 1,0,-1
65 0 m 1,12,-1
 65 145 l 1,13,-1
 1060 145 l 1,14,-1
 1060 0 l 1,15,-1
 65 0 l 1,12,-1
EndSplineSet
Validated: 1
EndChar

StartChar: lessequal
Encoding: 8804 8804 148
Width: 1124
GlyphClass: 2
Flags: W
LayerCount: 2
Fore
SplineSet
65 631 m 1,0,-1
 65 836 l 1,1,-1
 1060 1231 l 1,2,-1
 1060 1077 l 1,3,-1
 202 733 l 1,4,-1
 1060 389 l 1,5,-1
 1060 236 l 1,6,-1
 65 631 l 1,0,-1
63 0 m 1,7,-1
 63 145 l 1,8,-1
 1058 145 l 1,9,-1
 1058 0 l 1,10,-1
 63 0 l 1,7,-1
EndSplineSet
Validated: 1
EndChar

StartChar: greaterequal
Encoding: 8805 8805 149
Width: 1124
GlyphClass: 2
Flags: W
LayerCount: 2
Fore
SplineSet
65 236 m 1,0,-1
 65 389 l 1,1,-1
 923 733 l 1,2,-1
 65 1077 l 1,3,-1
 65 1231 l 1,4,-1
 1060 836 l 1,5,-1
 1060 631 l 1,6,-1
 65 236 l 1,0,-1
65 0 m 1,7,-1
 65 145 l 1,8,-1
 1060 145 l 1,9,-1
 1060 0 l 1,10,-1
 65 0 l 1,7,-1
EndSplineSet
Validated: 1
EndChar

StartChar: yen
Encoding: 165 165 150
Width: 1139
GlyphClass: 2
Flags: W
LayerCount: 2
Fore
SplineSet
745 709 m 1,0,-1
 1066 709 l 1,1,-1
 1042 584 l 1,2,-1
 659 584 l 1,3,-1
 629 430 l 1,4,-1
 1012 430 l 1,5,-1
 987 303 l 1,6,-1
 604 303 l 1,7,-1
 545 0 l 1,8,-1
 367 0 l 1,9,-1
 426 303 l 1,10,-1
 45 303 l 1,11,-1
 70 430 l 1,12,-1
 451 430 l 1,13,-1
 483 584 l 1,14,-1
 100 584 l 1,15,-1
 124 709 l 1,16,-1
 444 709 l 1,17,-1
 159 1409 l 1,18,-1
 352 1409 l 1,19,-1
 598 762 l 1,20,-1
 1098 1409 l 1,21,-1
 1303 1409 l 1,22,-1
 745 709 l 1,0,-1
EndSplineSet
Validated: 1
EndChar

StartChar: mu
Encoding: 181 181 151
Width: 1180
GlyphClass: 2
Flags: W
LayerCount: 2
Fore
SplineSet
-1 -425 m 1,0,-1
 292 1082 l 1,1,-1
 473 1082 l 1,2,-1
 339 396 l 1,3,4
 328 332 328 332 328 295 c 0,5,6
 328 119 328 119 490 119 c 0,7,8
 602 119 602 119 684.5 214 c 128,-1,9
 767 309 767 309 795 472 c 1,10,-1
 913 1082 l 1,11,-1
 1093 1082 l 1,12,-1
 936 275 l 1,13,14
 927 234 927 234 927 193 c 0,15,16
 927 121 927 121 984 121 c 0,17,18
 996 121 996 121 1040 129 c 1,19,-1
 1018 0 l 1,20,21
 946 -20 946 -20 895 -20 c 0,22,23
 821 -20 821 -20 790 28.5 c 128,-1,24
 759 77 759 77 759 169 c 1,25,-1
 757 169 l 1,26,27
 628 -20 628 -20 448 -20 c 0,28,29
 386 -20 386 -20 341 1 c 128,-1,30
 296 22 296 22 273 59 c 1,31,-1
 179 -425 l 1,32,-1
 -1 -425 l 1,0,-1
EndSplineSet
Validated: 1
EndChar

StartChar: partialdiff
Encoding: 8706 8706 152
Width: 1012
GlyphClass: 2
Flags: W
LayerCount: 2
Fore
SplineSet
954 938 m 0,0,1
 954 780 954 780 918 591.5 c 128,-1,2
 882 403 882 403 808.5 261.5 c 128,-1,3
 735 120 735 120 628 46.5 c 128,-1,4
 521 -27 521 -27 389 -27 c 0,5,6
 228 -27 228 -27 142 74.5 c 128,-1,7
 56 176 56 176 56 356 c 0,8,9
 56 522 56 522 119.5 681 c 128,-1,10
 183 840 183 840 286 922 c 128,-1,11
 389 1004 389 1004 515 1004 c 0,12,13
 599 1004 599 1004 665.5 954.5 c 128,-1,14
 732 905 732 905 764 821 c 1,15,-1
 768 821 l 1,16,-1
 772 938 l 1,17,18
 772 1134 772 1134 707 1238.5 c 128,-1,19
 642 1343 642 1343 513 1343 c 0,20,21
 461 1343 461 1343 400.5 1323.5 c 128,-1,22
 340 1304 340 1304 291 1268 c 1,23,-1
 327 1415 l 1,24,25
 440 1477 440 1477 552 1477 c 0,26,27
 747 1477 747 1477 850.5 1337 c 128,-1,28
 954 1197 954 1197 954 938 c 0,0,1
743 680 m 1,29,30
 726 768 726 768 671.5 825.5 c 128,-1,31
 617 883 617 883 548 883 c 0,32,33
 467 883 467 883 400 817 c 128,-1,34
 333 751 333 751 289.5 620.5 c 128,-1,35
 246 490 246 490 246 358 c 0,36,37
 246 243 246 243 291 176 c 128,-1,38
 336 109 336 109 418 109 c 0,39,40
 496 109 496 109 563.5 184.5 c 128,-1,41
 631 260 631 260 678.5 393.5 c 128,-1,42
 726 527 726 527 743 680 c 1,29,30
EndSplineSet
Validated: 1
EndChar

StartChar: summation
Encoding: 8721 8721 153
Width: 1460
GlyphClass: 2
Flags: W
LayerCount: 2
Fore
SplineSet
202 -455 m 1,0,-1
 202 -346 l 1,1,-1
 837 481 l 1,2,-1
 218 1303 l 1,3,-1
 218 1409 l 1,4,-1
 1308 1409 l 1,5,-1
 1308 1257 l 1,6,-1
 462 1257 l 1,7,-1
 1046 483 l 1,8,-1
 446 -303 l 1,9,-1
 1376 -303 l 1,10,-1
 1376 -455 l 1,11,-1
 202 -455 l 1,0,-1
EndSplineSet
Validated: 1
EndChar

StartChar: product
Encoding: 8719 8719 154
Width: 1686
GlyphClass: 2
Flags: W
LayerCount: 2
Fore
SplineSet
1284 -455 m 1,0,-1
 1284 1247 l 1,1,-1
 442 1247 l 1,2,-1
 442 -455 l 1,3,-1
 251 -455 l 1,4,-1
 251 1409 l 1,5,-1
 1468 1409 l 1,6,-1
 1468 -455 l 1,7,-1
 1284 -455 l 1,0,-1
EndSplineSet
Validated: 1
EndChar

StartChar: integral
Encoding: 8747 8747 155
Width: 561
GlyphClass: 2
Flags: W
LayerCount: 2
Fore
SplineSet
36 -455 m 0,0,1
 -43 -455 -43 -455 -98 -436 c 1,2,-1
 -98 -289 l 1,3,4
 -38 -313 -38 -313 19 -313 c 0,5,6
 191 -313 191 -313 191 -80 c 2,7,-1
 189 1153 l 2,8,9
 189 1325 189 1325 276 1416 c 128,-1,10
 363 1507 363 1507 529 1507 c 0,11,12
 616 1507 616 1507 660 1489 c 1,13,-1
 660 1341 l 1,14,15
 611 1368 611 1368 545 1368 c 0,16,17
 462 1368 462 1368 417.5 1308.5 c 128,-1,18
 373 1249 373 1249 373 1135 c 2,19,-1
 373 -100 l 2,20,21
 373 -272 373 -272 286 -363.5 c 128,-1,22
 199 -455 199 -455 36 -455 c 0,0,1
EndSplineSet
Validated: 1
EndChar

StartChar: ordfeminine
Encoding: 170 170 156
Width: 758
GlyphClass: 2
Flags: W
LayerCount: 2
Fore
SplineSet
723 657 m 0,0,1
 657 657 657 657 621.5 686.5 c 128,-1,2
 586 716 586 716 586 765 c 1,3,-1
 590 805 l 1,4,-1
 586 805 l 1,5,6
 520 720 520 720 455 685.5 c 128,-1,7
 390 651 390 651 311 651 c 0,8,9
 210 651 210 651 149.5 707 c 128,-1,10
 89 763 89 763 89 858 c 0,11,12
 89 1107 89 1107 453 1112 c 1,13,-1
 632 1116 l 1,14,15
 650 1206 650 1206 650 1229 c 0,16,17
 650 1331 650 1331 523 1331 c 0,18,19
 371 1331 371 1331 339 1196 c 1,20,-1
 207 1213 l 1,21,22
 265 1432 265 1432 525 1432 c 0,23,24
 652 1432 652 1432 721.5 1378.5 c 128,-1,25
 791 1325 791 1325 791 1233 c 0,26,27
 791 1194 791 1194 781 1149 c 1,28,-1
 728 874 l 2,29,30
 722 843 722 843 722 821 c 0,31,32
 722 766 722 766 770 766 c 0,33,34
 790 766 790 766 814 774 c 1,35,-1
 799 670 l 1,36,37
 762 657 762 657 723 657 c 0,0,1
614 1024 m 1,38,-1
 475 1020 l 2,39,40
 352 1017 352 1017 297.5 978.5 c 128,-1,41
 243 940 243 940 243 865 c 0,42,43
 243 818 243 818 272 790 c 128,-1,44
 301 762 301 762 352 762 c 0,45,46
 441 762 441 762 514 824.5 c 128,-1,47
 587 887 587 887 604 972 c 2,48,-1
 614 1024 l 1,38,-1
EndSplineSet
Validated: 1
EndChar

StartChar: ordmasculine
Encoding: 186 186 157
Width: 748
GlyphClass: 2
Flags: W
LayerCount: 2
Fore
SplineSet
403 651 m 0,0,1
 258 651 258 651 179.5 729.5 c 128,-1,2
 101 808 101 808 101 950 c 0,3,4
 101 1009 101 1009 114 1078 c 0,5,6
 182 1432 182 1432 520 1432 c 0,7,8
 665 1432 665 1432 743.5 1353.5 c 128,-1,9
 822 1275 822 1275 822 1133 c 0,10,11
 822 1074 822 1074 809 1005 c 0,12,13
 741 651 741 651 403 651 c 0,0,1
513 1325 m 0,14,15
 418 1325 418 1325 364 1277.5 c 128,-1,16
 310 1230 310 1230 279 1127 c 128,-1,17
 248 1024 248 1024 248 938 c 0,18,19
 248 758 248 758 408 758 c 0,20,21
 505 758 505 758 560 807.5 c 128,-1,22
 615 857 615 857 646.5 964 c 128,-1,23
 678 1071 678 1071 678 1154 c 0,24,25
 678 1248 678 1248 634.5 1286.5 c 128,-1,26
 591 1325 591 1325 513 1325 c 0,14,15
EndSplineSet
Validated: 1
EndChar

StartChar: Ohm
Encoding: 8486 8486 158
Width: 1573
GlyphClass: 2
Flags: W
LayerCount: 2
Fore
SplineSet
788 1430 m 256,0,1
 1091 1430 1091 1430 1264.5 1262.5 c 128,-1,2
 1438 1095 1438 1095 1438 801 c 0,3,4
 1438 600 1438 600 1330.5 430 c 128,-1,5
 1223 260 1223 260 1014 145 c 1,6,7
 1168 156 1168 156 1222 156 c 2,8,-1
 1466 156 l 1,9,-1
 1466 0 l 1,10,-1
 877 0 l 1,11,-1
 877 224 l 1,12,13
 1056 319 1056 319 1149.5 461.5 c 128,-1,14
 1243 604 1243 604 1243 788 c 0,15,16
 1243 1020 1243 1020 1124 1147 c 128,-1,17
 1005 1274 1005 1274 789 1274 c 0,18,19
 571 1274 571 1274 452 1147 c 128,-1,20
 333 1020 333 1020 333 788 c 0,21,22
 333 605 333 605 426 462.5 c 128,-1,23
 519 320 519 320 699 224 c 1,24,-1
 699 0 l 1,25,-1
 110 0 l 1,26,-1
 110 156 l 1,27,-1
 354 156 l 2,28,29
 408 156 408 156 562 145 c 1,30,31
 354 258 354 258 246 428.5 c 128,-1,32
 138 599 138 599 138 801 c 0,33,34
 138 1095 138 1095 311.5 1262.5 c 128,-1,35
 485 1430 485 1430 788 1430 c 256,0,1
EndSplineSet
Validated: 1
EndChar

StartChar: ae
Encoding: 230 230 159
Width: 1821
GlyphClass: 2
Flags: W
AnchorPoint: "Anchor21" 1360 0 basechar 0
AnchorPoint: "Anchor18" 1366 1840 basechar 0
AnchorPoint: "Anchor19" 0 1840 basechar 0
AnchorPoint: "Anchor16" 1821 1540 basechar 0
AnchorPoint: "Anchor17" 1821 -380 basechar 0
AnchorPoint: "Anchor14" 1620 900 basechar 0
AnchorPoint: "Anchor10" 960 1540 basechar 0
AnchorPoint: "Anchor11" 1640 1540 basechar 0
AnchorPoint: "Anchor12" 760 -130 basechar 0
LayerCount: 2
Fore
SplineSet
989 503 m 1,0,1
 983 468 983 468 980 390 c 1,2,3
 980 257 980 257 1041.5 186 c 128,-1,4
 1103 115 1103 115 1224 115 c 0,5,6
 1311 115 1311 115 1381.5 160.5 c 128,-1,7
 1452 206 1452 206 1496 294 c 1,8,-1
 1634 231 l 1,9,10
 1563 99 1563 99 1457 39.5 c 128,-1,11
 1351 -20 1351 -20 1202 -20 c 0,12,13
 1051 -20 1051 -20 956 50 c 128,-1,14
 861 120 861 120 826 248 c 1,15,16
 729 109 729 109 609 44.5 c 128,-1,17
 489 -20 489 -20 347 -20 c 0,18,19
 252 -20 252 -20 180.5 18 c 128,-1,20
 109 56 109 56 70.5 124.5 c 128,-1,21
 32 193 32 193 32 278 c 0,22,23
 32 463 32 463 167.5 557.5 c 128,-1,24
 303 652 303 652 601 657 c 1,25,-1
 839 660 l 1,26,27
 858 758 858 758 858 787 c 0,28,29
 858 965 858 965 650 965 c 0,30,31
 526 965 526 965 462.5 923 c 128,-1,32
 399 881 399 881 370 793 c 1,33,-1
 192 822 l 1,34,35
 239 969 239 969 354.5 1035.5 c 128,-1,36
 470 1102 470 1102 665 1102 c 0,37,38
 887 1102 887 1102 990 944 c 1,39,40
 1114 1102 1114 1102 1335 1102 c 0,41,42
 1530 1102 1530 1102 1638 998 c 128,-1,43
 1746 894 1746 894 1746 708 c 0,44,45
 1746 660 1746 660 1738.5 598.5 c 128,-1,46
 1731 537 1731 537 1723 503 c 1,47,-1
 989 503 l 1,0,1
814 534 m 1,48,-1
 608 530 l 1,49,50
 461 526 461 526 380.5 499 c 128,-1,51
 300 472 300 472 261.5 418.5 c 128,-1,52
 223 365 223 365 223 286 c 0,53,54
 223 209 223 209 269.5 163 c 128,-1,55
 316 117 316 117 394 117 c 0,56,57
 495 117 495 117 580.5 161.5 c 128,-1,58
 666 206 666 206 723.5 282.5 c 128,-1,59
 781 359 781 359 797 445 c 2,60,-1
 814 534 l 1,48,-1
1563 641 m 1,61,-1
 1567 713 l 1,62,63
 1567 837 1567 837 1508 903 c 128,-1,64
 1449 969 1449 969 1338 969 c 0,65,66
 1215 969 1215 969 1131 884 c 128,-1,67
 1047 799 1047 799 1013 641 c 1,68,-1
 1563 641 l 1,61,-1
EndSplineSet
Validated: 1
EndChar

StartChar: oslash
Encoding: 248 248 160
Width: 1251
GlyphClass: 2
Flags: W
AnchorPoint: "Anchor21" 680 0 basechar 0
AnchorPoint: "Anchor18" 1366 1840 basechar 0
AnchorPoint: "Anchor19" 0 1840 basechar 0
AnchorPoint: "Anchor16" 1139 1540 basechar 0
AnchorPoint: "Anchor17" 1139 -380 basechar 0
AnchorPoint: "Anchor14" 1000 900 basechar 0
AnchorPoint: "Anchor10" 720 1540 basechar 0
AnchorPoint: "Anchor11" 1280 1540 basechar 0
AnchorPoint: "Anchor12" 520 -130 basechar 0
LayerCount: 2
Fore
SplineSet
201 145 m 1,0,1
 125 254 125 254 125 419 c 1,2,3
 129 623 129 623 199 781 c 128,-1,4
 269 939 269 939 393 1020 c 128,-1,5
 517 1101 517 1101 700 1101 c 0,6,7
 862 1101 862 1101 967 1034 c 1,8,-1
 1037 1116 l 1,9,-1
 1204 1116 l 1,10,-1
 1058 947 l 1,11,12
 1132 844 1132 844 1132 683 c 0,13,14
 1132 577 1132 577 1106 467 c 0,15,16
 996 -15 996 -15 549 -15 c 0,17,18
 395 -15 395 -15 291 56 c 1,19,-1
 211 -38 l 1,20,-1
 44 -38 l 1,21,-1
 201 145 l 1,0,1
310 416 m 0,22,23
 310 343 310 343 325 289 c 1,24,-1
 865 916 l 1,25,26
 802 969 802 969 698 969 c 0,27,28
 563 969 563 969 481.5 899.5 c 128,-1,29
 400 830 400 830 355 689 c 128,-1,30
 310 548 310 548 310 416 c 0,22,23
946 683 m 1,31,32
 946 749 946 749 932 800 c 1,33,-1
 392 173 l 1,34,35
 455 118 455 118 560 118 c 0,36,37
 696 118 696 118 773.5 184.5 c 128,-1,38
 851 251 851 251 895.5 386.5 c 128,-1,39
 940 522 940 522 946 683 c 1,31,32
EndSplineSet
Validated: 1
EndChar

StartChar: questiondown
Encoding: 191 191 161
Width: 1251
GlyphClass: 2
Flags: W
LayerCount: 2
Fore
SplineSet
497 -347 m 0,0,1
 300 -347 300 -347 182.5 -247 c 128,-1,2
 65 -147 65 -147 65 10 c 0,3,4
 65 107 65 107 95.5 175.5 c 128,-1,5
 126 244 126 244 174.5 294.5 c 128,-1,6
 223 345 223 345 283.5 382.5 c 128,-1,7
 344 420 344 420 404 454 c 0,8,9
 531 526 531 526 580 582 c 128,-1,10
 629 638 629 638 643 706 c 1,11,-1
 818 706 l 1,12,13
 805 626 805 626 770 566.5 c 128,-1,14
 735 507 735 507 682.5 460 c 128,-1,15
 630 413 630 413 496 337 c 0,16,17
 391 278 391 278 345 236.5 c 128,-1,18
 299 195 299 195 275.5 146 c 128,-1,19
 252 97 252 97 252 31 c 0,20,21
 252 -67 252 -67 325 -127 c 128,-1,22
 398 -187 398 -187 514 -187 c 0,23,24
 654 -187 654 -187 745 -117 c 128,-1,25
 836 -47 836 -47 874 75 c 1,26,-1
 1039 35 l 1,27,28
 976 -160 976 -160 840.5 -253.5 c 128,-1,29
 705 -347 705 -347 497 -347 c 0,0,1
899 1083 m 1,30,-1
 860 882 l 1,31,-1
 665 882 l 1,32,-1
 704 1083 l 1,33,-1
 899 1083 l 1,30,-1
EndSplineSet
Validated: 1
EndChar

StartChar: exclamdown
Encoding: 161 161 162
Width: 682
GlyphClass: 2
Flags: W
LayerCount: 2
Fore
SplineSet
284 686 m 1,0,-1
 432 686 l 1,1,-1
 260 -326 l 1,2,-1
 64 -326 l 1,3,-1
 284 686 l 1,0,-1
536 1083 m 1,4,-1
 496 882 l 1,5,-1
 302 882 l 1,6,-1
 342 1083 l 1,7,-1
 536 1083 l 1,4,-1
EndSplineSet
Validated: 1
EndChar

StartChar: logicalnot
Encoding: 172 172 163
Width: 1196
GlyphClass: 2
Flags: W
LayerCount: 2
Fore
SplineSet
950 180 m 1,0,-1
 950 608 l 1,1,-1
 100 608 l 1,2,-1
 100 754 l 1,3,-1
 1095 754 l 1,4,-1
 1095 180 l 1,5,-1
 950 180 l 1,0,-1
EndSplineSet
Validated: 1
EndChar

StartChar: radical
Encoding: 8730 8730 164
Width: 1124
GlyphClass: 2
Flags: W
LayerCount: 2
Fore
SplineSet
622 -14 m 1,0,-1
 516 -14 l 1,1,-1
 233 778 l 1,2,-1
 51 778 l 1,3,-1
 51 895 l 1,4,-1
 321 895 l 1,5,-1
 563 205 l 1,6,-1
 993 1620 l 1,7,-1
 1122 1620 l 1,8,-1
 622 -14 l 1,0,-1
EndSplineSet
Validated: 1
EndChar

StartChar: florin
Encoding: 402 402 165
Width: 1139
GlyphClass: 2
Flags: W
AnchorPoint: "Anchor21" 430 -400 basechar 0
AnchorPoint: "Anchor18" 1366 1840 basechar 0
AnchorPoint: "Anchor19" 0 1840 basechar 0
AnchorPoint: "Anchor16" 1139 1540 basechar 0
AnchorPoint: "Anchor17" 1139 -380 basechar 0
AnchorPoint: "Anchor10" 600 1200 basechar 0
AnchorPoint: "Anchor11" 1080 1200 basechar 0
AnchorPoint: "Anchor12" 360 -540 basechar 0
LayerCount: 2
Fore
SplineSet
1028 1312 m 1,0,1
 977 1327 977 1327 918 1327 c 0,2,3
 858 1327 858 1327 826 1290 c 128,-1,4
 794 1253 794 1253 775 1159 c 1,5,-1
 749 1022 l 1,6,-1
 960 1022 l 1,7,-1
 935 891 l 1,8,-1
 722 891 l 1,9,-1
 464 -456 l 1,10,-1
 284 -456 l 1,11,-1
 542 891 l 1,12,-1
 390 891 l 1,13,-1
 417 1022 l 1,14,-1
 568 1022 l 1,15,-1
 597 1174 l 1,16,17
 628 1327 628 1327 702.5 1390.5 c 128,-1,18
 777 1454 777 1454 910 1454 c 0,19,20
 989 1454 989 1454 1059 1434 c 1,21,-1
 1028 1312 l 1,0,1
EndSplineSet
Validated: 1
EndChar

StartChar: approxequal
Encoding: 8776 8776 166
Width: 1124
GlyphClass: 2
Flags: W
LayerCount: 2
Fore
SplineSet
828 758 m 0,0,1
 759 758 759 758 686.5 779.5 c 128,-1,2
 614 801 614 801 541 827 c 1,3,4
 408 872 408 872 324 872 c 0,5,6
 261 872 261 872 204 853.5 c 128,-1,7
 147 835 147 835 76 784 c 1,8,-1
 76 928 l 1,9,10
 190 1012 190 1012 339 1012 c 0,11,12
 442 1012 442 1012 574 965 c 1,13,14
 682 925 682 925 739 909 c 128,-1,15
 796 893 796 893 844 893 c 0,16,17
 974 893 974 893 1088 987 c 1,18,-1
 1088 838 l 1,19,20
 1028 796 1028 796 970.5 777 c 128,-1,21
 913 758 913 758 828 758 c 0,0,1
828 336 m 0,22,23
 759 336 759 336 686.5 358 c 128,-1,24
 614 380 614 380 541 406 c 0,25,26
 408 453 408 453 324 453 c 0,27,28
 257 453 257 453 199 432.5 c 128,-1,29
 141 412 141 412 76 365 c 1,30,-1
 76 506 l 1,31,32
 187 590 187 590 339 590 c 0,33,34
 441 590 441 590 574 544 c 0,35,36
 721 493 721 493 764.5 483 c 128,-1,37
 808 473 808 473 844 473 c 0,38,39
 974 473 974 473 1088 565 c 1,40,-1
 1088 418 l 1,41,42
 1028 373 1028 373 969.5 354.5 c 128,-1,43
 911 336 911 336 828 336 c 0,22,23
EndSplineSet
Validated: 1
EndChar

StartChar: Delta
Encoding: 8710 8710 167
Width: 1253
GlyphClass: 2
Flags: W
LayerCount: 2
Fore
SplineSet
24 0 m 1,0,-1
 24 145 l 1,1,-1
 501 1409 l 1,2,-1
 745 1409 l 1,3,-1
 1228 147 l 1,4,-1
 1228 0 l 1,5,-1
 24 0 l 1,0,-1
624 1274 m 1,6,-1
 526 997 l 1,7,-1
 216 156 l 1,8,-1
 1036 156 l 1,9,-1
 722 997 l 1,10,-1
 624 1274 l 1,6,-1
EndSplineSet
Validated: 1
EndChar

StartChar: guillemotleft
Encoding: 171 171 168
Width: 1139
GlyphClass: 2
Flags: W
LayerCount: 2
Fore
SplineSet
818 141 m 1,0,-1
 551 506 l 1,1,-1
 563 569 l 1,2,-1
 973 940 l 1,3,-1
 1131 940 l 1,4,-1
 1125 903 l 1,5,-1
 715 531 l 1,6,-1
 983 164 l 1,7,-1
 978 141 l 1,8,-1
 818 141 l 1,0,-1
341 141 m 1,9,-1
 76 506 l 1,10,-1
 88 569 l 1,11,-1
 496 940 l 1,12,-1
 653 940 l 1,13,-1
 647 902 l 1,14,-1
 240 530 l 1,15,-1
 505 163 l 1,16,-1
 500 141 l 1,17,-1
 341 141 l 1,9,-1
EndSplineSet
Validated: 1
EndChar

StartChar: guillemotright
Encoding: 187 187 169
Width: 1139
GlyphClass: 2
Flags: W
LayerCount: 2
Fore
SplineSet
640 141 m 1,0,-1
 482 141 l 1,1,-1
 489 180 l 1,2,-1
 899 547 l 1,3,-1
 635 919 l 1,4,-1
 639 940 l 1,5,-1
 795 940 l 1,6,-1
 1061 569 l 1,7,-1
 1049 506 l 1,8,-1
 640 141 l 1,0,-1
165 141 m 1,9,-1
 5 141 l 1,10,-1
 12 180 l 1,11,-1
 422 547 l 1,12,-1
 158 919 l 1,13,-1
 162 940 l 1,14,-1
 320 940 l 1,15,-1
 583 569 l 1,16,-1
 571 506 l 1,17,-1
 165 141 l 1,9,-1
EndSplineSet
Validated: 1
EndChar

StartChar: ellipsis
Encoding: 8230 8230 170
Width: 2048
GlyphClass: 2
Flags: W
LayerCount: 2
Fore
SplineSet
1484 0 m 1,0,-1
 1527 219 l 1,1,-1
 1721 219 l 1,2,-1
 1678 0 l 1,3,-1
 1484 0 l 1,0,-1
837 0 m 1,4,-1
 880 219 l 1,5,-1
 1072 219 l 1,6,-1
 1029 0 l 1,7,-1
 837 0 l 1,4,-1
186 0 m 1,8,-1
 229 219 l 1,9,-1
 424 219 l 1,10,-1
 381 0 l 1,11,-1
 186 0 l 1,8,-1
EndSplineSet
Validated: 1
EndChar

StartChar: OE
Encoding: 338 338 174
Width: 2048
GlyphClass: 2
Flags: W
AnchorPoint: "Anchor21" 1800 0 basechar 0
AnchorPoint: "Anchor18" 1366 1840 basechar 0
AnchorPoint: "Anchor19" 0 1840 basechar 0
AnchorPoint: "Anchor16" 2048 1840 basechar 0
AnchorPoint: "Anchor17" 2048 -380 basechar 0
AnchorPoint: "Anchor10" 1200 1540 basechar 0
AnchorPoint: "Anchor11" 1960 1540 basechar 0
AnchorPoint: "Anchor12" 920 -130 basechar 0
LayerCount: 2
Fore
SplineSet
893 0 m 1,0,1
 817 -10 817 -10 702 -10 c 0,2,3
 420 -10 420 -10 260.5 146 c 128,-1,4
 101 302 101 302 101 573 c 0,5,6
 101 819 101 819 207.5 1013.5 c 128,-1,7
 314 1208 314 1208 501.5 1314 c 128,-1,8
 689 1420 689 1420 925 1420 c 0,9,10
 1045 1420 1045 1420 1194 1409 c 1,11,-1
 2067 1409 l 1,12,-1
 2037 1253 l 1,13,-1
 1327 1253 l 1,14,-1
 1239 801 l 1,15,-1
 1889 801 l 1,16,-1
 1859 647 l 1,17,-1
 1209 647 l 1,18,-1
 1114 156 l 1,19,-1
 1865 156 l 1,20,-1
 1835 0 l 1,21,-1
 893 0 l 1,0,1
712 145 m 0,22,23
 841 145 841 145 923 156 c 1,24,-1
 1136 1255 l 1,25,26
 1052 1266 1052 1266 915 1266 c 0,27,28
 720 1266 720 1266 580.5 1180 c 128,-1,29
 441 1094 441 1094 366.5 924 c 128,-1,30
 292 754 292 754 292 563 c 0,31,32
 292 360 292 360 401.5 252.5 c 128,-1,33
 511 145 511 145 712 145 c 0,22,23
EndSplineSet
Validated: 1
EndChar

StartChar: oe
Encoding: 339 339 175
Width: 1933
GlyphClass: 2
Flags: W
AnchorPoint: "Anchor21" 1460 0 basechar 0
AnchorPoint: "Anchor18" 1366 1840 basechar 0
AnchorPoint: "Anchor19" 0 1840 basechar 0
AnchorPoint: "Anchor16" 1933 1540 basechar 0
AnchorPoint: "Anchor17" 1933 -380 basechar 0
AnchorPoint: "Anchor14" 1720 900 basechar 0
AnchorPoint: "Anchor10" 1020 1200 basechar 0
AnchorPoint: "Anchor11" 1780 1260 basechar 0
AnchorPoint: "Anchor12" 880 -130 basechar 0
LayerCount: 2
Fore
SplineSet
1055 503 m 1,0,1
 1044 452 1044 452 1044 390 c 0,2,3
 1044 257 1044 257 1110.5 186 c 128,-1,4
 1177 115 1177 115 1311 115 c 0,5,6
 1407 115 1407 115 1484.5 162 c 128,-1,7
 1562 209 1562 209 1607 294 c 1,8,-1
 1745 231 l 1,9,10
 1671 98 1671 98 1559 39 c 128,-1,11
 1447 -20 1447 -20 1290 -20 c 0,12,13
 1022 -20 1022 -20 917 173 c 1,14,15
 770 -15 770 -15 491 -15 c 0,16,17
 292 -15 292 -15 180.5 101 c 128,-1,18
 69 217 69 217 69 419 c 1,19,20
 73 621 73 621 142.5 779.5 c 128,-1,21
 212 938 212 938 336 1019.5 c 128,-1,22
 460 1101 460 1101 642 1101 c 0,23,24
 923 1101 923 1101 1024 909 c 1,25,26
 1100 1002 1100 1002 1203 1052 c 128,-1,27
 1306 1102 1306 1102 1427 1102 c 0,28,29
 1631 1102 1631 1102 1744 999 c 128,-1,30
 1857 896 1857 896 1857 708 c 0,31,32
 1857 603 1857 603 1833 503 c 1,33,-1
 1055 503 l 1,0,1
888 683 m 1,34,35
 888 969 888 969 640 969 c 0,36,37
 505 969 505 969 424 898.5 c 128,-1,38
 343 828 343 828 298.5 687 c 128,-1,39
 254 546 254 546 254 416 c 0,40,41
 254 118 254 118 502 118 c 0,42,43
 638 118 638 118 715.5 184.5 c 128,-1,44
 793 251 793 251 837.5 386.5 c 128,-1,45
 882 522 882 522 888 683 c 1,34,35
1674 641 m 1,46,-1
 1678 713 l 1,47,48
 1678 837 1678 837 1615.5 903 c 128,-1,49
 1553 969 1553 969 1431 969 c 0,50,51
 1297 969 1297 969 1205.5 883.5 c 128,-1,52
 1114 798 1114 798 1077 641 c 1,53,-1
 1674 641 l 1,46,-1
EndSplineSet
Validated: 1
EndChar

StartChar: endash
Encoding: 8211 8211 176
Width: 1139
GlyphClass: 2
Flags: W
LayerCount: 2
Fore
SplineSet
-13 451 m 1,0,-1
 13 588 l 1,1,-1
 1151 588 l 1,2,-1
 1124 451 l 1,3,-1
 -13 451 l 1,0,-1
EndSplineSet
Validated: 1
EndChar

StartChar: emdash
Encoding: 8212 8212 177
Width: 2048
GlyphClass: 2
Flags: W
LayerCount: 2
Fore
SplineSet
-13 451 m 1,0,-1
 13 588 l 1,1,-1
 2061 588 l 1,2,-1
 2034 451 l 1,3,-1
 -13 451 l 1,0,-1
EndSplineSet
Validated: 1
EndChar

StartChar: quotedblleft
Encoding: 8220 8220 178
Width: 682
GlyphClass: 2
Flags: W
LayerCount: 2
Fore
SplineSet
480 952 m 1,0,-1
 508 1098 l 2,1,2
 526 1191 526 1191 558.5 1266 c 128,-1,3
 591 1341 591 1341 647 1409 c 1,4,-1
 769 1409 l 1,5,6
 649 1272 649 1272 624 1147 c 1,7,-1
 712 1147 l 1,8,-1
 674 952 l 1,9,-1
 480 952 l 1,0,-1
148 952 m 1,10,-1
 176 1098 l 2,11,12
 194 1194 194 1194 227.5 1267 c 128,-1,13
 261 1340 261 1340 317 1409 c 1,14,-1
 438 1409 l 1,15,16
 317 1274 317 1274 292 1147 c 1,17,-1
 381 1147 l 1,18,-1
 343 952 l 1,19,-1
 148 952 l 1,10,-1
EndSplineSet
Validated: 1
EndChar

StartChar: quotedblright
Encoding: 8221 8221 179
Width: 682
GlyphClass: 2
Flags: W
LayerCount: 2
Fore
SplineSet
590 952 m 1,0,-1
 469 952 l 1,1,2
 589 1089 589 1089 614 1214 c 1,3,-1
 526 1214 l 1,4,-1
 564 1409 l 1,5,-1
 758 1409 l 1,6,-1
 730 1264 l 2,7,8
 712 1171 712 1171 680.5 1098 c 128,-1,9
 649 1025 649 1025 590 952 c 1,0,-1
260 952 m 1,10,-1
 137 952 l 1,11,12
 257 1089 257 1089 282 1214 c 1,13,-1
 194 1214 l 1,14,-1
 232 1409 l 1,15,-1
 427 1409 l 1,16,-1
 399 1264 l 2,17,18
 381 1169 381 1169 348 1094.5 c 128,-1,19
 315 1020 315 1020 260 952 c 1,10,-1
EndSplineSet
Validated: 1
EndChar

StartChar: quoteleft
Encoding: 8216 8216 180
Width: 455
GlyphClass: 2
Flags: W
LayerCount: 2
Fore
SplineSet
199 952 m 1,0,-1
 227 1098 l 2,1,2
 245 1194 245 1194 278.5 1267 c 128,-1,3
 312 1340 312 1340 368 1409 c 1,4,-1
 489 1409 l 1,5,6
 368 1274 368 1274 343 1147 c 1,7,-1
 432 1147 l 1,8,-1
 394 952 l 1,9,-1
 199 952 l 1,0,-1
EndSplineSet
Validated: 1
EndChar

StartChar: quoteright
Encoding: 8217 8217 181
Width: 455
GlyphClass: 2
Flags: W
LayerCount: 2
Fore
SplineSet
315 952 m 1,0,-1
 192 952 l 1,1,2
 311 1088 311 1088 337 1212 c 1,3,-1
 249 1212 l 1,4,-1
 287 1409 l 1,5,-1
 482 1409 l 1,6,-1
 454 1264 l 2,7,8
 436 1169 436 1169 403 1094.5 c 128,-1,9
 370 1020 370 1020 315 952 c 1,0,-1
EndSplineSet
Validated: 1
EndChar

StartChar: divide
Encoding: 247 247 182
Width: 1124
GlyphClass: 2
Flags: W
LayerCount: 2
Fore
SplineSet
495 958 m 1,0,-1
 495 1141 l 1,1,-1
 663 1141 l 1,2,-1
 663 958 l 1,3,-1
 495 958 l 1,0,-1
82 608 m 1,4,-1
 82 754 l 1,5,-1
 1077 754 l 1,6,-1
 1077 608 l 1,7,-1
 82 608 l 1,4,-1
495 223 m 1,8,-1
 495 406 l 1,9,-1
 663 406 l 1,10,-1
 663 223 l 1,11,-1
 495 223 l 1,8,-1
EndSplineSet
Validated: 1
EndChar

StartChar: lozenge
Encoding: 9674 9674 183
Width: 1012
GlyphClass: 2
Flags: W
LayerCount: 2
Fore
SplineSet
576 0 m 1,0,-1
 494 0 l 1,1,-1
 37 719 l 1,2,-1
 494 1440 l 1,3,-1
 576 1440 l 1,4,-1
 1035 721 l 1,5,-1
 576 0 l 1,0,-1
537 1286 m 1,6,-1
 183 721 l 1,7,-1
 537 147 l 1,8,-1
 889 721 l 1,9,-1
 537 1286 l 1,6,-1
EndSplineSet
Validated: 1
EndChar

StartChar: fraction
Encoding: 8260 8260 186
Width: 342
GlyphClass: 2
Flags: W
LayerCount: 2
Fore
SplineSet
-404 0 m 1,0,-1
 -557 0 l 1,1,-1
 593 1409 l 1,2,-1
 747 1409 l 1,3,-1
 -404 0 l 1,0,-1
EndSplineSet
Validated: 1
EndChar

StartChar: Euro
Encoding: 8364 8364 187
Width: 1139
GlyphClass: 2
Flags: W
LayerCount: 2
Fore
SplineSet
816 1283 m 2,0,1
 714 1283 714 1283 647 1245.5 c 128,-1,2
 580 1208 580 1208 525.5 1129.5 c 128,-1,3
 471 1051 471 1051 433 922 c 1,4,-1
 897 922 l 1,5,-1
 832 795 l 1,6,-1
 402 795 l 1,7,8
 383 699 383 699 377 631 c 1,9,-1
 840 631 l 1,10,-1
 775 502 l 1,11,-1
 371 502 l 1,12,13
 373 318 373 318 439.5 221.5 c 128,-1,14
 506 125 506 125 630 125 c 0,15,16
 736 125 736 125 802.5 177.5 c 128,-1,17
 869 230 869 230 911 327 c 1,18,-1
 1063 279 l 1,19,20
 1003 133 1003 133 890.5 57.5 c 128,-1,21
 778 -18 778 -18 619 -18 c 0,22,23
 420 -18 420 -18 307 118 c 128,-1,24
 194 254 194 254 190 502 c 1,25,-1
 19 502 l 1,26,-1
 83 631 l 1,27,-1
 195 631 l 1,28,29
 199 681 199 681 208.5 734.5 c 128,-1,30
 218 788 218 788 221 795 c 1,31,-1
 75 795 l 1,32,-1
 140 922 l 1,33,-1
 253 922 l 1,34,35
 331 1179 331 1179 478.5 1304 c 128,-1,36
 626 1429 626 1429 831 1430 c 0,37,38
 995 1430 995 1430 1097.5 1352.5 c 128,-1,39
 1200 1275 1200 1275 1228 1126 c 1,40,-1
 1057 1091 l 1,41,42
 1003 1279 1003 1279 825 1283 c 1,43,-1
 816 1283 l 2,0,1
EndSplineSet
Validated: 1
EndChar

StartChar: guilsinglleft
Encoding: 8249 8249 188
Width: 682
GlyphClass: 2
Flags: W
LayerCount: 2
Fore
SplineSet
351 141 m 1,0,-1
 86 506 l 1,1,-1
 98 569 l 1,2,-1
 506 940 l 1,3,-1
 663 940 l 1,4,-1
 654 900 l 1,5,-1
 247 528 l 1,6,-1
 512 161 l 1,7,-1
 510 141 l 1,8,-1
 351 141 l 1,0,-1
EndSplineSet
Validated: 1
EndChar

StartChar: guilsinglright
Encoding: 8250 8250 189
Width: 682
GlyphClass: 2
Flags: W
LayerCount: 2
Fore
SplineSet
174 141 m 1,0,-1
 16 141 l 1,1,-1
 24 180 l 1,2,-1
 434 547 l 1,3,-1
 170 919 l 1,4,-1
 173 940 l 1,5,-1
 329 940 l 1,6,-1
 594 569 l 1,7,-1
 582 506 l 1,8,-1
 174 141 l 1,0,-1
EndSplineSet
Validated: 1
EndChar

StartChar: daggerdbl
Encoding: 8225 8225 190
Width: 1139
GlyphClass: 2
Flags: W
LayerCount: 2
Fore
SplineSet
583 1000 m 1,0,-1
 218 973 l 1,1,-1
 250 1137 l 1,2,-1
 604 1108 l 1,3,-1
 661 1484 l 1,4,-1
 836 1484 l 1,5,-1
 747 1108 l 1,6,-1
 1114 1137 l 1,7,-1
 1082 973 l 1,8,-1
 726 1000 l 1,9,-1
 636 670 l 1,10,-1
 599 343 l 1,11,-1
 964 370 l 1,12,-1
 932 206 l 1,13,-1
 578 235 l 1,14,-1
 520 -141 l 1,15,-1
 345 -141 l 1,16,-1
 435 235 l 1,17,-1
 68 206 l 1,18,-1
 100 370 l 1,19,-1
 456 343 l 1,20,-1
 545 670 l 1,21,-1
 583 1000 l 1,0,-1
EndSplineSet
Validated: 1
EndChar

StartChar: bulletoperator
Encoding: 8729 8729 191
Width: 569
GlyphClass: 2
Flags: W
LayerCount: 2
Fore
SplineSet
165 446 m 1,0,-1
 208 666 l 1,1,-1
 403 666 l 1,2,-1
 360 446 l 1,3,-1
 165 446 l 1,0,-1
EndSplineSet
Validated: 1
EndChar

StartChar: quotesinglbase
Encoding: 8218 8218 192
Width: 455
GlyphClass: 2
Flags: W
LayerCount: 2
Fore
SplineSet
117 -260 m 1,0,-1
 -6 -260 l 1,1,2
 113 -124 113 -124 139 0 c 1,3,-1
 51 0 l 1,4,-1
 89 197 l 1,5,-1
 284 197 l 1,6,-1
 256 52 l 2,7,8
 238 -41 238 -41 205.5 -116 c 128,-1,9
 173 -191 173 -191 117 -260 c 1,0,-1
EndSplineSet
Validated: 1
EndChar

StartChar: quotedblbase
Encoding: 8222 8222 193
Width: 682
GlyphClass: 2
Flags: W
LayerCount: 2
Fore
SplineSet
382 -262 m 1,0,-1
 261 -262 l 1,1,2
 381 -125 381 -125 406 0 c 1,3,-1
 318 0 l 1,4,-1
 356 195 l 1,5,-1
 550 195 l 1,6,-1
 522 50 l 2,7,8
 505 -41 505 -41 473.5 -114.5 c 128,-1,9
 442 -188 442 -188 382 -262 c 1,0,-1
52 -262 m 1,10,-1
 -71 -262 l 1,11,12
 49 -125 49 -125 74 0 c 1,13,-1
 -14 0 l 1,14,-1
 24 195 l 1,15,-1
 219 195 l 1,16,-1
 191 50 l 2,17,18
 173 -43 173 -43 140.5 -118 c 128,-1,19
 108 -193 108 -193 52 -262 c 1,10,-1
EndSplineSet
Validated: 1
EndChar

StartChar: perthousand
Encoding: 8240 8240 194
Width: 2048
GlyphClass: 2
Flags: W
LayerCount: 2
Fore
SplineSet
509 1421 m 0,0,1
 628 1421 628 1421 690 1356 c 128,-1,2
 752 1291 752 1291 752 1172 c 0,3,4
 752 1085 752 1085 726 992 c 128,-1,5
 700 899 700 899 648.5 832.5 c 128,-1,6
 597 766 597 766 526.5 730.5 c 128,-1,7
 456 695 456 695 378 695 c 0,8,9
 262 695 262 695 198 762 c 128,-1,10
 134 829 134 829 134 952 c 0,11,12
 134 1070 134 1070 176.5 1183 c 128,-1,13
 219 1296 219 1296 304 1358.5 c 128,-1,14
 389 1421 389 1421 509 1421 c 0,0,1
505 1313 m 0,15,16
 424 1313 424 1313 376 1266.5 c 128,-1,17
 328 1220 328 1220 300 1121.5 c 128,-1,18
 272 1023 272 1023 272 950 c 0,19,20
 272 808 272 808 385 808 c 0,21,22
 463 808 463 808 512 859.5 c 128,-1,23
 561 911 561 911 587 1008.5 c 128,-1,24
 613 1106 613 1106 613 1177 c 0,25,26
 613 1313 613 1313 505 1313 c 0,15,16
1093 714 m 0,27,28
 1212 714 1212 714 1274 649 c 128,-1,29
 1336 584 1336 584 1336 465 c 0,30,31
 1336 378 1336 378 1310 285 c 128,-1,32
 1284 192 1284 192 1232.5 125.5 c 128,-1,33
 1181 59 1181 59 1110.5 23.5 c 128,-1,34
 1040 -12 1040 -12 962 -12 c 0,35,36
 846 -12 846 -12 782 55 c 128,-1,37
 718 122 718 122 718 245 c 0,38,39
 718 363 718 363 760.5 476 c 128,-1,40
 803 589 803 589 888 651.5 c 128,-1,41
 973 714 973 714 1093 714 c 0,27,28
1089 606 m 0,42,43
 1008 606 1008 606 960 559.5 c 128,-1,44
 912 513 912 513 884 414.5 c 128,-1,45
 856 316 856 316 856 243 c 0,46,47
 856 101 856 101 969 101 c 0,48,49
 1047 101 1047 101 1096 152.5 c 128,-1,50
 1145 204 1145 204 1171 301.5 c 128,-1,51
 1197 399 1197 399 1197 470 c 0,52,53
 1197 606 1197 606 1089 606 c 0,42,43
1752 714 m 0,54,55
 1871 714 1871 714 1933 649 c 128,-1,56
 1995 584 1995 584 1995 465 c 0,57,58
 1995 378 1995 378 1969 285 c 128,-1,59
 1943 192 1943 192 1891.5 125.5 c 128,-1,60
 1840 59 1840 59 1769.5 23.5 c 128,-1,61
 1699 -12 1699 -12 1621 -12 c 0,62,63
 1505 -12 1505 -12 1441 55 c 128,-1,64
 1377 122 1377 122 1377 245 c 0,65,66
 1377 363 1377 363 1419.5 476 c 128,-1,67
 1462 589 1462 589 1547 651.5 c 128,-1,68
 1632 714 1632 714 1752 714 c 0,54,55
1748 606 m 0,69,70
 1667 606 1667 606 1619 559.5 c 128,-1,71
 1571 513 1571 513 1543 414.5 c 128,-1,72
 1515 316 1515 316 1515 243 c 0,73,74
 1515 101 1515 101 1628 101 c 0,75,76
 1706 101 1706 101 1755 152.5 c 128,-1,77
 1804 204 1804 204 1830 301.5 c 128,-1,78
 1856 399 1856 399 1856 470 c 0,79,80
 1856 606 1856 606 1748 606 c 0,69,70
216 0 m 1,81,-1
 51 0 l 1,82,-1
 1237 1409 l 1,83,-1
 1404 1409 l 1,84,-1
 216 0 l 1,81,-1
EndSplineSet
Validated: 1
EndChar

StartChar: dotlessi
Encoding: 305 305 210
Width: 569
GlyphClass: 2
Flags: W
AnchorPoint: "Anchor21" 210 0 basechar 0
AnchorPoint: "Anchor18" 1366 1840 basechar 0
AnchorPoint: "Anchor19" 0 1840 basechar 0
AnchorPoint: "Anchor16" 455 1540 basechar 0
AnchorPoint: "Anchor17" 455 -380 basechar 0
AnchorPoint: "Anchor14" 380 1100 basechar 0
AnchorPoint: "Anchor10" 400 1540 basechar 0
AnchorPoint: "Anchor11" 500 1540 basechar 0
AnchorPoint: "Anchor12" 180 -130 basechar 0
LayerCount: 2
Fore
SplineSet
89 0 m 1,0,-1
 299 1082 l 1,1,-1
 479 1082 l 1,2,-1
 268 0 l 1,3,-1
 89 0 l 1,0,-1
EndSplineSet
Validated: 1
EndChar

StartChar: circumflex
Encoding: 710 710 211
Width: 682
GlyphClass: 2
Flags: W
LayerCount: 2
Fore
SplineSet
742 1221 m 1,0,-1
 738 1201 l 1,1,-1
 646 1201 l 1,2,-1
 460 1370 l 1,3,-1
 458 1370 l 1,4,-1
 193 1201 l 1,5,-1
 77 1201 l 1,6,-1
 81 1221 l 1,7,-1
 367 1491 l 1,8,-1
 571 1491 l 1,9,-1
 742 1221 l 1,0,-1
EndSplineSet
Validated: 1
EndChar

StartChar: tilde
Encoding: 732 732 212
Width: 682
GlyphClass: 2
Flags: W
LayerCount: 2
Fore
SplineSet
567 1201 m 0,0,1
 525 1201 525 1201 487 1219.5 c 128,-1,2
 449 1238 449 1238 414.5 1260.5 c 128,-1,3
 380 1283 380 1283 348 1301.5 c 128,-1,4
 316 1320 316 1320 285 1320 c 0,5,6
 185 1320 185 1320 143 1201 c 1,7,-1
 53 1201 l 1,8,9
 100 1353 100 1353 160.5 1411 c 128,-1,10
 221 1469 221 1469 304 1469 c 0,11,12
 348 1469 348 1469 386 1450.5 c 128,-1,13
 424 1432 424 1432 458.5 1409.5 c 128,-1,14
 493 1387 493 1387 524 1368.5 c 128,-1,15
 555 1350 555 1350 585 1350 c 0,16,17
 686 1350 686 1350 726 1469 c 1,18,-1
 818 1469 l 1,19,20
 783 1360 783 1360 751 1309.5 c 128,-1,21
 719 1259 719 1259 674 1230 c 128,-1,22
 629 1201 629 1201 567 1201 c 0,0,1
EndSplineSet
Validated: 1
EndChar

StartChar: firsttonechinese
Encoding: 713 713 213
Width: 682
GlyphClass: 2
Flags: W
LayerCount: 2
Fore
SplineSet
692 1236 m 5,0,-1
 142 1236 l 5,1,-1
 168 1363 l 5,2,-1
 718 1363 l 5,3,-1
 692 1236 l 5,0,-1
EndSplineSet
Validated: 1
EndChar

StartChar: breve
Encoding: 728 728 214
Width: 682
GlyphClass: 2
Flags: W
LayerCount: 2
Fore
SplineSet
426 1201 m 0,0,1
 293 1201 293 1201 212.5 1286.5 c 128,-1,2
 132 1372 132 1372 130 1510 c 1,3,-1
 246 1510 l 1,4,5
 249 1425 249 1425 300.5 1386 c 128,-1,6
 352 1347 352 1347 435 1347 c 0,7,8
 614 1347 614 1347 678 1510 c 1,9,-1
 795 1510 l 1,10,11
 744 1362 744 1362 648.5 1281.5 c 128,-1,12
 553 1201 553 1201 426 1201 c 0,0,1
EndSplineSet
Validated: 1
EndChar

StartChar: dotaccent
Encoding: 729 729 215
Width: 682
GlyphClass: 2
Flags: W
LayerCount: 2
Fore
SplineSet
342 1312 m 1,0,-1
 376 1484 l 1,1,-1
 556 1484 l 1,2,-1
 522 1312 l 1,3,-1
 342 1312 l 1,0,-1
EndSplineSet
Validated: 1
EndChar

StartChar: ring
Encoding: 730 730 216
Width: 682
GlyphClass: 2
Flags: W
LayerCount: 2
Fore
SplineSet
685 1410 m 256,0,1
 685 1310 685 1310 614 1239 c 128,-1,2
 543 1168 543 1168 443 1168 c 256,3,4
 343 1168 343 1168 272 1239 c 128,-1,5
 201 1310 201 1310 201 1410 c 0,6,7
 201 1511 201 1511 272 1581 c 128,-1,8
 343 1651 343 1651 443 1651 c 0,9,10
 542 1651 542 1651 613.5 1580.5 c 128,-1,11
 685 1510 685 1510 685 1410 c 256,0,1
577 1410 m 0,12,13
 577 1468 577 1468 539 1506 c 128,-1,14
 501 1544 501 1544 443 1544 c 0,15,16
 384 1544 384 1544 346 1504.5 c 128,-1,17
 308 1465 308 1465 308 1410 c 256,18,19
 308 1355 308 1355 346 1314 c 128,-1,20
 384 1273 384 1273 443 1273 c 0,21,22
 501 1273 501 1273 539 1313 c 128,-1,23
 577 1353 577 1353 577 1410 c 0,12,13
EndSplineSet
Validated: 1
EndChar

StartChar: cedilla
Encoding: 184 184 217
Width: 682
GlyphClass: 2
Flags: W
LayerCount: 2
Fore
SplineSet
318 -96 m 1,0,1
 399 -101 399 -101 439.5 -137 c 128,-1,2
 480 -173 480 -173 480 -232 c 0,3,4
 480 -425 480 -425 177 -425 c 0,5,6
 127 -425 127 -425 71 -418 c 1,7,-1
 92 -327 l 1,8,9
 140 -333 140 -333 180 -333 c 0,10,11
 271 -333 271 -333 308.5 -311 c 128,-1,12
 346 -289 346 -289 346 -244 c 0,13,14
 346 -172 346 -172 227 -172 c 0,15,16
 183 -172 183 -172 169 -174 c 1,17,-1
 270 0 l 1,18,-1
 377 0 l 1,19,-1
 318 -96 l 1,0,1
EndSplineSet
Validated: 1
EndChar

StartChar: hungarumlaut
Encoding: 733 733 218
Width: 682
GlyphClass: 2
Flags: W
LayerCount: 2
Fore
SplineSet
23 1201 m 1,0,-1
 26 1221 l 1,1,-1
 278 1508 l 1,2,-1
 485 1508 l 1,3,-1
 480 1479 l 1,4,-1
 116 1201 l 1,5,-1
 23 1201 l 1,0,-1
369 1201 m 1,6,-1
 372 1221 l 1,7,-1
 625 1508 l 1,8,-1
 832 1508 l 1,9,-1
 827 1479 l 1,10,-1
 463 1201 l 1,11,-1
 369 1201 l 1,6,-1
EndSplineSet
Validated: 1
EndChar

StartChar: ogonek
Encoding: 731 731 219
Width: 682
GlyphClass: 2
Flags: W
LayerCount: 2
Fore
SplineSet
249 -427 m 0,0,1
 161 -427 161 -427 116 -380 c 128,-1,2
 71 -333 71 -333 71 -259 c 0,3,4
 71 -176 71 -176 128 -105.5 c 128,-1,5
 185 -35 185 -35 276 0 c 1,6,-1
 409 0 l 1,7,8
 316 -48 316 -48 266 -110.5 c 128,-1,9
 216 -173 216 -173 216 -236 c 0,10,11
 216 -270 216 -270 236 -293.5 c 128,-1,12
 256 -317 256 -317 294 -317 c 0,13,14
 348 -317 348 -317 408 -295 c 1,15,-1
 393 -400 l 1,16,17
 326 -427 326 -427 249 -427 c 0,0,1
EndSplineSet
Validated: 1
EndChar

StartChar: caron
Encoding: 711 711 220
Width: 682
GlyphClass: 2
Flags: W
LayerCount: 2
Fore
SplineSet
521 1201 m 1,0,-1
 317 1201 l 1,1,-1
 136 1471 l 1,2,-1
 140 1491 l 1,3,-1
 237 1491 l 1,4,-1
 436 1322 l 1,5,-1
 438 1322 l 1,6,-1
 690 1491 l 1,7,-1
 802 1491 l 1,8,-1
 798 1471 l 1,9,-1
 521 1201 l 1,0,-1
EndSplineSet
Validated: 1
EndChar

StartChar: Lslash
Encoding: 321 321 221
Width: 1139
GlyphClass: 2
Flags: W
AnchorPoint: "Anchor21" 940 0 basechar 0
AnchorPoint: "Anchor18" 1366 1840 basechar 0
AnchorPoint: "Anchor19" 0 1840 basechar 0
AnchorPoint: "Anchor16" 1139 1540 basechar 0
AnchorPoint: "Anchor17" 1139 -380 basechar 0
AnchorPoint: "Anchor10" 680 1540 basechar 0
AnchorPoint: "Anchor11" 1000 1540 basechar 0
AnchorPoint: "Anchor12" 480 -130 basechar 0
LayerCount: 2
Fore
SplineSet
282 156 m 1,0,-1
 994 156 l 1,1,-1
 963 0 l 1,2,-1
 60 0 l 1,3,-1
 165 538 l 1,4,-1
 2 453 l 1,5,-1
 31 611 l 1,6,-1
 196 696 l 1,7,-1
 334 1409 l 1,8,-1
 525 1409 l 1,9,-1
 408 806 l 1,10,-1
 714 954 l 1,11,-1
 683 797 l 1,12,-1
 377 648 l 1,13,-1
 282 156 l 1,0,-1
EndSplineSet
Validated: 1
EndChar

StartChar: lslash
Encoding: 322 322 222
Width: 455
GlyphClass: 2
Flags: W
AnchorPoint: "Anchor21" 160 0 basechar 0
AnchorPoint: "Anchor18" 1366 1840 basechar 0
AnchorPoint: "Anchor19" 0 1840 basechar 0
AnchorPoint: "Anchor16" 455 1540 basechar 0
AnchorPoint: "Anchor17" 455 -380 basechar 0
AnchorPoint: "Anchor10" 340 1580 basechar 0
AnchorPoint: "Anchor11" 420 1540 basechar 0
AnchorPoint: "Anchor12" 140 -130 basechar 0
LayerCount: 2
Fore
SplineSet
32 0 m 1,0,-1
 137 542 l 1,1,-1
 2 474 l 1,2,-1
 33 632 l 1,3,-1
 167 700 l 1,4,-1
 320 1484 l 1,5,-1
 500 1484 l 1,6,-1
 368 804 l 1,7,-1
 506 876 l 1,8,-1
 475 717 l 1,9,-1
 337 646 l 1,10,-1
 211 0 l 1,11,-1
 32 0 l 1,0,-1
EndSplineSet
Validated: 1
EndChar

StartChar: brokenbar
Encoding: 166 166 227
Width: 532
GlyphClass: 2
Flags: W
LayerCount: 2
Fore
SplineSet
213 707 m 1,0,-1
 213 1485 l 1,1,-1
 379 1485 l 1,2,-1
 379 707 l 1,3,-1
 213 707 l 1,0,-1
213 -455 m 1,4,-1
 213 324 l 1,5,-1
 379 324 l 1,6,-1
 379 -455 l 1,7,-1
 213 -455 l 1,4,-1
EndSplineSet
Validated: 1
EndChar

StartChar: Eth
Encoding: 208 208 228
Width: 1479
GlyphClass: 2
Flags: W
AnchorPoint: "Anchor21" 670 0 basechar 0
AnchorPoint: "Anchor18" 1366 1840 basechar 0
AnchorPoint: "Anchor19" 0 1840 basechar 0
AnchorPoint: "Anchor16" 1479 1540 basechar 0
AnchorPoint: "Anchor17" 1479 -380 basechar 0
AnchorPoint: "Anchor10" 740 1540 basechar 0
AnchorPoint: "Anchor11" 1100 1540 basechar 0
AnchorPoint: "Anchor12" 540 -130 basechar 0
LayerCount: 2
Fore
SplineSet
764 1409 m 2,0,1
 1076 1409 1076 1409 1254.5 1244.5 c 128,-1,2
 1433 1080 1433 1080 1433 791 c 0,3,4
 1433 557 1433 557 1334.5 378.5 c 128,-1,5
 1236 200 1236 200 1045.5 100 c 128,-1,6
 855 0 855 0 612 0 c 2,7,-1
 63 0 l 1,8,-1
 188 647 l 1,9,-1
 34 647 l 1,10,-1
 64 801 l 1,11,-1
 218 801 l 1,12,-1
 336 1409 l 1,13,-1
 764 1409 l 2,0,1
409 801 m 1,14,-1
 815 801 l 1,15,-1
 785 647 l 1,16,-1
 379 647 l 1,17,-1
 283 153 l 1,18,-1
 587 153 l 2,19,20
 782 153 782 153 931 230.5 c 128,-1,21
 1080 308 1080 308 1159.5 453.5 c 128,-1,22
 1239 599 1239 599 1239 793 c 0,23,24
 1239 1012 1239 1012 1113 1134 c 128,-1,25
 987 1256 987 1256 760 1256 c 2,26,-1
 498 1256 l 1,27,-1
 409 801 l 1,14,-1
EndSplineSet
Validated: 1
EndChar

StartChar: eth
Encoding: 240 240 229
Width: 1139
GlyphClass: 2
Flags: W
AnchorPoint: "Anchor21" 640 0 basechar 0
AnchorPoint: "Anchor18" 1366 1840 basechar 0
AnchorPoint: "Anchor19" 0 1840 basechar 0
AnchorPoint: "Anchor16" 1139 1540 basechar 0
AnchorPoint: "Anchor17" 1139 -380 basechar 0
AnchorPoint: "Anchor10" 900 1540 basechar 0
AnchorPoint: "Anchor11" 1440 1540 basechar 0
AnchorPoint: "Anchor12" 500 -130 basechar 0
LayerCount: 2
Fore
SplineSet
625 1328 m 1,0,1
 529 1418 529 1418 430 1484 c 1,2,-1
 606 1484 l 1,3,4
 683 1445 683 1445 762 1382 c 1,5,-1
 1025 1484 l 1,6,-1
 1006 1376 l 1,7,-1
 837 1309 l 1,8,9
 954 1170 954 1170 1004 1031 c 128,-1,10
 1054 892 1054 892 1054 728 c 0,11,12
 1054 518 1054 518 989.5 337 c 128,-1,13
 925 156 925 156 805 70.5 c 128,-1,14
 685 -15 685 -15 491 -15 c 0,15,16
 292 -15 292 -15 179.5 98 c 128,-1,17
 67 211 67 211 67 403 c 0,18,19
 67 563 67 563 131.5 700.5 c 128,-1,20
 196 838 196 838 314 908.5 c 128,-1,21
 432 979 432 979 605 979 c 0,22,23
 684 979 684 979 756.5 949.5 c 128,-1,24
 829 920 829 920 864 874 c 1,25,26
 845 987 845 987 800.5 1085 c 128,-1,27
 756 1183 756 1183 698 1249 c 1,28,-1
 425 1136 l 1,29,-1
 446 1256 l 1,30,-1
 625 1328 l 1,0,1
603 846 m 0,31,32
 483 846 483 846 407 790 c 128,-1,33
 331 734 331 734 291 616.5 c 128,-1,34
 251 499 251 499 251 388 c 0,35,36
 251 258 251 258 314 188 c 128,-1,37
 377 118 377 118 494 118 c 0,38,39
 588 118 588 118 653 152 c 128,-1,40
 718 186 718 186 762.5 256.5 c 128,-1,41
 807 327 807 327 833 440 c 128,-1,42
 859 553 859 553 859 635 c 0,43,44
 859 690 859 690 826.5 739 c 128,-1,45
 794 788 794 788 735 817 c 128,-1,46
 676 846 676 846 603 846 c 0,31,32
EndSplineSet
Validated: 1
EndChar

StartChar: Thorn
Encoding: 222 222 232
Width: 1366
GlyphClass: 2
Flags: W
AnchorPoint: "Anchor21" 180 0 basechar 0
AnchorPoint: "Anchor18" 1366 1840 basechar 0
AnchorPoint: "Anchor19" 0 1840 basechar 0
AnchorPoint: "Anchor16" 1366 1540 basechar 0
AnchorPoint: "Anchor17" 1366 -380 basechar 0
AnchorPoint: "Anchor10" 760 1580 basechar 0
AnchorPoint: "Anchor11" 1060 1260 basechar 0
AnchorPoint: "Anchor12" 450 -130 basechar 0
LayerCount: 2
Fore
SplineSet
254 0 m 1,0,-1
 63 0 l 1,1,-1
 337 1409 l 1,2,-1
 528 1409 l 1,3,-1
 479 1157 l 1,4,-1
 806 1157 l 2,5,6
 1043 1157 1043 1157 1175 1055 c 128,-1,7
 1307 953 1307 953 1307 768 c 0,8,9
 1307 548 1307 548 1154.5 422.5 c 128,-1,10
 1002 297 1002 297 738 297 c 2,11,-1
 314 297 l 1,12,-1
 254 0 l 1,0,-1
344 448 m 1,13,-1
 731 448 l 2,14,15
 1113 448 1113 448 1113 759 c 0,16,17
 1113 878 1113 878 1034 941 c 128,-1,18
 955 1004 955 1004 801 1004 c 2,19,-1
 452 1004 l 1,20,-1
 344 448 l 1,13,-1
EndSplineSet
Validated: 1
EndChar

StartChar: thorn
Encoding: 254 254 233
Width: 1139
GlyphClass: 2
Flags: W
AnchorPoint: "Anchor21" 100 -400 basechar 0
AnchorPoint: "Anchor18" 1366 1840 basechar 0
AnchorPoint: "Anchor19" 0 1840 basechar 0
AnchorPoint: "Anchor16" 1139 1540 basechar 0
AnchorPoint: "Anchor17" 1139 -380 basechar 0
AnchorPoint: "Anchor10" 700 1200 basechar 0
AnchorPoint: "Anchor11" 1000 1200 basechar 0
AnchorPoint: "Anchor12" 500 -540 basechar 0
LayerCount: 2
Fore
SplineSet
554 -20 m 0,0,1
 431 -20 431 -20 353.5 32 c 128,-1,2
 276 84 276 84 244 178 c 1,3,-1
 239 178 l 1,4,5
 229 92 229 92 210 -2 c 2,6,-1
 128 -425 l 1,7,-1
 -51 -425 l 1,8,-1
 320 1484 l 1,9,-1
 500 1484 l 1,10,-1
 417 1061 l 1,11,12
 409 1015 409 1015 383 921 c 1,13,-1
 387 921 l 1,14,15
 460 1016 460 1016 541 1059 c 128,-1,16
 622 1102 622 1102 741 1102 c 0,17,18
 898 1102 898 1102 985.5 1007.5 c 128,-1,19
 1073 913 1073 913 1073 748 c 0,20,21
 1073 545 1073 545 1011.5 354.5 c 128,-1,22
 950 164 950 164 838.5 72 c 128,-1,23
 727 -20 727 -20 554 -20 c 0,0,1
689 963 m 0,24,25
 590 963 590 963 519.5 922.5 c 128,-1,26
 449 882 449 882 400 800.5 c 128,-1,27
 351 719 351 719 323 596.5 c 128,-1,28
 295 474 295 474 295 377 c 0,29,30
 295 252 295 252 358.5 182.5 c 128,-1,31
 422 113 422 113 535 113 c 0,32,33
 659 113 659 113 731 188.5 c 128,-1,34
 803 264 803 264 844 428.5 c 128,-1,35
 885 593 885 593 885 716 c 256,36,37
 885 839 885 839 838 901 c 128,-1,38
 791 963 791 963 689 963 c 0,24,25
EndSplineSet
Validated: 1
EndChar

StartChar: minus
Encoding: 8722 8722 234
Width: 1196
GlyphClass: 2
Flags: W
LayerCount: 2
Fore
SplineSet
131 608 m 1,0,-1
 131 754 l 1,1,-1
 1126 754 l 1,2,-1
 1126 608 l 1,3,-1
 131 608 l 1,0,-1
EndSplineSet
Validated: 1
EndChar

StartChar: multiply
Encoding: 215 215 235
Width: 1196
GlyphClass: 2
Flags: W
LayerCount: 2
Fore
SplineSet
172 330 m 1,0,-1
 526 684 l 1,1,-1
 174 1036 l 1,2,-1
 278 1139 l 1,3,-1
 628 786 l 1,4,-1
 978 1137 l 1,5,-1
 1083 1032 l 1,6,-1
 733 684 l 1,7,-1
 1085 332 l 1,8,-1
 983 227 l 1,9,-1
 630 580 l 1,10,-1
 274 225 l 1,11,-1
 172 330 l 1,0,-1
EndSplineSet
Validated: 1
EndChar

StartChar: onesuperior
Encoding: 185 185 236
Width: 682
GlyphClass: 2
Flags: W
LayerCount: 2
Fore
SplineSet
61 563 m 1,0,-1
 81 670 l 1,1,-1
 292 670 l 1,2,-1
 410 1279 l 1,3,-1
 181 1141 l 1,4,-1
 207 1272 l 1,5,-1
 444 1409 l 1,6,-1
 567 1409 l 1,7,-1
 423 670 l 1,8,-1
 638 670 l 1,9,-1
 617 563 l 1,10,-1
 61 563 l 1,0,-1
EndSplineSet
Validated: 1
EndChar

StartChar: twosuperior
Encoding: 178 178 237
Width: 682
GlyphClass: 2
Flags: W
LayerCount: 2
Fore
SplineSet
30 563 m 1,0,-1
 48 666 l 1,1,2
 78 714 78 714 116.5 753.5 c 128,-1,3
 155 793 155 793 201 828 c 128,-1,4
 247 863 247 863 351 925 c 0,5,6
 482 1002 482 1002 522.5 1036 c 128,-1,7
 563 1070 563 1070 584.5 1107.5 c 128,-1,8
 606 1145 606 1145 606 1192 c 0,9,10
 606 1243 606 1243 572 1279 c 128,-1,11
 538 1315 538 1315 473 1315 c 0,12,13
 403 1315 403 1315 353 1276 c 128,-1,14
 303 1237 303 1237 289 1174 c 1,15,-1
 164 1189 l 1,16,17
 193 1303 193 1303 273.5 1362 c 128,-1,18
 354 1421 354 1421 480 1421 c 0,19,20
 599 1421 599 1421 670.5 1361 c 128,-1,21
 742 1301 742 1301 742 1206 c 0,22,23
 742 1138 742 1138 711.5 1083 c 128,-1,24
 681 1028 681 1028 627.5 981 c 128,-1,25
 574 934 574 934 427 848 c 0,26,27
 330 792 330 792 279.5 753.5 c 128,-1,28
 229 715 229 715 203 676 c 1,29,-1
 651 676 l 1,30,-1
 631 563 l 1,31,-1
 30 563 l 1,0,-1
EndSplineSet
Validated: 1
EndChar

StartChar: threesuperior
Encoding: 179 179 238
Width: 682
GlyphClass: 2
Flags: W
LayerCount: 2
Fore
SplineSet
332 1049 m 1,0,-1
 389 1049 l 2,1,2
 486 1049 486 1049 538 1090.5 c 128,-1,3
 590 1132 590 1132 590 1204 c 0,4,5
 590 1252 590 1252 557 1283.5 c 128,-1,6
 524 1315 524 1315 467 1315 c 0,7,8
 399 1315 399 1315 350.5 1280 c 128,-1,9
 302 1245 302 1245 283 1180 c 1,10,-1
 158 1205 l 1,11,12
 225 1421 225 1421 477 1421 c 0,13,14
 588 1421 588 1421 658 1364.5 c 128,-1,15
 728 1308 728 1308 728 1218 c 0,16,17
 728 1039 728 1039 510 995 c 1,18,-1
 510 993 l 1,19,20
 583 980 583 980 628 932.5 c 128,-1,21
 673 885 673 885 673 817 c 0,22,23
 673 696 673 696 584 623.5 c 128,-1,24
 495 551 495 551 350 551 c 0,25,26
 89 551 89 551 53 785 c 1,27,-1
 182 801 l 1,28,29
 191 729 191 729 236.5 692 c 128,-1,30
 282 655 282 655 356 655 c 0,31,32
 442 655 442 655 489.5 699.5 c 128,-1,33
 537 744 537 744 537 820 c 0,34,35
 537 874 537 874 493 907 c 128,-1,36
 449 940 449 940 372 940 c 2,37,-1
 311 940 l 1,38,-1
 332 1049 l 1,0,-1
EndSplineSet
Validated: 1
EndChar

StartChar: franc
Encoding: 8355 8355 242
Width: 1139
GlyphClass: 2
Flags: W
LayerCount: 2
Fore
SplineSet
497 1254 m 1,0,-1
 405 778 l 1,1,-1
 1092 778 l 1,2,-1
 1061 621 l 1,3,-1
 374 621 l 1,4,-1
 333 408 l 1,5,-1
 735 408 l 1,6,-1
 710 279 l 1,7,-1
 308 279 l 1,8,-1
 254 0 l 1,9,-1
 74 0 l 1,10,-1
 128 279 l 1,11,-1
 -47 279 l 1,12,-1
 -22 408 l 1,13,-1
 153 408 l 1,14,-1
 347 1409 l 1,15,-1
 1238 1409 l 1,16,-1
 1208 1254 l 1,17,-1
 497 1254 l 1,0,-1
EndSplineSet
Validated: 1
EndChar

StartChar: dcroat
Encoding: 273 273 252
Width: 1139
GlyphClass: 2
Flags: W
AnchorPoint: "Anchor21" 850 0 basechar 0
AnchorPoint: "Anchor18" 1366 1840 basechar 0
AnchorPoint: "Anchor19" 0 1840 basechar 0
AnchorPoint: "Anchor16" 1139 1540 basechar 0
AnchorPoint: "Anchor17" 1139 -380 basechar 0
AnchorPoint: "Anchor10" 640 1200 basechar 0
AnchorPoint: "Anchor11" 1000 1200 basechar 0
AnchorPoint: "Anchor12" 440 -130 basechar 0
LayerCount: 2
Fore
SplineSet
453 118 m 0,0,1
 552 118 552 118 622.5 158.5 c 128,-1,2
 693 199 693 199 742 280.5 c 128,-1,3
 791 362 791 362 819 484.5 c 128,-1,4
 847 607 847 607 847 704 c 0,5,6
 847 829 847 829 783.5 898.5 c 128,-1,7
 720 968 720 968 607 968 c 0,8,9
 485 968 485 968 414 895.5 c 128,-1,10
 343 823 343 823 300 658.5 c 128,-1,11
 257 494 257 494 257 365 c 0,12,13
 257 242 257 242 304 180 c 128,-1,14
 351 118 351 118 453 118 c 0,0,1
401 -21 m 0,15,16
 244 -21 244 -21 156.5 73.5 c 128,-1,17
 69 168 69 168 69 333 c 0,18,19
 69 536 69 536 130.5 726.5 c 128,-1,20
 192 917 192 917 303.5 1009 c 128,-1,21
 415 1101 415 1101 588 1101 c 0,22,23
 711 1101 711 1101 788.5 1049 c 128,-1,24
 866 997 866 997 898 903 c 1,25,-1
 903 903 l 1,26,-1
 960 1206 l 1,27,-1
 660 1206 l 1,28,-1
 685 1337 l 1,29,-1
 985 1337 l 1,30,-1
 1014 1484 l 1,31,-1
 1194 1484 l 1,32,-1
 1165 1337 l 1,33,-1
 1297 1337 l 1,34,-1
 1272 1206 l 1,35,-1
 1140 1206 l 1,36,-1
 948 223 l 1,37,38
 919 82 919 82 910 0 c 1,39,-1
 738 0 l 1,40,41
 738 51 738 51 759 160 c 1,42,-1
 755 160 l 1,43,44
 682 65 682 65 601 22 c 128,-1,45
 520 -21 520 -21 401 -21 c 0,15,16
EndSplineSet
Validated: 1
EndChar

StartChar: macron
Encoding: 175 175 253
Width: 1131
GlyphClass: 2
Flags: W
LayerCount: 2
Fore
SplineSet
1148 1503 m 1,0,-1
 -17 1503 l 1,1,-1
 -17 1620 l 1,2,-1
 1148 1620 l 1,3,-1
 1148 1503 l 1,0,-1
EndSplineSet
Validated: 1
EndChar

StartChar: Gamma
Encoding: 915 915 296
Width: 1168
GlyphClass: 2
Flags: W
LayerCount: 2
Fore
SplineSet
1241 1410 m 1,0,-1
 1211 1254 l 1,1,-1
 498 1254 l 1,2,-1
 254 1 l 1,3,-1
 63 1 l 1,4,-1
 337 1410 l 1,5,-1
 1241 1410 l 1,0,-1
EndSplineSet
Validated: 1
EndChar

StartChar: Theta
Encoding: 920 920 297
Width: 1593
GlyphClass: 2
Flags: W
LayerCount: 2
Fore
SplineSet
541 794 m 1,0,-1
 1128 794 l 1,1,-1
 1097 634 l 1,2,-1
 510 634 l 1,3,-1
 541 794 l 1,0,-1
928 1430 m 0,4,5
 1205 1430 1205 1430 1365.5 1273 c 128,-1,6
 1526 1116 1526 1116 1526 851 c 1,7,8
 1521 583 1521 583 1414 387.5 c 128,-1,9
 1307 192 1307 192 1121 86 c 128,-1,10
 935 -20 935 -20 699 -20 c 0,11,12
 415 -20 415 -20 258 137.5 c 128,-1,13
 101 295 101 295 101 573 c 0,14,15
 101 812 101 812 206.5 1012.5 c 128,-1,16
 312 1213 312 1213 501 1321.5 c 128,-1,17
 690 1430 690 1430 928 1430 c 0,4,5
919 1276 m 0,18,19
 719 1276 719 1276 579.5 1187 c 128,-1,20
 440 1098 440 1098 366 921 c 128,-1,21
 292 744 292 744 292 563 c 0,22,23
 292 354 292 354 398.5 244.5 c 128,-1,24
 505 135 505 135 708 135 c 0,25,26
 905 135 905 135 1043.5 221.5 c 128,-1,27
 1182 308 1182 308 1258.5 481 c 128,-1,28
 1335 654 1335 654 1335 847 c 0,29,30
 1335 1054 1335 1054 1226.5 1165 c 128,-1,31
 1118 1276 1118 1276 919 1276 c 0,18,19
EndSplineSet
Validated: 1
EndChar

StartChar: Phi
Encoding: 934 934 298
Width: 1714
GlyphClass: 2
Flags: W
LayerCount: 2
Fore
SplineSet
640 216 m 2,0,1
 405 216 405 216 265.5 343 c 128,-1,2
 126 470 126 470 126 686 c 0,3,4
 126 941 126 941 289.5 1089 c 128,-1,5
 453 1237 453 1237 726 1237 c 2,6,-1
 887 1237 l 1,7,-1
 922 1419 l 1,8,-1
 1105 1419 l 1,9,-1
 1072 1237 l 1,10,-1
 1121 1237 l 2,11,12
 1355 1237 1355 1237 1495 1111 c 128,-1,13
 1635 985 1635 985 1635 768 c 0,14,15
 1635 601 1635 601 1560.5 475 c 128,-1,16
 1486 349 1486 349 1349.5 282.5 c 128,-1,17
 1213 216 1213 216 1034 216 c 2,18,-1
 874 216 l 1,19,-1
 828 -11 l 1,20,-1
 645 -11 l 1,21,-1
 689 216 l 1,22,-1
 640 216 l 2,0,1
901 358 m 1,23,-1
 1025 358 l 2,24,25
 1226 358 1226 358 1333.5 461 c 128,-1,26
 1441 564 1441 564 1441 759 c 0,27,28
 1441 919 1441 919 1353 1006.5 c 128,-1,29
 1265 1094 1265 1094 1113 1094 c 2,30,-1
 1044 1094 l 1,31,-1
 901 358 l 1,23,-1
859 1094 m 1,32,-1
 735 1094 l 2,33,34
 534 1094 534 1094 427 991 c 128,-1,35
 320 888 320 888 320 695 c 0,36,37
 320 535 320 535 408 446.5 c 128,-1,38
 496 358 496 358 646 358 c 2,39,-1
 716 358 l 1,40,-1
 859 1094 l 1,32,-1
EndSplineSet
Validated: 1
EndChar

StartChar: alpha
Encoding: 945 945 299
Width: 1168
GlyphClass: 2
Flags: W
LayerCount: 2
Fore
SplineSet
595 1101 m 0,0,1
 725 1101 725 1101 809 1037 c 128,-1,2
 893 973 893 973 914 858 c 1,3,-1
 916 858 l 1,4,5
 928 895 928 895 960.5 960.5 c 128,-1,6
 993 1026 993 1026 1028 1082 c 1,7,-1
 1216 1082 l 1,8,9
 1160 999 1160 999 1077.5 813.5 c 128,-1,10
 995 628 995 628 961 514 c 1,11,12
 961 188 961 188 989 0 c 1,13,-1
 812 0 l 1,14,15
 794 90 794 90 794 237 c 2,16,-1
 794 253 l 1,17,-1
 790 253 l 1,18,19
 701 102 701 102 610.5 40.5 c 128,-1,20
 520 -21 520 -21 406 -21 c 0,21,22
 247 -21 247 -21 158.5 82 c 128,-1,23
 70 185 70 185 70 375 c 0,24,25
 70 505 70 505 106 654 c 128,-1,26
 142 803 142 803 208.5 903.5 c 128,-1,27
 275 1004 275 1004 370.5 1052.5 c 128,-1,28
 466 1101 466 1101 595 1101 c 0,0,1
601 969 m 0,29,30
 485 969 485 969 412.5 890.5 c 128,-1,31
 340 812 340 812 299.5 654.5 c 128,-1,32
 259 497 259 497 259 366 c 0,33,34
 259 119 259 119 446 119 c 0,35,36
 556 119 556 119 658 236 c 128,-1,37
 760 353 760 353 824 557 c 1,38,-1
 826 632 l 1,39,40
 826 797 826 797 768 883 c 128,-1,41
 710 969 710 969 601 969 c 0,29,30
EndSplineSet
Validated: 1
EndChar

StartChar: delta
Encoding: 948 948 300
Width: 1138
GlyphClass: 2
Flags: W
LayerCount: 2
Fore
SplineSet
511 113 m 0,0,1
 676 113 676 113 772 229 c 128,-1,2
 868 345 868 345 868 540 c 0,3,4
 868 645 868 645 836.5 737 c 128,-1,5
 805 829 805 829 727 929 c 1,6,7
 481 850 481 850 369.5 716.5 c 128,-1,8
 258 583 258 583 258 389 c 0,9,10
 258 259 258 259 326.5 186 c 128,-1,11
 395 113 395 113 511 113 c 0,0,1
759 1352 m 1,12,-1
 607 1360 l 1,13,-1
 860 1036 l 1,14,15
 970 897 970 897 1014.5 780.5 c 128,-1,16
 1059 664 1059 664 1059 547 c 0,17,18
 1059 381 1059 381 988.5 251 c 128,-1,19
 918 121 918 121 790 50.5 c 128,-1,20
 662 -20 662 -20 501 -20 c 0,21,22
 299 -20 299 -20 183 93 c 128,-1,23
 67 206 67 206 67 396 c 0,24,25
 67 626 67 626 212 786 c 128,-1,26
 357 946 357 946 653 1026 c 1,27,-1
 400 1365 l 1,28,-1
 423 1484 l 1,29,-1
 1156 1484 l 1,30,-1
 1130 1352 l 1,31,-1
 759 1352 l 1,12,-1
EndSplineSet
Validated: 1
EndChar

StartChar: epsilon
Encoding: 949 949 301
Width: 900
GlyphClass: 2
Flags: W
LayerCount: 2
Fore
SplineSet
401 116 m 0,0,1
 507 116 507 116 587.5 156 c 128,-1,2
 668 196 668 196 738 264 c 1,3,-1
 826 159 l 1,4,5
 732 65 732 65 629 22.5 c 128,-1,6
 526 -20 526 -20 389 -20 c 0,7,8
 224 -20 224 -20 129 61 c 128,-1,9
 34 142 34 142 34 278 c 0,10,11
 34 401 34 401 122.5 483 c 128,-1,12
 211 565 211 565 355 579 c 1,13,-1
 356 581 l 1,14,15
 268 606 268 606 217.5 666 c 128,-1,16
 167 726 167 726 167 806 c 0,17,18
 167 946 167 946 271 1023.5 c 128,-1,19
 375 1101 375 1101 565 1101 c 0,20,21
 700 1101 700 1101 786 1059.5 c 128,-1,22
 872 1018 872 1018 924 930 c 1,23,-1
 789 846 l 1,24,25
 748 909 748 909 692.5 937 c 128,-1,26
 637 965 637 965 562 965 c 0,27,28
 463 965 463 965 405.5 919 c 128,-1,29
 348 873 348 873 348 796 c 0,30,31
 348 636 348 636 676 636 c 1,32,-1
 649 495 l 1,33,34
 460 495 460 495 378.5 473 c 128,-1,35
 297 451 297 451 258.5 403 c 128,-1,36
 220 355 220 355 220 281 c 0,37,38
 220 206 220 206 271.5 161 c 128,-1,39
 323 116 323 116 401 116 c 0,0,1
EndSplineSet
Validated: 1
EndChar

StartChar: sigma
Encoding: 963 963 302
Width: 1235
GlyphClass: 2
Flags: W
LayerCount: 2
Fore
SplineSet
490 -20 m 0,0,1
 291 -20 291 -20 179.5 93 c 128,-1,2
 68 206 68 206 68 411 c 0,3,4
 68 609 68 609 146.5 764 c 128,-1,5
 225 919 225 919 376 1000.5 c 128,-1,6
 527 1082 527 1082 747 1082 c 2,7,-1
 1299 1082 l 1,8,-1
 1273 951 l 1,9,-1
 1128 951 l 1,10,-1
 982 957 l 1,11,-1
 981 953 l 1,12,13
 1057 793 1057 793 1057 632 c 0,14,15
 1057 438 1057 438 989.5 289.5 c 128,-1,16
 922 141 922 141 793.5 60.5 c 128,-1,17
 665 -20 665 -20 490 -20 c 0,0,1
500 113 m 0,18,19
 872 113 872 113 872 681 c 0,20,21
 872 819 872 819 833 951 c 1,22,-1
 750 951 l 2,23,24
 629 951 629 951 536.5 913 c 128,-1,25
 444 875 444 875 379.5 798.5 c 128,-1,26
 315 722 315 722 285.5 616.5 c 128,-1,27
 256 511 256 511 256 409 c 0,28,29
 256 270 256 270 319 191.5 c 128,-1,30
 382 113 382 113 500 113 c 0,18,19
EndSplineSet
Validated: 1
EndChar

StartChar: tau
Encoding: 964 964 303
Width: 766
GlyphClass: 2
Flags: W
LayerCount: 2
Fore
SplineSet
334 951 m 2,0,1
 253 951 253 951 178 939.5 c 128,-1,2
 103 928 103 928 75 914 c 1,3,-1
 102 1053 l 1,4,5
 129 1065 129 1065 182.5 1073.5 c 128,-1,6
 236 1082 236 1082 291 1082 c 2,7,-1
 871 1082 l 1,8,-1
 845 951 l 1,9,-1
 541 951 l 1,10,-1
 408 266 l 2,11,12
 401 231 401 231 401 203 c 0,13,14
 401 121 401 121 473 121 c 0,15,16
 508 121 508 121 568 136 c 1,17,-1
 553 2 l 1,18,19
 470 -20 470 -20 399 -20 c 0,20,21
 219 -20 219 -20 219 173 c 0,22,23
 219 226 219 226 229 271 c 1,24,-1
 361 951 l 1,25,-1
 334 951 l 2,0,1
EndSplineSet
Validated: 1
EndChar

StartChar: phi
Encoding: 966 966 304
Width: 1336
GlyphClass: 2
Flags: W
LayerCount: 2
Fore
SplineSet
977 1104 m 0,0,1
 1115 1104 1115 1104 1192.5 1006 c 128,-1,2
 1270 908 1270 908 1270 729 c 0,3,4
 1270 588 1270 588 1229.5 441 c 128,-1,5
 1189 294 1189 294 1110 191.5 c 128,-1,6
 1031 89 1031 89 915 38 c 128,-1,7
 799 -13 799 -13 637 -18 c 1,8,-1
 558 -425 l 1,9,-1
 388 -425 l 1,10,-1
 467 -18 l 1,11,12
 281 -10 281 -10 176 109 c 128,-1,13
 71 228 71 228 71 434 c 0,14,15
 71 706 71 706 209.5 888 c 128,-1,16
 348 1070 348 1070 586 1106 c 1,17,-1
 614 973 l 1,18,19
 495 945 495 945 416.5 871 c 128,-1,20
 338 797 338 797 298.5 672 c 128,-1,21
 259 547 259 547 259 423 c 0,22,23
 259 285 259 285 317.5 205.5 c 128,-1,24
 376 126 376 126 494 119 c 1,25,-1
 606 699 l 2,26,27
 649 917 649 917 736.5 1010.5 c 128,-1,28
 824 1104 824 1104 977 1104 c 0,0,1
967 971 m 0,29,30
 894 971 894 971 848.5 906 c 128,-1,31
 803 841 803 841 777 702 c 2,32,-1
 664 119 l 1,33,34
 775 122 775 122 851 165 c 128,-1,35
 927 208 927 208 978.5 296 c 128,-1,36
 1030 384 1030 384 1058.5 519.5 c 128,-1,37
 1087 655 1087 655 1087 758 c 0,38,39
 1087 971 1087 971 967 971 c 0,29,30
EndSplineSet
Validated: 1
EndChar

StartChar: nsuperior
Encoding: 8319 8319 307
Width: 747
GlyphClass: 2
Flags: W
LayerCount: 2
Fore
SplineSet
501 519 m 1,0,-1
 574 893 l 1,1,2
 585 944 585 944 585 981 c 0,3,4
 585 1077 585 1077 486 1077 c 0,5,6
 414 1077 414 1077 361.5 1027 c 128,-1,7
 309 977 309 977 291 883 c 2,8,-1
 220 519 l 1,9,-1
 92 519 l 1,10,-1
 192 1030 l 1,11,-1
 215 1169 l 1,12,-1
 334 1169 l 1,13,-1
 318 1058 l 1,14,-1
 320 1058 l 1,15,16
 375 1131 375 1131 425 1156 c 128,-1,17
 475 1181 475 1181 542 1181 c 0,18,19
 623 1181 623 1181 669.5 1136.5 c 128,-1,20
 716 1092 716 1092 716 1000 c 0,21,22
 716 964 716 964 705 902 c 1,23,-1
 630 519 l 1,24,-1
 501 519 l 1,0,-1
EndSplineSet
Validated: 1
EndChar

StartChar: peseta
Encoding: 8359 8359 308
Width: 2240
GlyphClass: 2
Flags: W
LayerCount: 2
Fore
SplineSet
871 1011 m 0,0,1
 871 1130 871 1130 792 1193 c 128,-1,2
 713 1256 713 1256 559 1256 c 2,3,-1
 503 1256 l 1,4,-1
 395 700 l 1,5,-1
 489 700 l 2,6,7
 871 700 871 700 871 1011 c 0,0,1
1321 813 m 1,8,-1
 1478 813 l 1,9,-1
 1452 682 l 1,10,-1
 1295 682 l 1,11,-1
 1219 288 l 1,12,13
 1209 242 1209 242 1209 199 c 0,14,15
 1209 117 1209 117 1281 117 c 0,16,17
 1310 117 1310 117 1373 131 c 1,18,-1
 1354 5 l 1,19,20
 1291 -16 1291 -16 1211 -16 c 0,21,22
 1130 -16 1130 -16 1083 33 c 128,-1,23
 1036 82 1036 82 1036 168 c 0,24,25
 1036 220 1036 220 1046 272 c 2,26,-1
 1125 682 l 1,27,-1
 1021 682 l 1,28,-1
 1047 813 l 1,29,-1
 1158 813 l 1,30,-1
 1258 1055 l 1,31,-1
 1368 1055 l 1,32,-1
 1321 813 l 1,8,-1
1857 824 m 0,33,34
 1998 824 1998 824 2077 765.5 c 128,-1,35
 2156 707 2156 707 2176 611 c 1,36,-1
 2016 586 l 1,37,38
 2005 628 2005 628 1964.5 657 c 128,-1,39
 1924 686 1924 686 1849 686 c 0,40,41
 1687 686 1687 686 1687 600 c 0,42,43
 1687 556 1687 556 1727 531 c 128,-1,44
 1767 506 1767 506 1882 479 c 0,45,46
 2006 449 2006 449 2063 392 c 128,-1,47
 2120 335 2120 335 2120 246 c 0,48,49
 2120 116 2120 116 2020 48 c 128,-1,50
 1920 -20 1920 -20 1735 -20 c 0,51,52
 1589 -20 1589 -20 1508 25.5 c 128,-1,53
 1427 71 1427 71 1394 180 c 1,54,-1
 1547 232 l 1,55,56
 1566 173 1566 173 1610 145 c 128,-1,57
 1654 117 1654 117 1742 117 c 0,58,59
 1846 117 1846 117 1896 144 c 128,-1,60
 1946 171 1946 171 1946 229 c 0,61,62
 1946 258 1946 258 1930.5 278 c 128,-1,63
 1915 298 1915 298 1879.5 313.5 c 128,-1,64
 1844 329 1844 329 1735 358 c 1,65,66
 1507 416 1507 416 1507 578 c 0,67,68
 1507 696 1507 696 1597 760 c 128,-1,69
 1687 824 1687 824 1857 824 c 0,33,34
1065 1020 m 0,70,71
 1065 800 1065 800 912.5 674.5 c 128,-1,72
 760 549 760 549 495 549 c 2,73,-1
 365 549 l 1,74,-1
 259 0 l 1,75,-1
 78 0 l 1,76,-1
 351 1409 l 1,77,-1
 564 1409 l 2,78,79
 795 1409 795 1409 930 1305 c 128,-1,80
 1065 1201 1065 1201 1065 1020 c 0,70,71
EndSplineSet
Validated: 1
EndChar

StartChar: arrowleft
Encoding: 8592 8592 309
Width: 2048
GlyphClass: 2
Flags: W
LayerCount: 2
Fore
SplineSet
641 297 m 1,0,1
 698 230 698 230 760 100 c 1,2,-1
 688 100 l 1,3,4
 561 249 561 249 418 322 c 1,5,-1
 418 358 l 1,6,7
 561 431 561 431 688 580 c 1,8,-1
 760 580 l 1,9,10
 698 450 698 450 641 383 c 1,11,-1
 1630 383 l 1,12,-1
 1630 297 l 1,13,-1
 641 297 l 1,0,1
EndSplineSet
Validated: 1
EndChar

StartChar: arrowup
Encoding: 8593 8593 310
Width: 1024
GlyphClass: 2
Flags: W
LayerCount: 2
Fore
SplineSet
469 928 m 1,0,1
 402 871 402 871 272 809 c 1,2,-1
 272 881 l 1,3,4
 421 1008 421 1008 494 1151 c 1,5,-1
 530 1151 l 1,6,7
 603 1008 603 1008 752 881 c 1,8,-1
 752 809 l 1,9,10
 622 871 622 871 555 928 c 1,11,-1
 555 -61 l 1,12,-1
 469 -61 l 1,13,-1
 469 928 l 1,0,1
EndSplineSet
Validated: 1
EndChar

StartChar: arrowright
Encoding: 8594 8594 311
Width: 2048
GlyphClass: 2
Flags: W
LayerCount: 2
Fore
SplineSet
1407 383 m 1,0,1
 1350 450 1350 450 1288 580 c 1,2,-1
 1360 580 l 1,3,4
 1487 431 1487 431 1630 358 c 1,5,-1
 1630 322 l 1,6,7
 1487 249 1487 249 1360 100 c 1,8,-1
 1288 100 l 1,9,10
 1350 230 1350 230 1407 297 c 1,11,-1
 418 297 l 1,12,-1
 418 383 l 1,13,-1
 1407 383 l 1,0,1
EndSplineSet
Validated: 1
EndChar

StartChar: arrowdown
Encoding: 8595 8595 312
Width: 1024
GlyphClass: 2
Flags: W
LayerCount: 2
Fore
SplineSet
555 162 m 1,0,1
 622 219 622 219 752 281 c 1,2,-1
 752 209 l 1,3,4
 603 82 603 82 530 -61 c 1,5,-1
 494 -61 l 1,6,7
 421 82 421 82 272 209 c 1,8,-1
 272 281 l 1,9,10
 402 219 402 219 469 162 c 1,11,-1
 469 1151 l 1,12,-1
 555 1151 l 1,13,-1
 555 162 l 1,0,1
EndSplineSet
Validated: 1
EndChar

StartChar: arrowboth
Encoding: 8596 8596 313
Width: 2048
GlyphClass: 2
Flags: W
LayerCount: 2
Fore
SplineSet
641 297 m 1,0,1
 698 230 698 230 760 100 c 1,2,-1
 688 100 l 1,3,4
 561 249 561 249 418 322 c 1,5,-1
 418 358 l 1,6,7
 561 431 561 431 688 580 c 1,8,-1
 760 580 l 1,9,10
 698 450 698 450 641 383 c 1,11,-1
 1407 383 l 1,12,13
 1350 450 1350 450 1288 580 c 1,14,-1
 1360 580 l 1,15,16
 1487 431 1487 431 1630 358 c 1,17,-1
 1630 322 l 1,18,19
 1487 249 1487 249 1360 100 c 1,20,-1
 1288 100 l 1,21,22
 1350 230 1350 230 1407 297 c 1,23,-1
 641 297 l 1,0,1
EndSplineSet
Validated: 1
EndChar

StartChar: arrowupdn
Encoding: 8597 8597 314
Width: 1024
GlyphClass: 2
Flags: W
LayerCount: 2
Fore
SplineSet
469 928 m 1,0,1
 402 871 402 871 272 809 c 1,2,-1
 272 881 l 1,3,4
 421 1008 421 1008 494 1151 c 1,5,-1
 530 1151 l 1,6,7
 603 1008 603 1008 752 881 c 1,8,-1
 752 809 l 1,9,10
 622 871 622 871 555 928 c 1,11,-1
 555 162 l 1,12,13
 622 219 622 219 752 281 c 1,14,-1
 752 209 l 1,15,16
 603 82 603 82 530 -61 c 1,17,-1
 494 -61 l 1,18,19
 421 82 421 82 272 209 c 1,20,-1
 272 281 l 1,21,22
 402 219 402 219 469 162 c 1,23,-1
 469 928 l 1,0,1
EndSplineSet
Validated: 1
EndChar

StartChar: arrowupdnbse
Encoding: 8616 8616 315
Width: 1024
GlyphClass: 2
Flags: W
LayerCount: 2
Fore
SplineSet
272 -104 m 1,0,-1
 752 -104 l 1,1,-1
 752 -184 l 1,2,-1
 272 -184 l 1,3,-1
 272 -104 l 1,0,-1
469 928 m 1,4,5
 402 871 402 871 272 809 c 1,6,-1
 272 881 l 1,7,8
 421 1008 421 1008 494 1151 c 1,9,-1
 530 1151 l 1,10,11
 603 1008 603 1008 752 881 c 1,12,-1
 752 809 l 1,13,14
 622 871 622 871 555 928 c 1,15,-1
 555 162 l 1,16,17
 622 219 622 219 752 281 c 1,18,-1
 752 209 l 1,19,20
 603 82 603 82 530 -61 c 1,21,-1
 494 -61 l 1,22,23
 421 82 421 82 272 209 c 1,24,-1
 272 281 l 1,25,26
 402 219 402 219 469 162 c 1,27,-1
 469 928 l 1,4,5
EndSplineSet
Validated: 1
EndChar

StartChar: orthogonal
Encoding: 8735 8735 316
Width: 2005
GlyphClass: 2
Flags: W
LayerCount: 2
Fore
SplineSet
408 1223 m 1,0,-1
 502 1223 l 1,1,-1
 502 94 l 1,2,-1
 1632 94 l 1,3,-1
 1632 0 l 1,4,-1
 408 0 l 1,5,-1
 408 1223 l 1,0,-1
EndSplineSet
Validated: 1
EndChar

StartChar: intersection
Encoding: 8745 8745 317
Width: 1472
GlyphClass: 2
Flags: W
LayerCount: 2
Fore
SplineSet
278 -2 m 1,0,-1
 278 510 l 2,1,2
 278 660 278 660 336 779.5 c 128,-1,3
 394 899 394 899 498.5 965.5 c 128,-1,4
 603 1032 603 1032 733 1032 c 0,5,6
 864 1032 864 1032 969.5 966 c 128,-1,7
 1075 900 1075 900 1134.5 779 c 128,-1,8
 1194 658 1194 658 1194 510 c 2,9,-1
 1194 -2 l 1,10,-1
 1091 -2 l 1,11,-1
 1091 512 l 2,12,13
 1091 702 1091 702 993 816 c 128,-1,14
 895 930 895 930 735 930 c 0,15,16
 573 930 573 930 477 817 c 128,-1,17
 381 704 381 704 381 510 c 2,18,-1
 381 -2 l 1,19,-1
 278 -2 l 1,0,-1
EndSplineSet
Validated: 1
EndChar

StartChar: equivalence
Encoding: 8801 8801 318
Width: 1196
GlyphClass: 2
Flags: W
LayerCount: 2
Fore
SplineSet
100 956 m 5,0,-1
 100 1104 l 5,1,-1
 1095 1104 l 5,2,-1
 1095 956 l 5,3,-1
 100 956 l 5,0,-1
100 244 m 5,4,-1
 100 392 l 5,5,-1
 1095 392 l 5,6,-1
 1095 244 l 5,7,-1
 100 244 l 5,4,-1
100 600 m 5,8,-1
 100 748 l 5,9,-1
 1095 748 l 5,10,-1
 1095 600 l 5,11,-1
 100 600 l 5,8,-1
EndSplineSet
Validated: 1
EndChar

StartChar: house
Encoding: 8962 8962 319
Width: 1237
GlyphClass: 2
Flags: W
LayerCount: 2
Fore
SplineSet
157 0 m 1,0,-1
 157 635 l 1,1,-1
 618 1153 l 1,2,-1
 1079 635 l 1,3,-1
 1079 0 l 1,4,-1
 157 0 l 1,0,-1
237 82 m 1,5,-1
 999 82 l 1,6,-1
 999 600 l 1,7,-1
 618 1026 l 1,8,-1
 237 600 l 1,9,-1
 237 82 l 1,5,-1
EndSplineSet
Validated: 1
EndChar

StartChar: revlogicalnot
Encoding: 8976 8976 320
Width: 1196
GlyphClass: 2
Flags: W
LayerCount: 2
Fore
SplineSet
100 180 m 1,0,-1
 100 754 l 1,1,-1
 1095 754 l 1,2,-1
 1095 608 l 1,3,-1
 245 608 l 1,4,-1
 245 180 l 1,5,-1
 100 180 l 1,0,-1
EndSplineSet
Validated: 1
EndChar

StartChar: integraltp
Encoding: 8992 8992 321
Width: 1237
GlyphClass: 2
Flags: W
LayerCount: 2
Fore
SplineSet
693 -614 m 1,0,-1
 546 -614 l 1,1,-1
 546 1264 l 2,2,3
 546 1460 546 1460 630 1583 c 128,-1,4
 714 1706 714 1706 840 1706 c 0,5,6
 903 1706 903 1706 940.5 1674.5 c 128,-1,7
 978 1643 978 1643 978 1595 c 0,8,9
 978 1555 978 1555 952.5 1529 c 128,-1,10
 927 1503 927 1503 890 1503 c 0,11,12
 860 1503 860 1503 847 1513 c 1,13,14
 831 1521 831 1521 793 1563 c 1,15,16
 760 1602 760 1602 744 1602 c 0,17,18
 708 1602 708 1602 699 1563 c 1,19,20
 693 1528 693 1528 693 1423 c 2,21,-1
 693 -614 l 1,0,-1
EndSplineSet
Validated: 1
EndChar

StartChar: integralbt
Encoding: 8993 8993 322
Width: 1237
GlyphClass: 2
Flags: W
LayerCount: 2
Fore
SplineSet
546 1706 m 1,0,-1
 693 1706 l 1,1,-1
 693 -174 l 2,2,3
 693 -369 693 -369 611.5 -491.5 c 128,-1,4
 530 -614 530 -614 398 -614 c 0,5,6
 339 -614 339 -614 300 -583.5 c 128,-1,7
 261 -553 261 -553 261 -506 c 0,8,9
 261 -467 261 -467 286 -440.5 c 128,-1,10
 311 -414 311 -414 347 -414 c 0,11,12
 380 -414 380 -414 406 -430 c 1,13,14
 416 -434 416 -434 447 -475 c 1,15,16
 478 -512 478 -512 494 -512 c 0,17,18
 523 -512 523 -512 534.5 -486.5 c 128,-1,19
 546 -461 546 -461 546 -334 c 2,20,-1
 546 1706 l 1,0,-1
EndSplineSet
Validated: 1
EndChar

StartChar: uni2500
Encoding: 9472 9472 323
Width: 1451
GlyphClass: 2
Flags: W
LayerCount: 2
Fore
SplineSet
-10 549 m 1,0,-1
 -10 694 l 1,1,-1
 1461 694 l 1,2,-1
 1461 549 l 1,3,-1
 -10 549 l 1,0,-1
EndSplineSet
Validated: 1
EndChar

StartChar: uni2502
Encoding: 9474 9474 324
Width: 1280
GlyphClass: 2
Flags: W
LayerCount: 2
Fore
SplineSet
472 1864 m 1,0,-1
 617 1864 l 1,1,-1
 617 -621 l 1,2,-1
 472 -621 l 1,3,-1
 472 1864 l 1,0,-1
EndSplineSet
Validated: 1
EndChar

StartChar: uni250C
Encoding: 9484 9484 325
Width: 1451
GlyphClass: 2
Flags: W
LayerCount: 2
Fore
SplineSet
653 694 m 1,0,-1
 1461 694 l 1,1,-1
 1461 549 l 1,2,-1
 798 549 l 1,3,-1
 798 -621 l 1,4,-1
 653 -621 l 1,5,-1
 653 694 l 1,0,-1
EndSplineSet
Validated: 1
EndChar

StartChar: uni2510
Encoding: 9488 9488 326
Width: 1451
GlyphClass: 2
Flags: W
LayerCount: 2
Fore
SplineSet
-10 549 m 1,0,-1
 -10 694 l 1,1,-1
 798 694 l 1,2,-1
 798 -621 l 1,3,-1
 653 -621 l 1,4,-1
 653 549 l 1,5,-1
 -10 549 l 1,0,-1
EndSplineSet
Validated: 1
EndChar

StartChar: uni2514
Encoding: 9492 9492 327
Width: 1451
GlyphClass: 2
Flags: W
LayerCount: 2
Fore
SplineSet
653 1864 m 1,0,-1
 798 1864 l 1,1,-1
 798 694 l 1,2,-1
 1461 694 l 1,3,-1
 1461 549 l 1,4,-1
 653 549 l 1,5,-1
 653 1864 l 1,0,-1
EndSplineSet
Validated: 1
EndChar

StartChar: uni2518
Encoding: 9496 9496 328
Width: 1451
GlyphClass: 2
Flags: W
LayerCount: 2
Fore
SplineSet
-10 549 m 1,0,-1
 -10 694 l 1,1,-1
 653 694 l 1,2,-1
 653 1864 l 1,3,-1
 798 1864 l 1,4,-1
 798 549 l 1,5,-1
 -10 549 l 1,0,-1
EndSplineSet
Validated: 1
EndChar

StartChar: uni251C
Encoding: 9500 9500 329
Width: 1451
GlyphClass: 2
Flags: W
LayerCount: 2
Fore
SplineSet
653 1864 m 1,0,-1
 798 1864 l 1,1,-1
 798 694 l 1,2,-1
 1461 694 l 1,3,-1
 1461 549 l 1,4,-1
 798 549 l 1,5,-1
 798 -621 l 1,6,-1
 653 -621 l 1,7,-1
 653 1864 l 1,0,-1
EndSplineSet
Validated: 1
EndChar

StartChar: uni2524
Encoding: 9508 9508 330
Width: 1451
GlyphClass: 2
Flags: W
LayerCount: 2
Fore
SplineSet
-10 549 m 1,0,-1
 -10 694 l 1,1,-1
 653 694 l 1,2,-1
 653 1864 l 1,3,-1
 798 1864 l 1,4,-1
 798 -621 l 1,5,-1
 653 -621 l 1,6,-1
 653 549 l 1,7,-1
 -10 549 l 1,0,-1
EndSplineSet
Validated: 1
EndChar

StartChar: uni252C
Encoding: 9516 9516 331
Width: 1451
GlyphClass: 2
Flags: W
LayerCount: 2
Fore
SplineSet
-10 549 m 1,0,-1
 -10 694 l 1,1,-1
 1461 694 l 1,2,-1
 1461 549 l 1,3,-1
 798 549 l 1,4,-1
 798 -621 l 1,5,-1
 653 -621 l 1,6,-1
 653 549 l 1,7,-1
 -10 549 l 1,0,-1
EndSplineSet
Validated: 1
EndChar

StartChar: uni2534
Encoding: 9524 9524 332
Width: 1451
GlyphClass: 2
Flags: W
LayerCount: 2
Fore
SplineSet
-10 549 m 1,0,-1
 -10 694 l 1,1,-1
 653 694 l 1,2,-1
 653 1864 l 1,3,-1
 798 1864 l 1,4,-1
 798 694 l 1,5,-1
 1461 694 l 1,6,-1
 1461 549 l 1,7,-1
 -10 549 l 1,0,-1
EndSplineSet
Validated: 1
EndChar

StartChar: uni253C
Encoding: 9532 9532 333
Width: 1451
GlyphClass: 2
Flags: W
LayerCount: 2
Fore
SplineSet
-10 549 m 1,0,-1
 -10 694 l 1,1,-1
 653 694 l 1,2,-1
 653 1864 l 1,3,-1
 798 1864 l 1,4,-1
 798 694 l 1,5,-1
 1461 694 l 1,6,-1
 1461 549 l 1,7,-1
 798 549 l 1,8,-1
 798 -621 l 1,9,-1
 653 -621 l 1,10,-1
 653 549 l 1,11,-1
 -10 549 l 1,0,-1
EndSplineSet
Validated: 1
EndChar

StartChar: uni2550
Encoding: 9552 9552 334
Width: 1451
GlyphClass: 2
Flags: W
LayerCount: 2
Fore
SplineSet
-10 729 m 1,0,-1
 -10 874 l 1,1,-1
 1461 874 l 1,2,-1
 1461 729 l 1,3,-1
 -10 729 l 1,0,-1
-10 369 m 1,4,-1
 -10 514 l 1,5,-1
 1461 514 l 1,6,-1
 1461 369 l 1,7,-1
 -10 369 l 1,4,-1
EndSplineSet
Validated: 1
EndChar

StartChar: uni2551
Encoding: 9553 9553 335
Width: 1451
GlyphClass: 2
Flags: W
LayerCount: 2
Fore
SplineSet
473 1864 m 1,0,-1
 618 1864 l 1,1,-1
 618 -621 l 1,2,-1
 473 -621 l 1,3,-1
 473 1864 l 1,0,-1
833 1864 m 1,4,-1
 978 1864 l 1,5,-1
 978 -621 l 1,6,-1
 833 -621 l 1,7,-1
 833 1864 l 1,4,-1
EndSplineSet
Validated: 1
EndChar

StartChar: uni2552
Encoding: 9554 9554 336
Width: 1451
GlyphClass: 2
Flags: W
LayerCount: 2
Fore
SplineSet
653 874 m 1,0,-1
 1461 874 l 1,1,-1
 1461 729 l 1,2,-1
 798 729 l 1,3,-1
 798 514 l 1,4,-1
 1461 514 l 1,5,-1
 1461 369 l 1,6,-1
 798 369 l 1,7,-1
 798 -621 l 1,8,-1
 653 -621 l 1,9,-1
 653 874 l 1,0,-1
EndSplineSet
Validated: 1
EndChar

StartChar: uni2553
Encoding: 9555 9555 337
Width: 1451
GlyphClass: 2
Flags: W
LayerCount: 2
Fore
SplineSet
1461 694 m 1,0,-1
 1461 549 l 1,1,-1
 978 549 l 1,2,-1
 978 -621 l 1,3,-1
 833 -621 l 1,4,-1
 833 549 l 1,5,-1
 618 549 l 1,6,-1
 618 -621 l 1,7,-1
 473 -621 l 1,8,-1
 473 694 l 1,9,-1
 1461 694 l 1,0,-1
EndSplineSet
Validated: 1
EndChar

StartChar: uni2554
Encoding: 9556 9556 338
Width: 1451
GlyphClass: 2
Flags: W
LayerCount: 2
Fore
SplineSet
473 874 m 1,0,-1
 1461 874 l 1,1,-1
 1461 729 l 1,2,-1
 618 729 l 1,3,-1
 618 -621 l 1,4,-1
 473 -621 l 1,5,-1
 473 874 l 1,0,-1
833 514 m 1,6,-1
 1461 514 l 1,7,-1
 1461 369 l 1,8,-1
 978 369 l 1,9,-1
 978 -621 l 1,10,-1
 833 -621 l 1,11,-1
 833 514 l 1,6,-1
EndSplineSet
Validated: 1
EndChar

StartChar: uni2555
Encoding: 9557 9557 339
Width: 1451
GlyphClass: 2
Flags: W
LayerCount: 2
Fore
SplineSet
-10 369 m 1,0,-1
 -10 514 l 1,1,-1
 653 514 l 1,2,-1
 653 729 l 1,3,-1
 -10 729 l 1,4,-1
 -10 874 l 1,5,-1
 798 874 l 1,6,-1
 798 -621 l 1,7,-1
 653 -621 l 1,8,-1
 653 369 l 1,9,-1
 -10 369 l 1,0,-1
EndSplineSet
Validated: 1
EndChar

StartChar: uni2556
Encoding: 9558 9558 340
Width: 1451
GlyphClass: 2
Flags: W
LayerCount: 2
Fore
SplineSet
-10 549 m 1,0,-1
 -10 694 l 1,1,-1
 978 694 l 1,2,-1
 978 -621 l 1,3,-1
 833 -621 l 1,4,-1
 833 549 l 1,5,-1
 618 549 l 1,6,-1
 618 -621 l 1,7,-1
 473 -621 l 1,8,-1
 473 549 l 1,9,-1
 -10 549 l 1,0,-1
EndSplineSet
Validated: 1
EndChar

StartChar: uni2557
Encoding: 9559 9559 341
Width: 1451
GlyphClass: 2
Flags: W
LayerCount: 2
Fore
SplineSet
978 874 m 1,0,-1
 978 -621 l 1,1,-1
 833 -621 l 1,2,-1
 833 729 l 1,3,-1
 -10 729 l 1,4,-1
 -10 874 l 1,5,-1
 978 874 l 1,0,-1
618 -621 m 1,6,-1
 473 -621 l 1,7,-1
 473 369 l 1,8,-1
 -10 369 l 1,9,-1
 -10 514 l 1,10,-1
 618 514 l 1,11,-1
 618 -621 l 1,6,-1
EndSplineSet
Validated: 1
EndChar

StartChar: uni2558
Encoding: 9560 9560 342
Width: 1451
GlyphClass: 2
Flags: W
LayerCount: 2
Fore
SplineSet
653 1864 m 1,0,-1
 798 1864 l 1,1,-1
 798 874 l 1,2,-1
 1461 874 l 1,3,-1
 1461 729 l 1,4,-1
 798 729 l 1,5,-1
 798 514 l 1,6,-1
 1461 514 l 1,7,-1
 1461 369 l 1,8,-1
 653 369 l 1,9,-1
 653 1864 l 1,0,-1
EndSplineSet
Validated: 1
EndChar

StartChar: uni2559
Encoding: 9561 9561 343
Width: 1451
GlyphClass: 2
Flags: W
LayerCount: 2
Fore
SplineSet
833 1864 m 1,0,-1
 978 1864 l 1,1,-1
 978 694 l 1,2,-1
 1461 694 l 1,3,-1
 1461 549 l 1,4,-1
 473 549 l 1,5,-1
 473 1864 l 1,6,-1
 618 1864 l 1,7,-1
 618 694 l 1,8,-1
 833 694 l 1,9,-1
 833 1864 l 1,0,-1
EndSplineSet
Validated: 1
EndChar

StartChar: uni255A
Encoding: 9562 9562 344
Width: 1451
GlyphClass: 2
Flags: W
LayerCount: 2
Fore
SplineSet
473 1864 m 1,0,-1
 618 1864 l 1,1,-1
 618 514 l 1,2,-1
 1461 514 l 1,3,-1
 1461 369 l 1,4,-1
 473 369 l 1,5,-1
 473 1864 l 1,0,-1
833 1864 m 1,6,-1
 978 1864 l 1,7,-1
 978 874 l 1,8,-1
 1461 874 l 1,9,-1
 1461 729 l 1,10,-1
 833 729 l 1,11,-1
 833 1864 l 1,6,-1
EndSplineSet
Validated: 1
EndChar

StartChar: uni255B
Encoding: 9563 9563 345
Width: 1451
GlyphClass: 2
Flags: W
LayerCount: 2
Fore
SplineSet
-10 369 m 1,0,-1
 -10 514 l 1,1,-1
 653 514 l 1,2,-1
 653 729 l 1,3,-1
 -10 729 l 1,4,-1
 -10 874 l 1,5,-1
 653 874 l 1,6,-1
 653 1864 l 1,7,-1
 798 1864 l 1,8,-1
 798 369 l 1,9,-1
 -10 369 l 1,0,-1
EndSplineSet
Validated: 1
EndChar

StartChar: uni255C
Encoding: 9564 9564 346
Width: 1451
GlyphClass: 2
Flags: W
LayerCount: 2
Fore
SplineSet
978 549 m 1,0,-1
 -10 549 l 1,1,-1
 -10 694 l 1,2,-1
 473 694 l 1,3,-1
 473 1864 l 1,4,-1
 618 1864 l 1,5,-1
 618 694 l 1,6,-1
 833 694 l 1,7,-1
 833 1864 l 1,8,-1
 978 1864 l 1,9,-1
 978 549 l 1,0,-1
EndSplineSet
Validated: 1
EndChar

StartChar: uni255D
Encoding: 9565 9565 347
Width: 1451
GlyphClass: 2
Flags: W
LayerCount: 2
Fore
SplineSet
978 369 m 1,0,-1
 -10 369 l 1,1,-1
 -10 514 l 1,2,-1
 833 514 l 1,3,-1
 833 1864 l 1,4,-1
 978 1864 l 1,5,-1
 978 369 l 1,0,-1
473 1864 m 1,6,-1
 618 1864 l 1,7,-1
 618 729 l 1,8,-1
 -10 729 l 1,9,-1
 -10 874 l 1,10,-1
 473 874 l 1,11,-1
 473 1864 l 1,6,-1
EndSplineSet
Validated: 1
EndChar

StartChar: uni255E
Encoding: 9566 9566 348
Width: 1451
GlyphClass: 2
Flags: W
LayerCount: 2
Fore
SplineSet
653 1864 m 1,0,-1
 798 1864 l 1,1,-1
 798 874 l 1,2,-1
 1461 874 l 1,3,-1
 1461 729 l 1,4,-1
 798 729 l 1,5,-1
 798 514 l 1,6,-1
 1461 514 l 1,7,-1
 1461 369 l 1,8,-1
 798 369 l 1,9,-1
 798 -621 l 1,10,-1
 653 -621 l 1,11,-1
 653 1864 l 1,0,-1
EndSplineSet
Validated: 1
EndChar

StartChar: uni255F
Encoding: 9567 9567 349
Width: 1451
GlyphClass: 2
Flags: W
LayerCount: 2
Fore
SplineSet
833 1864 m 1,0,-1
 978 1864 l 1,1,-1
 978 694 l 1,2,-1
 1461 694 l 1,3,-1
 1461 549 l 1,4,-1
 978 549 l 1,5,-1
 978 -621 l 1,6,-1
 833 -621 l 1,7,-1
 833 1864 l 1,0,-1
473 1864 m 1,8,-1
 618 1864 l 1,9,-1
 618 -621 l 1,10,-1
 473 -621 l 1,11,-1
 473 1864 l 1,8,-1
EndSplineSet
Validated: 1
EndChar

StartChar: uni2560
Encoding: 9568 9568 350
Width: 1451
GlyphClass: 2
Flags: W
LayerCount: 2
Fore
SplineSet
618 -621 m 1,0,-1
 473 -621 l 1,1,-1
 473 1864 l 1,2,-1
 618 1864 l 1,3,-1
 618 -621 l 1,0,-1
833 514 m 1,4,-1
 1461 514 l 1,5,-1
 1461 369 l 1,6,-1
 978 369 l 1,7,-1
 978 -621 l 1,8,-1
 833 -621 l 1,9,-1
 833 514 l 1,4,-1
833 1864 m 1,10,-1
 978 1864 l 1,11,-1
 978 874 l 1,12,-1
 1461 874 l 1,13,-1
 1461 729 l 1,14,-1
 833 729 l 1,15,-1
 833 1864 l 1,10,-1
EndSplineSet
Validated: 1
EndChar

StartChar: uni2561
Encoding: 9569 9569 351
Width: 1451
GlyphClass: 2
Flags: W
LayerCount: 2
Fore
SplineSet
-10 369 m 1,0,-1
 -10 514 l 1,1,-1
 653 514 l 1,2,-1
 653 729 l 1,3,-1
 -10 729 l 1,4,-1
 -10 874 l 1,5,-1
 653 874 l 1,6,-1
 653 1864 l 1,7,-1
 798 1864 l 1,8,-1
 798 -621 l 1,9,-1
 653 -621 l 1,10,-1
 653 369 l 1,11,-1
 -10 369 l 1,0,-1
EndSplineSet
Validated: 1
EndChar

StartChar: uni2562
Encoding: 9570 9570 352
Width: 1451
GlyphClass: 2
Flags: W
LayerCount: 2
Fore
SplineSet
-10 549 m 1,0,-1
 -10 694 l 1,1,-1
 473 694 l 1,2,-1
 473 1864 l 1,3,-1
 618 1864 l 1,4,-1
 618 -621 l 1,5,-1
 473 -621 l 1,6,-1
 473 549 l 1,7,-1
 -10 549 l 1,0,-1
833 1864 m 1,8,-1
 978 1864 l 1,9,-1
 978 -621 l 1,10,-1
 833 -621 l 1,11,-1
 833 1864 l 1,8,-1
EndSplineSet
Validated: 1
EndChar

StartChar: uni2563
Encoding: 9571 9571 353
Width: 1451
GlyphClass: 2
Flags: W
LayerCount: 2
Fore
SplineSet
833 1864 m 1,0,-1
 978 1864 l 1,1,-1
 978 -621 l 1,2,-1
 833 -621 l 1,3,-1
 833 1864 l 1,0,-1
473 1864 m 1,4,-1
 618 1864 l 1,5,-1
 618 729 l 1,6,-1
 -10 729 l 1,7,-1
 -10 874 l 1,8,-1
 473 874 l 1,9,-1
 473 1864 l 1,4,-1
618 -621 m 1,10,-1
 473 -621 l 1,11,-1
 473 369 l 1,12,-1
 -10 369 l 1,13,-1
 -10 514 l 1,14,-1
 618 514 l 1,15,-1
 618 -621 l 1,10,-1
EndSplineSet
Validated: 1
EndChar

StartChar: uni2564
Encoding: 9572 9572 354
Width: 1451
GlyphClass: 2
Flags: W
LayerCount: 2
Fore
SplineSet
-10 369 m 1,0,-1
 -10 514 l 1,1,-1
 1461 514 l 1,2,-1
 1461 369 l 1,3,-1
 798 369 l 1,4,-1
 798 -621 l 1,5,-1
 653 -621 l 1,6,-1
 653 369 l 1,7,-1
 -10 369 l 1,0,-1
-10 729 m 1,8,-1
 -10 874 l 1,9,-1
 1461 874 l 1,10,-1
 1461 729 l 1,11,-1
 -10 729 l 1,8,-1
EndSplineSet
Validated: 1
EndChar

StartChar: uni2565
Encoding: 9573 9573 355
Width: 1451
GlyphClass: 2
Flags: W
LayerCount: 2
Fore
SplineSet
-10 549 m 1,0,-1
 -10 694 l 1,1,-1
 1461 694 l 1,2,-1
 1461 549 l 1,3,-1
 978 549 l 1,4,-1
 978 -621 l 1,5,-1
 833 -621 l 1,6,-1
 833 549 l 1,7,-1
 618 549 l 1,8,-1
 618 -621 l 1,9,-1
 473 -621 l 1,10,-1
 473 549 l 1,11,-1
 -10 549 l 1,0,-1
EndSplineSet
Validated: 1
EndChar

StartChar: uni2566
Encoding: 9574 9574 356
Width: 1451
GlyphClass: 2
Flags: W
LayerCount: 2
Fore
SplineSet
618 -621 m 1,0,-1
 473 -621 l 1,1,-1
 473 369 l 1,2,-1
 -10 369 l 1,3,-1
 -10 514 l 1,4,-1
 618 514 l 1,5,-1
 618 -621 l 1,0,-1
833 514 m 1,6,-1
 1461 514 l 1,7,-1
 1461 369 l 1,8,-1
 978 369 l 1,9,-1
 978 -621 l 1,10,-1
 833 -621 l 1,11,-1
 833 514 l 1,6,-1
1461 874 m 1,12,-1
 1461 729 l 1,13,-1
 -10 729 l 1,14,-1
 -10 874 l 1,15,-1
 1461 874 l 1,12,-1
EndSplineSet
Validated: 1
EndChar

StartChar: uni2567
Encoding: 9575 9575 357
Width: 1451
GlyphClass: 2
Flags: W
LayerCount: 2
Fore
SplineSet
-10 729 m 1,0,-1
 -10 874 l 1,1,-1
 653 874 l 1,2,-1
 653 1864 l 1,3,-1
 798 1864 l 1,4,-1
 798 874 l 1,5,-1
 1461 874 l 1,6,-1
 1461 729 l 1,7,-1
 -10 729 l 1,0,-1
-10 369 m 1,8,-1
 -10 514 l 1,9,-1
 1461 514 l 1,10,-1
 1461 369 l 1,11,-1
 -10 369 l 1,8,-1
EndSplineSet
Validated: 1
EndChar

StartChar: uni2568
Encoding: 9576 9576 358
Width: 1451
GlyphClass: 2
Flags: W
LayerCount: 2
Fore
SplineSet
-10 549 m 1,0,-1
 -10 694 l 1,1,-1
 473 694 l 1,2,-1
 473 1864 l 1,3,-1
 618 1864 l 1,4,-1
 618 694 l 1,5,-1
 833 694 l 1,6,-1
 833 1864 l 1,7,-1
 978 1864 l 1,8,-1
 978 694 l 1,9,-1
 1461 694 l 1,10,-1
 1461 549 l 1,11,-1
 -10 549 l 1,0,-1
EndSplineSet
Validated: 1
EndChar

StartChar: uni2569
Encoding: 9577 9577 359
Width: 1451
GlyphClass: 2
Flags: W
LayerCount: 2
Fore
SplineSet
833 1864 m 1,0,-1
 978 1864 l 1,1,-1
 978 874 l 1,2,-1
 1461 874 l 1,3,-1
 1461 729 l 1,4,-1
 833 729 l 1,5,-1
 833 1864 l 1,0,-1
473 1864 m 1,6,-1
 618 1864 l 1,7,-1
 618 729 l 1,8,-1
 -10 729 l 1,9,-1
 -10 874 l 1,10,-1
 473 874 l 1,11,-1
 473 1864 l 1,6,-1
-10 369 m 1,12,-1
 -10 514 l 1,13,-1
 1461 514 l 1,14,-1
 1461 369 l 1,15,-1
 -10 369 l 1,12,-1
EndSplineSet
Validated: 1
EndChar

StartChar: uni256A
Encoding: 9578 9578 360
Width: 1451
GlyphClass: 2
Flags: W
LayerCount: 2
Fore
SplineSet
-10 369 m 1,0,-1
 -10 514 l 1,1,-1
 653 514 l 1,2,-1
 653 729 l 1,3,-1
 -10 729 l 1,4,-1
 -10 874 l 1,5,-1
 653 874 l 1,6,-1
 653 1864 l 1,7,-1
 798 1864 l 1,8,-1
 798 874 l 1,9,-1
 1461 874 l 1,10,-1
 1461 729 l 1,11,-1
 798 729 l 1,12,-1
 798 514 l 1,13,-1
 1461 514 l 1,14,-1
 1461 369 l 1,15,-1
 798 369 l 1,16,-1
 798 -621 l 1,17,-1
 653 -621 l 1,18,-1
 653 369 l 1,19,-1
 -10 369 l 1,0,-1
EndSplineSet
Validated: 1
EndChar

StartChar: uni256B
Encoding: 9579 9579 361
Width: 1451
GlyphClass: 2
Flags: W
LayerCount: 2
Fore
SplineSet
833 1864 m 1,0,-1
 978 1864 l 1,1,-1
 978 694 l 1,2,-1
 1461 694 l 1,3,-1
 1461 549 l 1,4,-1
 978 549 l 1,5,-1
 978 -621 l 1,6,-1
 833 -621 l 1,7,-1
 833 549 l 1,8,-1
 618 549 l 1,9,-1
 618 -621 l 1,10,-1
 473 -621 l 1,11,-1
 473 549 l 1,12,-1
 -10 549 l 1,13,-1
 -10 694 l 1,14,-1
 473 694 l 1,15,-1
 473 1864 l 1,16,-1
 618 1864 l 1,17,-1
 618 694 l 1,18,-1
 833 694 l 1,19,-1
 833 1864 l 1,0,-1
EndSplineSet
Validated: 1
EndChar

StartChar: uni256C
Encoding: 9580 9580 362
Width: 1451
GlyphClass: 2
Flags: W
LayerCount: 2
Fore
SplineSet
833 1864 m 1,0,-1
 978 1864 l 1,1,-1
 978 874 l 1,2,-1
 1461 874 l 1,3,-1
 1461 729 l 1,4,-1
 833 729 l 1,5,-1
 833 1864 l 1,0,-1
618 -621 m 1,6,-1
 473 -621 l 1,7,-1
 473 369 l 1,8,-1
 -10 369 l 1,9,-1
 -10 514 l 1,10,-1
 618 514 l 1,11,-1
 618 -621 l 1,6,-1
833 514 m 1,12,-1
 1461 514 l 1,13,-1
 1461 369 l 1,14,-1
 978 369 l 1,15,-1
 978 -621 l 1,16,-1
 833 -621 l 1,17,-1
 833 514 l 1,12,-1
473 1864 m 1,18,-1
 618 1864 l 1,19,-1
 618 729 l 1,20,-1
 -10 729 l 1,21,-1
 -10 874 l 1,22,-1
 473 874 l 1,23,-1
 473 1864 l 1,18,-1
EndSplineSet
Validated: 1
EndChar

StartChar: upblock
Encoding: 9600 9600 363
Width: 1451
GlyphClass: 2
Flags: W
LayerCount: 2
Fore
SplineSet
1451 621 m 1,0,-1
 0 621 l 1,1,-1
 0 1864 l 1,2,-1
 1451 1864 l 1,3,-1
 1451 621 l 1,0,-1
EndSplineSet
Validated: 1
EndChar

StartChar: dnblock
Encoding: 9604 9604 364
Width: 1451
GlyphClass: 2
Flags: W
LayerCount: 2
Fore
SplineSet
1451 -621 m 1,0,-1
 0 -621 l 1,1,-1
 0 621 l 1,2,-1
 1451 621 l 1,3,-1
 1451 -621 l 1,0,-1
EndSplineSet
Validated: 1
EndChar

StartChar: block
Encoding: 9608 9608 365
Width: 1451
GlyphClass: 2
Flags: W
LayerCount: 2
Fore
SplineSet
1451 -621 m 1,0,-1
 0 -621 l 1,1,-1
 0 1864 l 1,2,-1
 1451 1864 l 1,3,-1
 1451 -621 l 1,0,-1
EndSplineSet
Validated: 1
EndChar

StartChar: lfblock
Encoding: 9612 9612 366
Width: 1451
GlyphClass: 2
Flags: W
LayerCount: 2
Fore
SplineSet
726 -621 m 1,0,-1
 0 -621 l 1,1,-1
 0 1864 l 1,2,-1
 726 1864 l 1,3,-1
 726 -621 l 1,0,-1
EndSplineSet
Validated: 1
EndChar

StartChar: rtblock
Encoding: 9616 9616 367
Width: 1451
GlyphClass: 2
Flags: W
LayerCount: 2
Fore
SplineSet
1451 -621 m 1,0,-1
 725 -621 l 1,1,-1
 725 1864 l 1,2,-1
 1451 1864 l 1,3,-1
 1451 -621 l 1,0,-1
EndSplineSet
Validated: 1
EndChar

StartChar: ltshade
Encoding: 9617 9617 368
Width: 1451
GlyphClass: 2
Flags: W
LayerCount: 2
Fore
SplineSet
103 1314 m 1,0,-1
 207 1314 l 1,1,-1
 207 1216 l 1,2,-1
 103 1216 l 1,3,-1
 103 1314 l 1,0,-1
517 1314 m 1,4,-1
 621 1314 l 1,5,-1
 621 1216 l 1,6,-1
 517 1216 l 1,7,-1
 517 1314 l 1,4,-1
933 1314 m 1,8,-1
 1036 1314 l 1,9,-1
 1036 1216 l 1,10,-1
 933 1216 l 1,11,-1
 933 1314 l 1,8,-1
310 1119 m 1,12,-1
 414 1119 l 1,13,-1
 414 1023 l 1,14,-1
 310 1023 l 1,15,-1
 310 1119 l 1,12,-1
725 1119 m 1,16,-1
 829 1119 l 1,17,-1
 829 1023 l 1,18,-1
 725 1023 l 1,19,-1
 725 1119 l 1,16,-1
1140 1119 m 1,20,-1
 1244 1119 l 1,21,-1
 1244 1023 l 1,22,-1
 1140 1023 l 1,23,-1
 1140 1119 l 1,20,-1
933 927 m 1,24,-1
 1036 927 l 1,25,-1
 1036 831 l 1,26,-1
 933 831 l 1,27,-1
 933 927 l 1,24,-1
517 927 m 1,28,-1
 621 927 l 1,29,-1
 621 831 l 1,30,-1
 517 831 l 1,31,-1
 517 927 l 1,28,-1
103 927 m 1,32,-1
 207 927 l 1,33,-1
 207 831 l 1,34,-1
 103 831 l 1,35,-1
 103 927 l 1,32,-1
1140 732 m 1,36,-1
 1244 732 l 1,37,-1
 1244 636 l 1,38,-1
 1140 636 l 1,39,-1
 1140 732 l 1,36,-1
725 732 m 1,40,-1
 829 732 l 1,41,-1
 829 636 l 1,42,-1
 725 636 l 1,43,-1
 725 732 l 1,40,-1
310 732 m 1,44,-1
 414 732 l 1,45,-1
 414 636 l 1,46,-1
 310 636 l 1,47,-1
 310 732 l 1,44,-1
103 540 m 1,48,-1
 207 540 l 1,49,-1
 207 444 l 1,50,-1
 103 444 l 1,51,-1
 103 540 l 1,48,-1
517 540 m 1,52,-1
 621 540 l 1,53,-1
 621 444 l 1,54,-1
 517 444 l 1,55,-1
 517 540 l 1,52,-1
933 540 m 1,56,-1
 1036 540 l 1,57,-1
 1036 444 l 1,58,-1
 933 444 l 1,59,-1
 933 540 l 1,56,-1
1140 345 m 1,60,-1
 1244 345 l 1,61,-1
 1244 249 l 1,62,-1
 1140 249 l 1,63,-1
 1140 345 l 1,60,-1
725 345 m 1,64,-1
 829 345 l 1,65,-1
 829 249 l 1,66,-1
 725 249 l 1,67,-1
 725 345 l 1,64,-1
310 345 m 1,68,-1
 414 345 l 1,69,-1
 414 249 l 1,70,-1
 310 249 l 1,71,-1
 310 345 l 1,68,-1
103 153 m 1,72,-1
 207 153 l 1,73,-1
 207 56 l 1,74,-1
 103 56 l 1,75,-1
 103 153 l 1,72,-1
517 153 m 1,76,-1
 621 153 l 1,77,-1
 621 56 l 1,78,-1
 517 56 l 1,79,-1
 517 153 l 1,76,-1
933 153 m 1,80,-1
 1036 153 l 1,81,-1
 1036 56 l 1,82,-1
 933 56 l 1,83,-1
 933 153 l 1,80,-1
310 -42 m 1,84,-1
 414 -42 l 1,85,-1
 414 -136 l 1,86,-1
 310 -136 l 1,87,-1
 310 -42 l 1,84,-1
725 -42 m 1,88,-1
 829 -42 l 1,89,-1
 829 -136 l 1,90,-1
 725 -136 l 1,91,-1
 725 -42 l 1,88,-1
1140 -42 m 1,92,-1
 1244 -42 l 1,93,-1
 1244 -136 l 1,94,-1
 1140 -136 l 1,95,-1
 1140 -42 l 1,92,-1
933 -234 m 1,96,-1
 1036 -234 l 1,97,-1
 1036 -331 l 1,98,-1
 933 -331 l 1,99,-1
 933 -234 l 1,96,-1
517 -234 m 1,100,-1
 621 -234 l 1,101,-1
 621 -331 l 1,102,-1
 517 -331 l 1,103,-1
 517 -234 l 1,100,-1
103 -234 m 1,104,-1
 207 -234 l 1,105,-1
 207 -331 l 1,106,-1
 103 -331 l 1,107,-1
 103 -234 l 1,104,-1
310 -427 m 1,108,-1
 414 -427 l 1,109,-1
 414 -523 l 1,110,-1
 310 -523 l 1,111,-1
 310 -427 l 1,108,-1
725 -427 m 1,112,-1
 829 -427 l 1,113,-1
 829 -523 l 1,114,-1
 725 -523 l 1,115,-1
 725 -427 l 1,112,-1
1140 -427 m 1,116,-1
 1244 -427 l 1,117,-1
 1244 -523 l 1,118,-1
 1140 -523 l 1,119,-1
 1140 -427 l 1,116,-1
310 1506 m 1,120,-1
 414 1506 l 1,121,-1
 414 1408 l 1,122,-1
 310 1408 l 1,123,-1
 310 1506 l 1,120,-1
725 1506 m 1,124,-1
 829 1506 l 1,125,-1
 829 1408 l 1,126,-1
 725 1408 l 1,127,-1
 725 1506 l 1,124,-1
1140 1506 m 1,128,-1
 1244 1506 l 1,129,-1
 1244 1408 l 1,130,-1
 1140 1408 l 1,131,-1
 1140 1506 l 1,128,-1
103 1699 m 1,132,-1
 207 1699 l 1,133,-1
 207 1603 l 1,134,-1
 103 1603 l 1,135,-1
 103 1699 l 1,132,-1
517 1699 m 1,136,-1
 621 1699 l 1,137,-1
 621 1603 l 1,138,-1
 517 1603 l 1,139,-1
 517 1699 l 1,136,-1
933 1699 m 1,140,-1
 1036 1699 l 1,141,-1
 1036 1603 l 1,142,-1
 933 1603 l 1,143,-1
 933 1699 l 1,140,-1
1347 1314 m 1,144,-1
 1451 1314 l 1,145,-1
 1451 1216 l 1,146,-1
 1347 1216 l 1,147,-1
 1347 1314 l 1,144,-1
1347 927 m 1,148,-1
 1451 927 l 1,149,-1
 1451 831 l 1,150,-1
 1347 831 l 1,151,-1
 1347 927 l 1,148,-1
1347 540 m 1,152,-1
 1451 540 l 1,153,-1
 1451 444 l 1,154,-1
 1347 444 l 1,155,-1
 1347 540 l 1,152,-1
1347 153 m 1,156,-1
 1451 153 l 1,157,-1
 1451 56 l 1,158,-1
 1347 56 l 1,159,-1
 1347 153 l 1,156,-1
1347 -234 m 1,160,-1
 1451 -234 l 1,161,-1
 1451 -331 l 1,162,-1
 1347 -331 l 1,163,-1
 1347 -234 l 1,160,-1
1347 1699 m 1,164,-1
 1451 1699 l 1,165,-1
 1451 1603 l 1,166,-1
 1347 1603 l 1,167,-1
 1347 1699 l 1,164,-1
EndSplineSet
Validated: 1
EndChar

